<?xml version="1.0" encoding="UTF-8" standalone="no"?>
<svg
   xmlns:dc="http://purl.org/dc/elements/1.1/"
   xmlns:cc="http://creativecommons.org/ns#"
   xmlns:rdf="http://www.w3.org/1999/02/22-rdf-syntax-ns#"
   xmlns:svg="http://www.w3.org/2000/svg"
   xmlns="http://www.w3.org/2000/svg"
   xmlns:sodipodi="http://sodipodi.sourceforge.net/DTD/sodipodi-0.dtd"
   xmlns:inkscape="http://www.inkscape.org/namespaces/inkscape"
   width="400"
   height="400"
   viewBox="0 0 105.83333 105.83334"
   version="1.1"
   id="svg8"
   inkscape:version="1.0.2 (e86c8708, 2021-01-15)"
   sodipodi:docname="audiobc21-website-header.svg"
   inkscape:export-filename="/Users/simondueckert/OneDrive - Cogneon GmbH/Projekte/audio-barcamp/audiobc21-website-header.png"
   inkscape:export-xdpi="96"
   inkscape:export-ydpi="96">
  <defs
     id="defs2" />
  <sodipodi:namedview
     id="base"
     pagecolor="#000000"
     bordercolor="#666666"
     borderopacity="1.0"
     inkscape:pageopacity="0"
     inkscape:pageshadow="2"
     inkscape:zoom="0.92162618"
     inkscape:cx="298.20126"
     inkscape:cy="172.68288"
     inkscape:document-units="mm"
     inkscape:current-layer="layer1"
     inkscape:document-rotation="0"
     showgrid="false"
     units="px"
     inkscape:window-width="1440"
     inkscape:window-height="900"
     inkscape:window-x="0"
     inkscape:window-y="0"
     inkscape:window-maximized="0"
     inkscape:pagecheckerboard="true" />
  <metadata
     id="metadata5">
    <rdf:RDF>
      <cc:Work
         rdf:about="">
        <dc:format>image/svg+xml</dc:format>
        <dc:type
           rdf:resource="http://purl.org/dc/dcmitype/StillImage" />
        <dc:title></dc:title>
      </cc:Work>
    </rdf:RDF>
  </metadata>
  <g
     inkscape:label="Ebene 1"
     inkscape:groupmode="layer"
     id="layer1">
    <circle
       style="fill:#ff93b3;fill-opacity:1;stroke-width:0.483382"
       id="path607"
       cx="52.916668"
       cy="52.916668"
       r="51.59375" />
    <g
       id="g587"
       transform="matrix(0.75900148,0,0,0.75900148,-34.250372,-6.9724686)">
      <g
         transform="matrix(1.5796825,0,0,1.5796825,55.735821,14.035459)"
         style="fill:#ffffff;fill-rule:nonzero;stroke:none;stroke-width:1;stroke-linecap:butt;stroke-linejoin:miter;stroke-dasharray:none"
         id="g4487">
        <path
           d="m 34.5909,35.5508 c 4.1113,-1.7139 4.2753,-8.251 2.4492,-11.6602 -2.4492,-4.5723 -8.6328,-3.8125 -12.8076,-2.6191 1.1572,-3.3243 3.2802,-7.8653 7.1142,-8.5215 3.8067,-0.6514 7.5332,1.7119 10.8438,3.2431 2.956,1.3692 8.1533,3.087 10.2881,-0.6474 0.6484,-1.5762 -1.2774,-2.875 -2.9659,-3.9463 C 47.8282,10.3291 46.0342,9.30372 44.1612,8.60152 84.7119,0 85.8301,85.081 42.9004,72.9551 c -3.0996,-0.8741 -6.081,-2.1338 -8.9502,-3.5879 4.0088,0.333 8.3272,-0.0918 11.5352,-2.6924 2.7471,-2.2266 4.1973,-6.8711 -0.3291,-7.9502 -4.0684,-0.9697 -8.499,1.5078 -12.5117,1.8486 -5.0528,0.4287 -9.3614,0.5557 -12.2344,-3.4287 2.2236,-0.2773 3.9453,-0.8691 4.8184,-1.501 1.5117,-1.0927 2.9765,-2.623 3.1093,-4.5722 0.2569,-3.7305 -2.6093,-7.2246 -5.8193,-8.8135 -1.4844,-0.7334 -3.2608,-0.9951 -4.8643,-0.5225 -2.0654,0.6094 -2.6611,2.3916 -4.1074,3.7618 -1.416,1.3408 -2.7383,2.3222 -4.68943,2.7119 C 6.58207,48.6113 4.38277,47.5185 2.62989,46.1601 1.67188,45.415 0.85645,44.5137 0,43.6572 c 3.65821,0.5225 8.53517,1.4658 10.6787,-2.6387 1.7237,-3.3017 -0.3222,-7.0556 1.5,-10.3964 2.3409,-4.2881 8.2803,-0.9278 11.1973,0.7568 3.3467,1.9336 6.6787,6.0605 11.2149,4.1719 z"
           id="path4485"
           style="fill:#ffffff" />
      </g>
      <g
         transform="matrix(1.5796825,0,0,1.5796825,136.98927,61.604943)"
         style="fill:#ffffff;fill-rule:nonzero;stroke:none;stroke-width:1;stroke-linecap:butt;stroke-linejoin:miter;stroke-dasharray:none"
         id="g4491">
        <path
           d="M 2.9394,23.3554 C 5.25,20.0029 6.4716,16.0791 6.4716,12.0078 6.4716,8.0244 5.3017,4.1728 3.0878,0.8711 2.6269,0.1836 1.6953,0 1.0068,0.4599 0.3183,0.9218 0.1347,1.8545 0.5957,2.542 c 1.8818,2.8056 2.8759,6.0791 2.8759,9.4658 0,3.4599 -1.038,6.7949 -3.0019,9.6445 -0.4697,0.6826 -0.2988,1.6162 0.3838,2.0869 0.6816,0.4697 1.6162,0.2979 2.0859,-0.3838 z"
           id="path4489"
           style="fill:#ffffff" />
      </g>
      <g
         transform="matrix(1.5796825,0,0,1.5796825,146.13721,55.431228)"
         style="fill:#ffffff;fill-rule:nonzero;stroke:none;stroke-width:1;stroke-linecap:butt;stroke-linejoin:miter;stroke-dasharray:none"
         id="g4495">
        <path
           d="M 2.9394,31.248 C 6.0586,26.7236 7.707,21.4218 7.707,15.916 7.707,10.5322 6.1269,5.3291 3.1386,0.8711 2.6767,0.1836 1.7451,0 1.0566,0.4609 0.3681,0.9218 0.1845,1.8545 0.6465,2.542 3.3027,6.5048 4.707,11.1289 4.707,15.916 4.707,20.8115 3.2422,25.5244 0.4707,29.5449 0,30.2275 0.1718,31.1611 0.8545,31.6318 1.5351,32.1015 2.4697,31.9296 2.9394,31.248 Z"
           id="path4493"
           style="fill:#ffffff" />
      </g>
      <path
         d="m 155.96236,53.555356 c 5.36697,8.004725 8.20393,17.347125 8.20393,27.018099 0,9.886917 -2.96049,19.408137 -8.55872,27.533395 -0.74356,1.07829 -0.47201,2.55308 0.60628,3.29664 1.07671,0.74197 2.55308,0.47043 3.29348,-0.60629 6.14907,-8.92125 9.398,-19.371168 9.398,-30.223745 0,-10.61515 -3.11308,-20.870607 -9.00766,-29.657591 -0.72808,-1.087611 -2.20129,-1.377641 -3.28732,-0.649565 -1.08603,0.729655 -1.37606,2.201445 -0.64799,3.289057 z"
         id="path4497"
         style="fill:#ffffff;fill-rule:nonzero;stroke:none;stroke-width:1.57968;stroke-linecap:butt;stroke-linejoin:miter;stroke-dasharray:none" />
      <rect
         x="120.47856"
         y="68.152748"
         width="7.4454374"
         height="24.526146"
         fill="#231F20"
         id="rect60"
         style="fill:#000000;stroke-width:0.437967" />
      <path
         d="m 165.60667,81.712202 c -2.22487,-2.224872 -5.82934,-2.224872 -8.04983,0 l -2.4789,2.478892 -2.47889,-2.478892 c -1.11243,-1.112436 -2.56605,-1.668654 -4.02448,-1.668654 -1.45405,0 -2.91248,0.556218 -4.02491,1.668654 -2.22487,2.224871 -2.22487,5.829339 0,8.049831 l 10.52828,10.528727 10.52873,-10.528727 c 1.11243,-1.112436 1.66865,-2.566048 1.66865,-4.024478 0,-1.454488 -0.55622,-2.912917 -1.66865,-4.025353 z"
         fill="#231F20"
         id="path62"
         style="fill:#000000;stroke-width:0.437967" />
      <path
         d="m 142.69093,91.619889 c -1.57187,-1.56836 -2.43817,-3.6579 -2.43817,-5.881458 0,-2.222244 0.86587,-4.312222 2.43817,-5.884523 1.13389,-1.133896 2.53845,-1.893331 4.06564,-2.232755 V 56.546624 l -15.76681,11.606122 v 24.526147 l 15.76681,11.606127 v -8.599484 z"
         fill="#231F20"
         id="path64"
         style="fill:#000000;stroke-width:0.437967" />
    </g>
  </g>
</svg>
