<?xml version="1.0" encoding="UTF-8" standalone="no"?>
<svg
   sodipodi:docname="loscon22-slack-icon.svg"
   inkscape:version="1.1.2 (b8e25be8, 2022-02-05)"
   id="svg8"
   version="1.1"
   viewBox="0 0 105.83333 105.83334"
   height="400"
   width="400"
   inkscape:export-filename="/Users/simondueckert/OneDrive - Cogneon GmbH/Projekte/loscon22/Grafiken/loscon22-slack-icon.png"
   inkscape:export-xdpi="96"
   inkscape:export-ydpi="96"
   xmlns:inkscape="http://www.inkscape.org/namespaces/inkscape"
   xmlns:sodipodi="http://sodipodi.sourceforge.net/DTD/sodipodi-0.dtd"
   xmlns="http://www.w3.org/2000/svg"
   xmlns:svg="http://www.w3.org/2000/svg"
   xmlns:rdf="http://www.w3.org/1999/02/22-rdf-syntax-ns#"
   xmlns:cc="http://creativecommons.org/ns#"
   xmlns:dc="http://purl.org/dc/elements/1.1/">
  <defs
     id="defs2">
    <clipPath
       id="clip0">
      <rect
         x="592"
         y="312"
         width="96"
         height="96"
         id="rect39525" />
    </clipPath>
  </defs>
  <sodipodi:namedview
     inkscape:pagecheckerboard="true"
     inkscape:window-maximized="0"
     inkscape:window-y="0"
     inkscape:window-x="0"
     inkscape:window-height="900"
     inkscape:window-width="1440"
     units="px"
     showgrid="false"
     inkscape:document-rotation="0"
     inkscape:current-layer="g1190"
     inkscape:document-units="mm"
     inkscape:cy="370.73987"
     inkscape:cx="412.26274"
     inkscape:zoom="0.67432725"
     inkscape:pageshadow="2"
     inkscape:pageopacity="1"
     borderopacity="1.0"
     bordercolor="#666666"
     pagecolor="#000000"
     id="base"
     showguides="true"
     inkscape:guide-bbox="true"
     inkscape:snap-grids="true"
     inkscape:snap-to-guides="true">
    <sodipodi:guide
       id="guide1843"
       orientation="0,-1"
       position="290.47194,-202.93818" />
  </sodipodi:namedview>
  <metadata
     id="metadata5">
    <rdf:RDF>
      <cc:Work
         rdf:about="">
        <dc:format>image/svg+xml</dc:format>
        <dc:type
           rdf:resource="http://purl.org/dc/dcmitype/StillImage" />
      </cc:Work>
    </rdf:RDF>
  </metadata>
  <g
     id="layer1"
     inkscape:groupmode="layer"
     inkscape:label="Ebene 1">
    <g
       id="g1190">
      <g
         style="overflow:hidden;fill:#ffff00"
         id="g39554"
         transform="matrix(0.98554247,0,0,0.98554247,5.6338392,5.6067784)">
        <g
           clip-path="url(#clip0)"
           transform="translate(-592,-312)"
           id="g39540"
           style="fill:#ffff00">
          <path
             d="m 679.8,320.4 c -1.4,-1.4 -10.4,0.2 -17.9,2.2 2.7,1.6 5.5,3.8 8.2,6.5 2.8,2.8 5,5.6 6.6,8.4 2,-7.7 4.6,-15.7 3.1,-17.1 z"
             fill="#000000"
             fill-rule="nonzero"
             fill-opacity="1"
             id="path39530"
             style="fill:#ffff00" />
          <path
             d="m 624.1,348.9 -3.4,-1.3 c -1.4,-0.5 -2.9,-0.2 -4,0.8 l -15.9,15.9 c -2.6,2.6 -0.2,7.1 3.4,6.3 l 13.3,-3 c 1.1,-5 2.9,-11.7 6.6,-18.7 z"
             fill="#000000"
             fill-rule="nonzero"
             fill-opacity="1"
             id="path39532"
             style="fill:#ffff00" />
          <path
             d="m 650.6,375 c -6.7,3.5 -13.1,5.4 -18.3,6.4 l -3.1,14.2 c -0.8,3.6 3.6,6.1 6.3,3.4 l 15.9,-15.9 c 1,-1 1.4,-2.6 0.8,-4 z"
             fill="#000000"
             fill-rule="nonzero"
             fill-opacity="1"
             id="path39534"
             style="fill:#ffff00" />
          <path
             d="m 656.5,324.4 c -5.9,2.4 -12.6,6.5 -19.1,13 -11.9,11.9 -15.4,26.3 -16.4,34.5 l 6.2,6.2 c 8.2,-1 22.7,-4.4 34.6,-16.3 6.5,-6.5 10.6,-13.1 13,-19 -1.3,-3.3 -3.9,-7.2 -7.6,-11 -3.6,-3.5 -7.4,-6.1 -10.7,-7.4 z m 5.1,21.6 c -2.3,2.3 -6.1,2.3 -8.5,0 -2.3,-2.3 -2.3,-6.1 0,-8.5 2.3,-2.3 6.1,-2.3 8.5,0 2.3,2.4 2.3,6.2 0,8.5 z"
             fill="#000000"
             fill-rule="nonzero"
             fill-opacity="1"
             id="path39536"
             style="fill:#ffff00" />
          <path
             d="m 620.9,378.2 c -1.6,-1.6 -1.4,-4.3 -4.7,-1 -3.3,3.3 -8.2,10.8 -6.7,12.4 1.6,1.6 9.1,-3.4 12.4,-6.7 3.3,-3.4 0.6,-3.2 -1,-4.7 z"
             fill="#000000"
             fill-rule="nonzero"
             fill-opacity="1"
             id="path39538"
             style="fill:#ffff00" />
        </g>
      </g>
    </g>
    <text
       xml:space="preserve"
       style="font-style:normal;font-variant:normal;font-weight:bold;font-stretch:normal;font-size:18.4311px;line-height:1.25;font-family:'Open Sans';-inkscape-font-specification:'Open Sans, Bold';font-variant-ligatures:normal;font-variant-caps:normal;font-variant-numeric:normal;font-variant-east-asian:normal;fill:#ffffff;fill-opacity:1;stroke:none;stroke-width:0.460777"
       id="text1011-6-4-13-0-4-8"
       x="322.2731"
       y="758.95813" />
  </g>
</svg>
