<?xml version="1.0" encoding="UTF-8" standalone="no"?>
<svg
   sodipodi:docname="loscon22-key-visual.svg"
   inkscape:version="1.1.2 (b8e25be8, 2022-02-05)"
   id="svg8"
   version="1.1"
   viewBox="0 0 338.66666 190.5"
   height="720"
   width="1280"
   inkscape:export-filename="/Users/simondueckert/OneDrive - Cogneon GmbH/Projekte/loscon22/Grafiken/loscon22-key-visual.png"
   inkscape:export-xdpi="96"
   inkscape:export-ydpi="96"
   xmlns:inkscape="http://www.inkscape.org/namespaces/inkscape"
   xmlns:sodipodi="http://sodipodi.sourceforge.net/DTD/sodipodi-0.dtd"
   xmlns:xlink="http://www.w3.org/1999/xlink"
   xmlns="http://www.w3.org/2000/svg"
   xmlns:svg="http://www.w3.org/2000/svg"
   xmlns:rdf="http://www.w3.org/1999/02/22-rdf-syntax-ns#"
   xmlns:cc="http://creativecommons.org/ns#"
   xmlns:dc="http://purl.org/dc/elements/1.1/">
  <defs
     id="defs2">
    <clipPath
       id="clipPath3011">
      <path
         d="m 382.138,82.258 130.395,0 0,21.097 -130.395,0 0,-21.097 z"
         id="path3013" />
    </clipPath>
    <linearGradient
       x1="0"
       y1="0"
       x2="0.957213"
       y2="2.61726e-16"
       id="linearGradient3048"
       gradientUnits="userSpaceOnUse"
       gradientTransform="matrix(0,-37.1015,37.1015,0,69.9034,70.5065)"
       spreadMethod="pad">
      <stop
         id="stop3050"
         style="stop-color:#00b8f1;stop-opacity:1"
         offset="0" />
      <stop
         id="stop3052"
         style="stop-color:#06a5e5;stop-opacity:1"
         offset="0.219864" />
      <stop
         id="stop3054"
         style="stop-color:#06a5e5;stop-opacity:1"
         offset="0.219864" />
      <stop
         id="stop3056"
         style="stop-color:#1870c5;stop-opacity:1"
         offset="0.794312" />
      <stop
         id="stop3058"
         style="stop-color:#1d61bc;stop-opacity:1"
         offset="1" />
    </linearGradient>
    <linearGradient
       x1="0"
       y1="0"
       x2="0.957213"
       y2="2.61726e-16"
       id="linearGradient5318"
       xlink:href="#linearGradient3048"
       gradientUnits="userSpaceOnUse"
       gradientTransform="matrix(0,-37.1015,37.1015,0,69.9034,70.5065)"
       spreadMethod="pad" />
    <linearGradient
       x1="0"
       y1="0"
       x2="0.957213"
       y2="2.61726e-16"
       id="linearGradient5334"
       xlink:href="#linearGradient3048"
       gradientUnits="userSpaceOnUse"
       gradientTransform="matrix(0,46.3769,46.3769,0,-34.556948,15.138761)"
       spreadMethod="pad" />
    <clipPath
       id="clip0">
      <rect
         x="592"
         y="312"
         width="96"
         height="96"
         id="rect39525" />
    </clipPath>
    <clipPath
       id="clip0-3">
      <rect
         x="688"
         y="220"
         width="96"
         height="96"
         id="rect39607" />
    </clipPath>
  </defs>
  <sodipodi:namedview
     inkscape:pagecheckerboard="false"
     inkscape:window-maximized="0"
     inkscape:window-y="25"
     inkscape:window-x="66"
     inkscape:window-height="772"
     inkscape:window-width="1383"
     units="px"
     showgrid="false"
     inkscape:document-rotation="0"
     inkscape:current-layer="layer1"
     inkscape:document-units="mm"
     inkscape:cy="414.53088"
     inkscape:cx="520.75441"
     inkscape:zoom="0.57896773"
     inkscape:pageshadow="2"
     inkscape:pageopacity="1"
     borderopacity="1.0"
     bordercolor="#666666"
     pagecolor="#000000"
     id="base"
     showguides="true"
     inkscape:guide-bbox="true"
     inkscape:snap-grids="true"
     inkscape:snap-to-guides="true"
     inkscape:snap-page="true">
    <sodipodi:guide
       id="guide1843"
       orientation="0,-1"
       position="290.47194,-202.93818" />
  </sodipodi:namedview>
  <metadata
     id="metadata5">
    <rdf:RDF>
      <cc:Work
         rdf:about="">
        <dc:format>image/svg+xml</dc:format>
        <dc:type
           rdf:resource="http://purl.org/dc/dcmitype/StillImage" />
      </cc:Work>
    </rdf:RDF>
  </metadata>
  <g
     id="layer1"
     inkscape:groupmode="layer"
     inkscape:label="Ebene 1">
    <text
       xml:space="preserve"
       style="font-style:normal;font-variant:normal;font-weight:bold;font-stretch:normal;font-size:18.4311px;line-height:1.25;font-family:'Open Sans';-inkscape-font-specification:'Open Sans, Bold';font-variant-ligatures:normal;font-variant-caps:normal;font-variant-numeric:normal;font-variant-east-asian:normal;fill:#ffffff;fill-opacity:1;stroke:none;stroke-width:0.460777"
       id="text1011-6-4-13-0-4-8"
       x="322.2731"
       y="758.95813" />
    <text
       xml:space="preserve"
       style="font-style:normal;font-variant:normal;font-weight:300;font-stretch:normal;font-size:17.0854px;line-height:1.25;font-family:'Open Sans';-inkscape-font-specification:'Open Sans, Light';font-variant-ligatures:normal;font-variant-caps:normal;font-variant-numeric:normal;font-variant-east-asian:normal;fill:#ffffff;fill-opacity:1;stroke:none;stroke-width:0.427138"
       x="157.02963"
       y="32.858471"
       id="text871"><tspan
         sodipodi:role="line"
         id="tspan869"
         x="157.02963"
         y="32.858471"
         style="font-style:normal;font-variant:normal;font-weight:300;font-stretch:normal;font-size:17.0854px;font-family:'Open Sans';-inkscape-font-specification:'Open Sans, Light';font-variant-ligatures:normal;font-variant-caps:normal;font-variant-numeric:normal;font-variant-east-asian:normal;fill:#ffffff;stroke-width:0.427138">lernOS Convention<tspan
   style="font-style:normal;font-variant:normal;font-weight:300;font-stretch:normal;font-size:12.4708px;font-family:'Open Sans';-inkscape-font-specification:'Open Sans, Light';font-variant-ligatures:normal;font-variant-caps:normal;font-variant-numeric:normal;font-variant-east-asian:normal;stroke-width:0.427138"
   id="tspan890" /></tspan></text>
    <text
       xml:space="preserve"
       style="font-style:normal;font-weight:normal;font-size:10.5833px;line-height:1.25;font-family:sans-serif;fill:#ffff00;fill-opacity:1;stroke:none;stroke-width:0.264583"
       x="158.4136"
       y="55.619293"
       id="text875"><tspan
         sodipodi:role="line"
         id="tspan873"
         x="158.4136"
         y="55.619293"
         style="fill:#ffff00;fill-opacity:1;stroke-width:0.264583">The Re-Return of</tspan><tspan
         sodipodi:role="line"
         x="158.4136"
         y="68.848419"
         style="fill:#ffff00;fill-opacity:1;stroke-width:0.264583"
         id="tspan7438">Knowledge Management</tspan></text>
    <text
       xml:space="preserve"
       style="font-style:normal;font-variant:normal;font-weight:normal;font-stretch:normal;font-size:9.91043px;line-height:1.25;font-family:'Open Sans';-inkscape-font-specification:'Open Sans, Normal';font-variant-ligatures:normal;font-variant-caps:normal;font-variant-numeric:normal;font-variant-east-asian:normal;fill:#ffffff;fill-opacity:1;stroke:none;stroke-width:0.247759"
       x="158.62762"
       y="88.832062"
       id="text871-2-7"><tspan
         sodipodi:role="line"
         x="158.62762"
         y="88.832062"
         style="font-style:normal;font-variant:normal;font-weight:normal;font-stretch:normal;font-size:9.91043px;font-family:'Open Sans';-inkscape-font-specification:'Open Sans, Normal';font-variant-ligatures:normal;font-variant-caps:normal;font-variant-numeric:normal;font-variant-east-asian:normal;fill:#ffffff;stroke-width:0.247759"
         id="tspan908">05.-06. Juli 2022</tspan><tspan
         sodipodi:role="line"
         x="158.62762"
         y="101.2201"
         style="font-style:normal;font-variant:normal;font-weight:normal;font-stretch:normal;font-size:9.91043px;font-family:'Open Sans';-inkscape-font-specification:'Open Sans, Normal';font-variant-ligatures:normal;font-variant-caps:normal;font-variant-numeric:normal;font-variant-east-asian:normal;fill:#ffffff;stroke-width:0.247759"
         id="tspan5658">Multi-Format-Event</tspan><tspan
         sodipodi:role="line"
         x="158.62762"
         y="113.60814"
         style="font-style:normal;font-variant:normal;font-weight:normal;font-stretch:normal;font-size:9.91043px;font-family:'Open Sans';-inkscape-font-specification:'Open Sans, Normal';font-variant-ligatures:normal;font-variant-caps:normal;font-variant-numeric:normal;font-variant-east-asian:normal;fill:#ffffff;stroke-width:0.247759"
         id="tspan8828">Community-Abend</tspan><tspan
         sodipodi:role="line"
         x="158.62762"
         y="125.99618"
         style="font-style:normal;font-variant:normal;font-weight:normal;font-stretch:normal;font-size:9.91043px;font-family:'Open Sans';-inkscape-font-specification:'Open Sans, Normal';font-variant-ligatures:normal;font-variant-caps:normal;font-variant-numeric:normal;font-variant-east-asian:normal;fill:#ffffff;stroke-width:0.247759"
         id="tspan14676">Kaiserburg Nürnberg + Online</tspan><tspan
         sodipodi:role="line"
         x="158.62762"
         y="138.38422"
         style="font-style:normal;font-variant:normal;font-weight:normal;font-stretch:normal;font-size:9.91043px;font-family:'Open Sans';-inkscape-font-specification:'Open Sans, Normal';font-variant-ligatures:normal;font-variant-caps:normal;font-variant-numeric:normal;font-variant-east-asian:normal;fill:#ffffff;stroke-width:0.247759"
         id="tspan1420">https://cogneon.de/loscon22</tspan></text>
    <text
       xml:space="preserve"
       style="font-style:normal;font-weight:normal;font-size:10.5833px;line-height:1.25;font-family:sans-serif;fill:#000000;fill-opacity:1;stroke:none;stroke-width:0.264583"
       x="259.6048"
       y="96.491196"
       id="text1783"><tspan
         sodipodi:role="line"
         id="tspan1781"
         x="259.6048"
         y="96.491196"
         style="stroke-width:0.264583" /></text>
    <rect
       style="fill:#ffffff;fill-rule:evenodd;stroke-width:0.469676;stroke-miterlimit:4;stroke-dasharray:none"
       id="rect1030"
       width="314.97757"
       height="27.389381"
       x="11.211386"
       y="152.03856" />
    <g
       id="g849"
       transform="matrix(0.27087598,0,0,0.27087598,166.24299,160.43474)">
      <path
         style="fill:#ec6602;fill-opacity:1;fill-rule:nonzero;stroke:none"
         id="path4311"
         d="m 146.66688,22.51125 c 0.23875,0.23875 0.55125,0.35875 0.865,0.35875 0.3125,0 0.62625,-0.12 0.86375,-0.35875 0.24,-0.23875 0.35875,-0.55125 0.35875,-0.865 0,-0.3125 -0.11875,-0.625 -0.35875,-0.865 -0.2375,-0.23875 -0.55125,-0.3575 -0.86375,-0.3575 -0.31375,0 -0.62625,0.11875 -0.865,0.3575 -0.23875,0.24 -0.35875,0.5525 -0.35875,0.865 0,0.31375 0.12,0.62625 0.35875,0.865 m 6.16875,-6.16863 c 0.31,0.31 0.71625,0.465 1.12375,0.465 0.40625,0 0.81374,-0.155 1.12375,-0.465 0.31125,-0.31 0.46499,-0.7175 0.46499,-1.12375 0,-0.4075 -0.15375,-0.81375 -0.46499,-1.12375 -0.31001,-0.31 -0.7175,-0.46625 -1.12375,-0.46625 -0.4075,0 -0.81375,0.15625 -1.12375,0.46625 -0.31001,0.31 -0.465,0.71625 -0.465,1.12375 0,0.40625 0.155,0.81375 0.465,1.12375 m -0.008,12.84888 c 0.31,0.31 0.71625,0.465 1.12375,0.465 0.40625,0 0.81375,-0.155 1.12375,-0.465 0.31125,-0.31 0.465,-0.7175 0.465,-1.12375 0,-0.4075 -0.15376,-0.81375 -0.465,-1.12375 -0.31,-0.31 -0.7175,-0.46625 -1.12375,-0.46625 -0.4075,0 -0.81375,0.15625 -1.12375,0.46625 -0.31,0.31 -0.465,0.71625 -0.465,1.12375 0,0.40625 0.155,0.81375 0.465,1.12375 m 6.09812,-18.93988 c 0.40375,0.40375 0.9325,0.605 1.46125,0.605 0.52875,0 1.0575,-0.20125 1.46125,-0.605 0.40375,-0.40375 0.605,-0.9325 0.605,-1.46125 0,-0.52875 -0.20125,-1.0575 -0.605,-1.46125 -0.40375,-0.40375 -0.9325,-0.605 -1.46125,-0.605 -0.52875,0 -1.0575,0.20125 -1.46125,0.605 -0.40375,0.40375 -0.605,0.9325 -0.605,1.46125 0,0.52875 0.20125,1.0575 0.605,1.46125 m -0.008,12.84875 c 0.40375,0.40375 0.9325,0.605 1.46125,0.605 0.52875,0 1.0575,-0.20125 1.46125,-0.605 0.40375,-0.40375 0.605,-0.9325 0.605,-1.46125 0,-0.52875 -0.20125,-1.0575 -0.605,-1.46125 -0.40375,-0.40375 -0.9325,-0.605 -1.46125,-0.605 -0.52875,0 -1.0575,0.20125 -1.46125,0.605 -0.40375,0.40375 -0.605,0.9325 -0.605,1.46125 0,0.52875 0.20125,1.0575 0.605,1.46125 m -0.007,12.84925 c 0.40375,0.40375 0.9325,0.605 1.46125,0.605 0.52875,0 1.0575,-0.20125 1.46125,-0.605 0.40375,-0.40375 0.605,-0.9325 0.605,-1.46125 0,-0.52875 -0.20125,-1.0575 -0.605,-1.46125 -0.40375,-0.40375 -0.9325,-0.605 -1.46125,-0.605 -0.52875,0 -1.0575,0.20125 -1.46125,0.605 -0.40375,0.40375 -0.605,0.9325 -0.605,1.46125 0,0.52875 0.20125,1.0575 0.605,1.46125 m 5.99688,-18.839 c 0.52375,0.525 1.21125,0.78625 1.89875,0.78625 0.68875,0 1.37625,-0.26125 1.90125,-0.78625 0.52375,-0.52375 0.78625,-1.21125 0.78625,-1.89875 0,-0.6875 -0.2625,-1.375 -0.7875,-1.9 -0.525,-0.525 -1.2125,-0.7875 -1.9,-0.7875 -0.6875,0 -1.375,0.2625 -1.89875,0.78625 -0.525,0.525 -0.7875,1.2125 -0.7875,1.9 0,0.68875 0.2625,1.37625 0.7875,1.9 m -0.006,12.84925 c 0.52375,0.525 1.21125,0.78625 1.89875,0.78625 0.68875,0 1.37625,-0.26125 1.90125,-0.78625 0.52375,-0.525 0.78625,-1.21125 0.78625,-1.89875 0,-0.6875 -0.2625,-1.375 -0.7875,-1.9 -0.525,-0.525 -1.2125,-0.7875 -1.9,-0.7875 -0.6875,0 -1.375,0.26125 -1.89875,0.78625 -0.525,0.525 -0.7875,1.2125 -0.7875,1.9 0,0.68875 0.2625,1.375 0.7875,1.9 m 5.85787,-5.858 c 0.6825,0.6825 1.575,1.02375 2.47,1.02375 0.89375,0 1.78625,-0.34125 2.46875,-1.02375 0.6825,-0.6825 1.02375,-1.57625 1.02375,-2.47 0,-0.89375 -0.34125,-1.78625 -1.02375,-2.46875 -0.6825,-0.6825 -1.575,-1.02375 -2.46875,-1.02375 -0.895,0 -1.7875,0.34125 -2.47,1.02375 -0.6825,0.6825 -1.02375,1.575 -1.02375,2.46875 0,0.89375 0.34125,1.7875 1.02375,2.47"
         inkscape:connector-curvature="0" />
      <path
         style="fill:#009999;fill-opacity:1;fill-rule:nonzero;stroke:none"
         id="path4339"
         d="m 132.43,15.29 v -3.0175 c 1.70125,0.54125 3.22125,0.81125 4.5575,0.81125 1.82375,0 2.73625,-0.48125 2.73625,-1.445 0,-0.36 -0.13,-0.66125 -0.3875,-0.90625 -0.2725,-0.26 -0.9725,-0.61875 -2.1,-1.07875 -2.0025,-0.82 -3.31625,-1.525 -3.93,-2.11375 -0.79,-0.76375 -1.18625,-1.7375 -1.18625,-2.92375 0,-1.5025 0.57375,-2.65 1.7275,-3.44 C 134.9825,0.3925 136.46625,0 138.295,0 c 1.02625,0 2.3575,0.16375 3.99,0.49125 l 0.3775,0.065 V 3.4575 c -1.41875,-0.56625 -2.7375,-0.84875 -3.96125,-0.84875 -1.705,0 -2.5575,0.47 -2.5575,1.41375 0,0.35125 0.1725,0.63875 0.51625,0.8625 0.27375,0.17125 1.07,0.5525 2.38375,1.14375 1.85,0.82625 3.08875,1.545 3.71125,2.1575 0.735,0.72625 1.1025,1.665 1.1025,2.8175 0,1.65375 -0.7175,2.91625 -2.1475,3.78625 -1.1725,0.70375 -2.68875,1.05625 -4.5425,1.05625 -1.56875,0 -3.14875,-0.185 -4.7375,-0.55625 M 126.3965,0.26487 V 10.48862 L 121.15275,0.26487 h -4.945 v 15.2725 h 3.005 v -10.36 l 5.385,10.36 h 4.80375 V 0.26487 Z m -24.11275,0 v 15.2725 h 11.1175 V 12.61862 H 106.395 V 8.99487 h 5.945 V 6.47612 h -5.945 v -3.4475 h 6.82875 V 0.26487 Z m -9.16475,0 -3.94,9.7575 -3.84125,-9.7575 H 79.8065 v 15.2725 h 3.005 V 4.72487 l 4.3925,10.96625 h 2.645 L 94.32775,4.72487 v 10.8125 H 98.3715 V 0.26487 Z m -27.214,0 v 15.2725 h 11.11625 v -2.91875 h -7.005 V 8.99487 H 75.96 V 6.47612 H 70.01625 V 3.02862 H 76.845 V 0.26487 Z M 57.7275,15.5365 H 59.86 61.99375 V 7.90025 0.264 H 59.86 57.7275 V 7.90025 Z M 43.89188,15.29 v -3.0175 c 1.71624,0.54125 3.23499,0.81125 4.55749,0.81125 1.82375,0 2.73626,-0.48125 2.73626,-1.445 0,-0.36 -0.13376,-0.66125 -0.39875,-0.90625 -0.27376,-0.26 -0.96875,-0.61875 -2.09001,-1.07875 C 46.68813,8.8275 45.37563,8.1225 44.76562,7.54 43.97812,6.77 43.58187,5.8 43.58187,4.62625 c 0,-1.50875 0.57625,-2.66 1.7275,-3.45 C 46.44563,0.3925 47.92813,0 49.75437,0 c 1.00751,0 2.46501,0.185 4.37,0.55625 V 3.4575 c -1.41749,-0.56625 -2.735,-0.84875 -3.95,-0.84875 -1.71375,0 -2.56999,0.47 -2.56999,1.41375 0,0.35125 0.17374,0.63875 0.51875,0.8625 0.28749,0.17875 1.07874,0.56 2.3725,1.14375 1.86249,0.82625 3.10499,1.545 3.72125,2.1575 0.73374,0.72625 1.10249,1.665 1.10249,2.8175 0,1.65375 -0.71999,2.91625 -2.15999,3.78625 -1.16375,0.70375 -2.67626,1.05625 -4.53125,1.05625 -1.5675,0 -3.14626,-0.185 -4.73625,-0.55625"
         inkscape:connector-curvature="0" />
      <path
         style="fill:#ec6602;fill-opacity:1;fill-rule:nonzero;stroke:none"
         id="path4391"
         d="m 56.56775,30.56875 h 3.44875 v -2.87 H 56.56775 V 23.54 H 52.909 v 4.16 h -2.03 v 2.87 h 2.03 v 6.5 c 0,2.2125 0.21,4.37 4.00125,4.37 1.15875,0 2.5525,-0.34125 3.34375,-0.84125 l -0.79125,-2.45 c -0.5775,0.2375 -1.13125,0.4225 -1.60625,0.4225 -0.97375,0 -1.28875,-0.58 -1.28875,-2.0275 z m 86.37162,-2.10438 0.01,-0.0312 c -1.165,-0.7625 -2.6925,-1.2225 -4.35875,-1.135 -2.705,0.14125 -4.83125,1.75375 -4.68375,4.54 0.14625,2.78875 2.17875,3.44625 4.17875,3.92125 1.14875,0.2825 2.10875,0.4975 2.1625,1.5225 0.0525,1 -0.6375,1.43125 -1.60875,1.4825 -1.19,0.0612 -2.695,-0.4675 -3.665,-0.96625 l -1.09126,2.51 c 0.76876,0.51375 2.74875,1.24625 5.08,1.125 3.04625,-0.16 5.04,-1.76375 4.885,-4.73625 -0.14375,-2.735 -2.33125,-3.3325 -4.28124,-3.8375 -1.20125,-0.305 -2.08625,-0.6025 -2.14125,-1.6275 -0.045,-0.86875 0.6475,-1.2475 1.515,-1.29375 0.89875,-0.0462 1.86625,0.3475 2.89375,1.0675 l 1.105,-2.54125 z m -14.82687,4.289 c 0.0525,-1.39375 0.895,-2.29 2.21125,-2.29 0.68375,0 1.3175,0.18375 1.8675,0.47375 L 132.85,27.77837 c -0.63125,-0.3425 -1.44625,-0.47375 -2.185,-0.47375 -1.23625,0 -2.52625,0.73625 -3.1575,2.29 l -0.3425,-1.89625 h -2.975 l 0.26375,2.3175 v 11.02875 h 3.65875 z m -40.03688,8.29188 v -8.555 c 0,-1.26375 0.89626,-2.36875 2.29001,-2.36875 1.39625,0 1.63124,1.07875 1.63124,2.52625 v 8.3975 h 3.65875 V 31.9365 c 0,-3.1575 -1.57875,-4.6325 -4.18374,-4.6325 -1.76376,0 -3.08,0.73875 -3.97501,1.975 l -0.26375,-1.58 h -3.05375 l 0.23751,2.475 V 41.04525 Z M 77.35125,23.52912 c 0,0.555 0.19375,1.025 0.53875,1.3575 0.345,0.33125 0.84125,0.525 1.4475,0.525 0.5925,0 1.09625,-0.19375 1.45,-0.525 0.355,-0.3325 0.56125,-0.8025 0.56125,-1.3575 0,-0.51625 -0.20625,-0.98625 -0.56125,-1.32875 -0.35375,-0.34125 -0.8575,-0.55375 -1.45,-0.55375 -0.59375,0 -1.09,0.2125 -1.4375,0.55375 -0.34875,0.3425 -0.54875,0.8125 -0.54875,1.32875 m 0.16812,17.5165 h 1.83001 1.82875 v -6.6725 -6.67375 h -1.82875 -1.83001 v 6.67375 z m -10.8175,-3.7e-4 v -8.6075 c 0,-1.2375 0.89501,-2.31625 2.2375,-2.31625 1.39501,0 1.68376,1.0525 1.68376,2.42125 v 8.5025 h 3.65875 V 31.9915 c 0,-3.13375 -1.5,-4.6875 -4.26376,-4.6875 -1.29,0 -2.47375,0.47375 -3.31625,1.36875 v -5.1325 h -3.65874 v 17.505 z M 43.88025,23.56675 V 37.0705 c 0,2.21125 0.21,4.37 4.00125,4.37 1.15875,0 2.5525,-0.34125 3.3425,-0.8425 l -0.79,-2.44875 c -0.57875,0.2375 -1.13125,0.4225 -1.60375,0.4225 -0.97625,0 -1.29125,-0.58 -1.29125,-2.0275 v -12.9775 z m -3.05338,17.4785 -0.26374,-2.6575 v -10.11 c -2,-0.73625 -3.94876,-0.97375 -4.84375,-0.97375 -4.65751,0 -6.97501,3.0275 -6.97501,7.66125 0,3.5525 1.29001,6.44875 5.10625,6.44875 1.4225,0 2.7375,-0.52625 3.52751,-1.7375 l 0.1325,0.0275 0.18374,1.34125 z M 36.93063,36.7815 c 0,0.97375 -0.78875,1.97375 -2.15751,1.97375 -1.94874,0 -2.39625,-1.86875 -2.39625,-4.00125 0,-2.58 0.7375,-4.7375 2.89625,-4.7375 0.68376,0 1.315,0.13125 1.65751,0.28875 z M 9.13375,23.54075 v 6.975 h -5.37 v -6.975 H 0 v 17.505 H 3.76375 V 33.807 h 5.37 v 7.23875 h 3.765 v -17.505 z m 17.50512,7.60712 c 0,-2.5 -1.71125,-3.84375 -4.37,-3.84375 -4.31624,0 -6.55375,3.52875 -6.55375,7.3975 0,3.94875 1.79001,6.73875 6.26376,6.73875 2.65999,0 4.5025,-1.21125 4.8175,-1.47375 l -1.0525,-2.4475 c -0.73625,0.49875 -1.86875,1.13125 -3.29001,1.13125 -2.00124,0 -2.84375,-1.34375 -3.02749,-2.60625 3.185,-0.13125 7.21249,-0.9225 7.21249,-4.89625 m -3.21125,0.0275 c 0,1.815 -2.44874,2.23625 -4.15875,2.29 0.0775,-1.8175 1.02625,-3.58125 2.81626,-3.58125 0.815,0 1.34249,0.5 1.34249,1.29125 m 98.18325,-0.0275 c 0,-2.5 -1.71125,-3.84375 -4.37,-3.84375 -4.31624,0 -6.55375,3.52875 -6.55375,7.3975 0,3.94875 1.79,6.73875 6.26375,6.73875 2.66,0 4.5025,-1.21125 4.8175,-1.47375 l -1.05375,-2.4475 c -0.73625,0.49875 -1.8675,1.13125 -3.28874,1.13125 -2.00125,0 -2.8425,-1.34375 -3.02751,-2.60625 3.18625,-0.13125 7.2125,-0.9225 7.2125,-4.89625 m -3.21124,0.0275 c 0,1.815 -2.44875,2.23625 -4.15875,2.29 0.0775,-1.8175 1.02625,-3.58125 2.81625,-3.58125 0.815,0 1.3425,0.5 1.3425,1.29125 m -9.55525,-0.0275 c 0,-2.5 -1.71125,-3.84375 -4.37,-3.84375 -4.31625,0 -6.55376,3.52875 -6.55376,7.3975 0,3.94875 1.79,6.73875 6.26376,6.73875 2.66,0 4.5025,-1.21125 4.8175,-1.47375 l -1.0525,-2.4475 c -0.7375,0.49875 -1.86875,1.13125 -3.29,1.13125 -2.00125,0 -2.84375,-1.34375 -3.0275,-2.60625 3.18625,-0.13125 7.2125,-0.9225 7.2125,-4.89625 m -3.21125,0.0275 c 0,1.815 -2.44875,2.23625 -4.15875,2.29 0.0775,-1.8175 1.02625,-3.58125 2.81625,-3.58125 0.815,0 1.3425,0.5 1.3425,1.29125"
         inkscape:connector-curvature="0" />
    </g>
    <g
       transform="matrix(0.20942599,0,0,0.20942599,92.240981,161.02077)"
       id="layer1-7">
      <path
         d="m 0.0625,67.125 v 20.25 H 7.375 C 12.82125,87.375 17.5,83.0075 17.5,77.40625 17.345,71.1825 13.44625,67.124997 8,67.125 Z m 24.4375,0 -7.78125,20.25 h 4.34375 l 6.0625,-16.03125 5,12.75 H 26.5 V 87.375 h 11.21875 l -7.9375,-20.25 z m 9.78125,0 v 3.4375 h 6.5625 V 87.375 h 4.5 V 70.5625 h 6.375 V 67.125 Z m 19.15625,0 v 20.25 h 14 V 84.09375 H 57.78125 V 78.5 h 8.5625 v -3.4375 h -8.5625 v -4.5 h 9.1875 V 67.125 Z m 14.625,0 L 76,87.375 h 4.8125 l 7.78125,-20.25 H 77.875 v 3.4375 H 83 L 78.3125,82.84375 72.5625,67.125 Z M 4.25,70.5625 h 3.4375 c 3.4225,0 5.75,2.48625 5.59375,6.6875 -0.155,4.3575 -3.11,6.687496 -6.6875,6.6875 H 4.25 Z"
         transform="translate(-20.298125,-19.681875)"
         style="fill:#00a992;fill-opacity:1;fill-rule:evenodd;stroke:none"
         id="path54962" />
      <path
         d="m -20.298125,42.766875 h 88.27875 v -62.44875 h -88.27875 z"
         style="fill:#96d550;fill-opacity:1;fill-rule:nonzero;stroke:none"
         id="path54964" />
    </g>
    <path
       d="m 33.989873,161.02231 c -0.04999,0.0494 -0.0672,0.12471 -0.06719,0.22845 -0.02847,0.0752 -0.05376,0.0978 -0.05375,0.20157 0,0.0785 0.0017,0.10965 0.02688,0.18813 0,0.2048 -0.182207,0.17792 -0.389704,0.2822 -0.154269,0.10374 -0.287566,0.18007 -0.41658,0.36283 -0.104279,0.20426 -0.147832,0.38701 -0.147819,0.59128 0,0.079 0.01346,0.23059 0.01341,0.30907 0.02472,0.0752 0.02688,0.12632 0.08063,0.20157 l 0.08063,0.16126 v 1.07504 c -0.04999,0.0505 -0.08225,0.13546 -0.107504,0.16126 v 1.88133 c -0.02847,0.12954 -0.174682,0.17631 -0.174695,0.25532 0,1.00248 -0.02688,1.38304 -0.02688,2.05603 -0.02524,0.0752 -0.08601,0.0806 -0.161257,0.0806 l -2.338222,0.0269 c -0.05429,0 -0.109109,0.0591 -0.134381,0.13438 -0.128468,0.51549 -0.287567,1.02989 -0.416581,1.54538 -0.02524,0.10374 -0.05052,0.14997 0.05375,0.1747 h 9.702283 c 0.04999,0 0.107501,-3.4e-4 0.107506,-0.0538 0.204796,-0.56493 0.368189,-1.1546 0.497207,-1.72007 0.02473,-0.0506 -0.05696,-0.0521 -0.107504,-0.0806 H 37.94064 c -0.103742,0.0285 -0.145669,-0.007 -0.174695,-0.1075 v -1.90821 c -0.09998,-0.18276 -0.189754,-0.19727 -0.215009,-0.37626 v -1.82758 l -0.09407,-0.21501 -0.02688,-1.07505 c 0.04999,-0.12846 0.06718,-0.23005 0.120942,-0.30907 0.05053,-0.0753 0.07901,-0.28973 0.05375,-0.49721 -0.02524,-0.0753 -0.09783,-0.31284 -0.147819,-0.41658 -0.154269,-0.20426 -0.346711,-0.32627 -0.550961,-0.43002 -0.103742,-0.0538 -0.177911,-0.0306 -0.228447,-0.18813 -0.02473,-0.0753 9e-6,-0.12847 0,-0.22845 0.02529,-0.0538 -0.0021,-0.15104 -0.02688,-0.20157 -0.02524,-0.10374 -0.02847,-0.23221 -0.107505,-0.2822 -0.04999,0.0747 -0.0387,0.17846 -0.06719,0.2822 -0.02524,0.0506 -0.05374,0.0989 -0.05375,0.1747 0.02472,0.12846 0.05215,0.15319 0.02688,0.2822 l -0.08063,0.0806 -0.2822,0.10751 c -0.179532,0.10374 -0.314459,0.18222 -0.443456,0.3897 -0.10428,0.179 -0.149418,0.33326 -0.174695,0.53753 0,0.23274 0.04244,0.30262 0.06719,0.45689 l 0.107505,0.24188 v 1.04818 c -0.02524,0.0753 -0.08225,0.15211 -0.107505,0.20157 v 1.92164 l -0.201571,0.22844 c 0,0.66922 0.02529,1.30403 0,1.94853 0,0.0538 -0.05536,0.0806 -0.08063,0.0806 l -0.06719,-0.0538 v -2.00227 c -0.07525,-0.0785 -0.137597,-0.12363 -0.188133,-0.20157 v -1.96196 c -0.04999,-0.05 -0.07042,-0.11073 -0.120943,-0.21501 v -0.99442 c 0.02529,-0.10374 0.01342,-0.13814 0.06719,-0.24188 0.02473,-0.0538 0.05536,-0.0747 0.08063,-0.22845 0,-0.15373 0.0215,-0.51817 -0.107505,-0.72565 -0.129005,-0.179 -0.25101,-0.30101 -0.430018,-0.43002 -0.178995,-0.10321 -0.414972,-0.0779 -0.389704,-0.33595 l 0.02688,-0.18814 c -0.02524,-0.05 -0.05374,-0.1247 -0.05375,-0.17469 -0.02524,-0.10374 -0.0017,-0.179 -0.08063,-0.22845 z m 30.732857,1.33037 c -1.437342,0 -2.805865,0.97184 -3.050442,2.16353 -0.165024,0.80521 0.227374,1.51151 0.940666,1.88133 -1.221791,0.31821 -2.231257,1.22394 -2.432291,2.29791 -0.247794,1.32499 0.832088,2.39358 2.418852,2.37853 1.58677,-0.0155 3.071404,-1.10676 3.319203,-2.43229 0.173092,-0.92507 -0.299401,-1.71792 -1.142238,-2.10977 1.049245,-0.30746 1.906058,-1.09225 2.096343,-2.01571 0.24404,-1.19169 -0.712755,-2.16353 -2.150093,-2.16353 z m -16.165993,0.36283 1.263177,8.2241 h 2.136653 l 4.810828,-8.2241 h -2.28447 l -3.037004,5.95306 -0.05375,-0.0269 -0.591275,-5.92619 z m 11.610487,0.0269 c -0.336485,0.51549 -1.318552,1.10515 -1.988832,1.15568 l -0.161255,0.72566 c 0.80252,-0.0538 1.301891,-0.43271 1.921644,-0.76598 -0.462809,1.39326 -1.272314,4.4781 -2.096343,7.05499 l 0.698785,0.0269 2.418852,-8.19723 z m 7.149052,0 -0.228443,0.64503 h 4.232986 l -4.421119,7.5522 h 0.860034 l 4.716761,-8.19723 z m -22.64314,0.0269 -2.29791,8.17035 h 5.536483 l 0.456894,-1.57226 h -3.278886 l 1.827576,-6.59809 z m -6.571214,0.0269 c -0.02473,0 -0.05374,0.0306 -0.05375,0.0806 -0.02847,0.10374 1.1e-5,0.28219 0,0.28219 0,0.0538 0.05376,0.0806 0.05375,0.0806 H 41.7302 c 0.07848,-0.0785 0.134376,-0.28596 0.13438,-0.3897 -0.02473,-0.0247 -0.05428,-0.0538 -0.107504,-0.0538 z m 36.524661,0 c -0.337022,0.48699 -1.343814,1.08955 -1.988833,1.16911 l -0.188133,0.71222 c 0.7993,-0.0506 1.312626,-0.45421 1.908206,-0.76597 -0.46603,1.39218 -1.258334,4.4265 -2.082899,7.02811 h 0.698779 l 2.418853,-8.14347 z m -42.397096,0.0134 c -0.06766,-0.003 -0.137064,0.002 -0.201571,0.0134 -0.04999,0 -0.0688,0.12631 -0.09407,0.25532 0,0.12847 0.01342,0.13438 0.01342,0.13438 h 0.470332 l 0.08063,-0.0806 v -0.25528 l -0.05375,-0.0538 c -0.07713,0 -0.147346,-0.0104 -0.215009,-0.0134 z m 32.345427,0.13438 c 1.057315,0 1.779198,0.73211 1.59913,1.62601 -0.180084,0.8939 -1.186855,1.61256 -2.244159,1.61256 -1.058383,0 -1.765764,-0.71866 -1.585691,-1.61256 0.179521,-0.8939 1.172337,-1.62601 2.23072,-1.62601 z m -33.084521,1.73351 -0.02688,0.0269 -0.161256,0.5644 c 0,0.0247 0,0.1075 0.05375,0.1075 h 1.061607 c 0.07902,0 0.08063,-0.10696 0.08063,-0.16125 v -0.43002 c 0,-0.05 -0.0017,-0.10751 -0.08063,-0.10751 z m 6.557777,0 -0.05375,0.0538 v 0.59127 l 0.08063,0.0538 c 1.032585,0 2.03291,0.0247 3.037003,0 0.05375,0 0.08278,-0.0559 0.107506,-0.0806 0.02524,-0.17845 0.08385,-0.35853 0.134379,-0.53752 8e-6,-0.0247 -0.03062,-0.0554 -0.08063,-0.0806 -1.08634,0 -2.167289,0.0253 -3.225134,0 z m 0,2.12322 c -0.02847,0.0242 -0.02688,0.0167 -0.02688,0.0672 -0.02524,0.31123 -0.05159,0.61816 -0.02688,0.90035 0,0.0543 0.05752,0.0806 0.107505,0.0806 h 2.324784 c 0.05053,0 0.06935,-0.0263 0.09407,-0.0806 0.07525,-0.25693 0.162881,-0.50795 0.241884,-0.76596 0,-0.10482 -0.0039,-0.20157 -0.107504,-0.20157 z m -7.122176,0.0134 c -0.04999,0 -0.08062,0.0311 -0.08063,0.0806 -0.104279,0.28703 -0.180083,0.59073 -0.255323,0.87347 0.02529,0.0796 0.04244,0.0806 0.06719,0.0806 h 1.787263 c 0.05375,-0.0252 0.08063,-0.0564 0.08063,-0.1075 v -0.8466 c 0,-0.0494 -0.05537,-0.0806 -0.08063,-0.0806 z m 32.506683,0 c 1.19814,0 2.004961,0.82617 1.8007,1.84102 -0.203182,1.0143 -1.341655,1.84101 -2.539796,1.84101 -1.199219,0 -2.003882,-0.82671 -1.8007,-1.84101 0.204266,-1.01485 1.340582,-1.84102 2.539796,-1.84102 z"
       id="path2467"
       style="fill:#007552;fill-opacity:1;fill-rule:nonzero;stroke:none;stroke-width:0.430018" />
    <path
       d="m 252.51249,165.48823 h 2.85963 v 2.85962 h -2.85963 z m -8.57839,0 h 2.85915 v 2.85962 h -2.85915 z m -8.57887,0 h 2.85963 v 2.85962 h -2.85963 z m -1.82026,4.5882 c 0,0.90717 0.1324,1.49602 0.39814,1.7675 0.22464,0.23133 0.60749,0.37376 1.14423,0.42681 0.15917,0.0134 0.43208,0.0196 0.81731,0.0196 v 0.79484 h -6.89024 v -0.79484 c 0.55347,0 0.96117,-0.0263 1.22501,-0.0794 0.53388,-0.11231 0.87035,-0.42347 1.00849,-0.93345 0.0722,-0.26431 0.10897,-0.66484 0.10897,-1.20111 v -10.38937 c -1.16909,0.033 -2.08342,0.42012 -2.74348,1.16191 -0.62708,0.70977 -1.00945,1.79617 -1.14853,3.25968 l -0.74466,-0.12857 0.13861,-4.96886 h 11.20142 l 0.13908,4.96886 -0.74561,0.12857 c -0.1386,-1.46351 -0.52432,-2.54991 -1.15378,-3.25968 -0.66341,-0.74179 -1.58205,-1.12893 -2.75496,-1.16191 v 10.38938 z m -6.81119,-4.5882 h 2.85963 v 2.85962 h -2.85963 z"
       id="path108"
       style="fill:#e2007a;fill-opacity:1;fill-rule:nonzero;stroke:none;stroke-width:0.0992069"
       inkscape:connector-curvature="0"
       sodipodi:nodetypes="cccccccccccccccsccccccccscccccccccccsccccc" />
    <g
       clip-path="url(#clipPath3011)"
       id="g3009"
       transform="matrix(0.30460771,0,0,-0.30460771,151.56727,194.31775)">
      <g
         transform="translate(418.3964,98.6426)"
         id="g3015">
        <path
           d="M 0,0 -3.414,-8.862 -7.279,0 h -3.033 l 5.517,-12.089 c -0.649,-1.437 -1.179,-1.601 -1.855,-1.67 -0.577,-0.062 -0.925,-0.035 -1.345,0.052 v -2.574 c 0.371,-0.069 0.721,-0.104 1.102,-0.104 0.098,0 0.198,0.002 0.31,0.007 2.091,0.154 3.355,1.217 4.365,3.674 L 2.945,0 Z"
           id="path3017"
           style="fill:#008fbe;fill-opacity:1;fill-rule:nonzero;stroke:none" />
      </g>
      <g
         transform="translate(507.1238,93.0162)"
         id="g3019">
        <path
           d="m 0,0 c 0.707,0.623 1.547,1.642 2.048,2.289 1.227,1.58 1.844,3.336 1.85,3.342 H 1.083 c 0,0 -0.69,-1.718 -2.12,-3.254 C -2.459,0.851 -3.287,0.745 -3.67,0.715 v 9.624 H -6.42 V -7.089 h 2.75 v 5.035 c 0.488,0.135 1.002,0.308 1.457,0.56 l 4.282,-5.595 h 3.34 z"
           id="path3021"
           style="fill:#008fbe;fill-opacity:1;fill-rule:nonzero;stroke:none" />
      </g>
      <g
         transform="translate(457.5543,90.8236)"
         id="g3023">
        <path
           d="m 0,0 c 0,-2.371 -0.243,-2.656 2.137,-2.674 2.159,-0.013 3.122,1.069 3.118,2.877 L 5.276,7.805 8.047,7.804 c 0,0 -0.002,-7.189 0,-7.804 0.007,-2.332 -0.274,-2.667 2.148,-2.674 2.116,-0.005 3.145,1.069 3.143,2.877 v 7.602 h 2.763 V 0.035 C 16.094,-3.152 14.095,-5.11 10.364,-5.167 7.478,-5.212 6.82,-4.812 6.189,-4.063 4.825,-5.218 2.701,-5.192 2.161,-5.192 c -3.922,0 -4.778,0.826 -4.934,2.867 C -2.807,-1.792 -2.8,2.547 -2.8,2.547 -2.775,3.486 -2.953,4.3 -3.395,4.767 -3.91,5.311 -4.626,5.487 -6.147,5.532 -6.849,5.553 -7.404,5.508 -7.713,5.387 -8.237,5.181 -8.295,4.748 -8.337,4.491 -8.422,4.035 -8.402,2.878 -8.402,2.878 v -7.774 h -2.763 v 7.792 c -0.008,1.635 -0.031,3.413 0.724,4.201 0.495,0.518 1.068,0.774 2.041,0.932 0.821,0.135 2.254,0.12 3.152,0.058 C -1.363,7.819 0,5.586 0,2.546 0,2.546 -0.002,0 0,0"
           id="path3025"
           style="fill:#008fbe;fill-opacity:1;fill-rule:nonzero;stroke:none" />
      </g>
      <g
         transform="translate(495.2209,99.0011)"
         id="g3027">
        <path
           d="m 0,0 c -1.468,0.042 -3.44,-0.261 -4.011,-1.778 -0.268,-0.715 -0.268,-1.546 -0.266,-3.333 v -7.963 h 2.745 v 5.325 3.514 c 0,1.412 0.549,1.59 1.963,1.589 1.082,-0.002 2.27,-0.165 2.914,-0.285 v 2.573 C 2.778,-0.256 1.858,-0.052 0,0"
           id="path3029"
           style="fill:#008fbe;fill-opacity:1;fill-rule:nonzero;stroke:none" />
      </g>
      <g
         transform="translate(406.9415,94.186)"
         id="g3031">
        <path
           d="M 0,0 C -0.007,1.097 -0.031,2.784 -0.848,3.656 -1.39,4.286 -2.699,4.692 -4.387,4.761 -7.705,4.892 -9.935,4.212 -9.944,4.209 V 1.657 c 0.709,0.2 3.879,1.031 6.399,0.482 0.542,-0.125 0.802,-0.469 0.872,-0.843 0.065,-0.352 0.038,-1.694 0.038,-1.694 l -0.002,0.001 c -0.004,0 -1.579,0.323 -3.477,0.323 -3.377,0.001 -5.387,-1.642 -5.387,-4.283 0,-2.474 1.902,-3.861 4.163,-4.113 0.356,-0.041 1.276,-0.089 2.121,-0.08 0.988,0.011 1.912,0.088 2.303,0.147 1.089,0.166 2.193,0.43 2.638,1.578 0.287,0.737 0.269,1.677 0.276,2.702 z M -2.886,-5.716 C -3.174,-6.012 -4.23,-6.12 -5.85,-6.1 c -1.827,0.024 -3.097,0.274 -3.05,1.683 0.055,1.609 1.617,1.931 2.887,1.92 1.905,-0.017 3.378,-0.349 3.378,-0.349 v -1.556 c 0,-0.663 0,-1.059 -0.251,-1.314"
           id="path3033"
           style="fill:#008fbe;fill-opacity:1;fill-rule:nonzero;stroke:none" />
      </g>
      <g
         transform="translate(488.192,93.0485)"
         id="g3035">
        <path
           d="m 0,0 c 0,1.111 0,3.203 -1.865,4.709 -0.516,0.418 -1.673,1.185 -4.03,1.179 -2.079,-0.006 -3.002,-0.49 -3.929,-1.148 -1.597,-1.135 -2.045,-3.068 -2.023,-5.129 0.012,-1.072 0.038,-1.928 0.049,-2.161 0.117,-2.74 1.967,-4.592 5.049,-4.822 0.246,-0.02 1.975,-0.092 3.444,0.035 1.35,0.116 2.46,0.46 2.467,0.462 v 2.651 c -0.817,-0.273 -3.273,-0.711 -5.031,-0.618 -1.365,0.07 -2.094,0.317 -2.608,0.838 -0.438,0.441 -0.556,1.187 -0.556,2 h 8.335 c 0.42,0 0.682,0.296 0.698,0.726 z M -2.681,0.357 H -9.033 V 0.52 c 0,2.142 1.687,2.913 3.152,2.905 2.28,-0.011 3.208,-1.125 3.2,-3.068"
           id="path3037"
           style="fill:#008fbe;fill-opacity:1;fill-rule:nonzero;stroke:none" />
      </g>
      <g
         transform="translate(393.7792,92.903)"
         id="g3039">
        <path
           d="M 0,0 C 0.012,-0.176 -0.005,0.123 0,0"
           id="path3041"
           style="fill:#008fbe;fill-opacity:1;fill-rule:nonzero;stroke:none" />
      </g>
      <g
         transform="translate(393.7792,92.903)"
         id="g3043">
        <path
           d="M 0,0 C -0.039,0.931 -0.24,1.875 -0.629,2.726 -0.98,3.495 -1.48,4.101 -2.141,4.626 -3.561,5.755 -5.568,6.17 -7.232,5.901 -7.852,5.802 -8.422,5.658 -8.999,5.415 v 5.037 h -2.641 c -10e-4,0 -10e-4,-12.19 0,-13.437 0,-0.879 0.006,-1.901 0.28,-2.678 0.239,-0.681 0.862,-1.081 1.524,-1.298 0.64,-0.207 1.32,-0.275 1.99,-0.297 0.425,-0.012 0.853,-0.017 1.279,-0.02 0.409,-0.001 0.872,0.012 1.277,0.041 0.762,0.054 1.466,0.164 2.167,0.492 0.626,0.293 1.178,0.725 1.622,1.255 0.924,1.098 1.369,2.537 1.493,3.949 C 0.037,-1.026 0.036,-0.514 0,0 m -2.537,-0.787 c -0.071,-1.855 -0.577,-3.679 -2.802,-3.844 -0.48,-0.035 -1.817,-0.138 -2.834,0.06 -0.443,0.086 -0.826,0.487 -0.828,1.289 0,0.227 0.002,5.711 0.002,5.711 0.348,0.27 0.734,0.491 1.138,0.671 1.479,0.663 3.681,0.394 4.689,-1.029 0.573,-0.809 0.672,-1.917 0.635,-2.858"
           id="path3045"
           style="fill:#008fbe;fill-opacity:1;fill-rule:nonzero;stroke:none" />
      </g>
      <g
         transform="translate(441.033,99.0011)"
         id="g3047">
        <path
           d="M 0,0 C -1.468,0.042 -3.441,-0.261 -4.011,-1.778 -4.28,-2.493 -4.28,-3.324 -4.278,-5.111 v -7.963 h 2.746 v 5.325 3.514 c 0,1.412 0.548,1.59 1.962,1.589 1.083,-0.002 2.27,-0.165 2.914,-0.285 v 2.573 C 2.777,-0.256 1.857,-0.052 0,0"
           id="path3049"
           style="fill:#008fbe;fill-opacity:1;fill-rule:nonzero;stroke:none" />
      </g>
      <g
         transform="translate(434.0027,93.0485)"
         id="g3051">
        <path
           d="m 0,0 c 0,1.111 0,3.203 -1.863,4.709 -0.518,0.418 -1.673,1.185 -4.033,1.179 -2.079,-0.006 -3,-0.49 -3.927,-1.148 -1.597,-1.135 -2.045,-3.068 -2.023,-5.129 0.011,-1.072 0.038,-1.928 0.048,-2.161 0.117,-2.74 1.968,-4.592 5.051,-4.822 0.245,-0.02 1.973,-0.092 3.442,0.035 1.35,0.116 2.46,0.46 2.469,0.462 v 2.651 c -0.818,-0.273 -3.275,-0.711 -5.033,-0.618 -1.365,0.07 -2.092,0.317 -2.608,0.838 -0.437,0.441 -0.556,1.187 -0.556,2 h 8.335 c 0.42,0 0.682,0.296 0.698,0.726 z M -2.68,0.357 H -9.032 V 0.52 c 0,2.142 1.687,2.913 3.153,2.905 C -3.601,3.414 -2.672,2.3 -2.68,0.357"
           id="path3053"
           style="fill:#008fbe;fill-opacity:1;fill-rule:nonzero;stroke:none" />
      </g>
    </g>
    <g
       id="g985"
       transform="matrix(0.38431505,0,0,0.38431505,123.37469,157.50917)">
      <path
         d="m 0,0 v 44.415 h 45.371 l 44.41,-44.41 v 0 H 0 Z"
         id="path3060"
         style="fill:url(#linearGradient5334);fill-opacity:1;stroke:none" />
      <path
         d="m 57.4688,39.875 v 3.3125 h 0.5 V 41.75 h 0.5624 l 0.9063,1.4375 H 60 L 59.0312,41.75 c 0.4841,-0.06 0.875,-0.3415 0.875,-0.9375 0,-0.653 -0.3996,-0.9375 -1.1874,-0.9375 z m 0.5,0.4375 h 0.6874 c 0.3381,0 0.7188,0.055 0.7188,0.4687 0,0.5171 -0.3855,0.5626 -0.8125,0.5626 h -0.5937 z m 0.625,-1.6563 c -1.586,0 -2.9376,1.2221 -2.9376,2.875 0,1.665 1.3515,2.9063 2.9376,2.9063 1.564,0 2.875,-1.2411 2.875,-2.9063 0,-1.6529 -1.311,-2.875 -2.875,-2.875 z m 0,0.4688 c 1.2939,0 2.3124,1.0453 2.3124,2.4062 0,1.3842 -1.0185,2.4063 -2.3124,2.4063 -1.3161,0 -2.375,-1.0221 -2.375,-2.4063 0,-1.3609 1.0589,-2.4062 2.375,-2.4062 z"
         id="path5384"
         style="fill:#1870c5;fill-opacity:1;fill-rule:nonzero;stroke:none" />
      <path
         d="m 53.797,21.252 h -1.946 v -7.117 h 1.946 c 2.598,0 4.666,0.856 4.666,3.513 0,2.744 -2.068,3.604 -4.666,3.604 M 32.852,26.34 c -1.03,0 -1.996,-0.188 -2.831,-0.502 l 2.803,-8.84 h 0.06 l 2.745,8.864 c -0.827,0.296 -1.768,0.478 -2.774,0.478 M 53.281,8.353 H 44.444 V 29.366 L 36.724,8.353 h -7.652 l -6.596,17.568 c -0.697,-4.428 -5.284,-5.961 -8.89,-7.104 -2.377,-0.765 -4.907,-1.889 -4.884,-3.134 0.02,-1.018 1.359,-1.962 4,-1.821 1.78,0.09 3.35,0.234 6.467,1.741 l 3.07,-5.348 C 19.395,8.802 15.454,7.89 12.23,7.883 h -0.02 c -3.761,0 -6.895,1.226 -8.839,3.233 -1.351,1.404 -2.082,3.18 -2.115,5.157 -0.05,2.708 0.947,4.63 3.034,6.167 1.766,1.294 4.019,2.127 6.009,2.751 2.455,0.757 4.459,1.418 4.436,2.827 -0.02,0.513 -0.211,0.994 -0.582,1.374 -0.611,0.635 -1.55,0.87 -2.849,0.899 -2.504,0.05 -4.361,-0.34 -7.319,-2.088 l -2.729,5.423 c 2.949,1.679 6.44,2.661 10.003,2.661 h 0.461 c 3.1,-0.06 5.604,-0.945 7.605,-2.553 l 0.324,-0.283 -0.884,2.376 h 8.025 l 1.348,-4.099 c 1.41,0.477 3.016,0.745 4.716,0.745 1.659,0 3.224,-0.25 4.609,-0.706 l 1.296,4.06 h 13.094 v -8.49 h 2.857 c 6.9,0 10.986,-3.512 10.986,-9.406 0,-6.56 -3.968,-9.569 -12.416,-9.569"
         id="path3100"
         style="fill:#ffffff;fill-opacity:1;fill-rule:evenodd;stroke:none" />
    </g>
    <rect
       style="fill:none;fill-rule:evenodd;stroke:#ffff00;stroke-width:2.29588;stroke-miterlimit:4;stroke-dasharray:none"
       id="rect13906"
       width="338.65881"
       height="190.5"
       x="0.0078413934"
       y="5.3290705e-15" />
    <g
       id="g1204"
       transform="matrix(0.46993696,0,0,0.46993696,19.617732,16.977319)">
      <ellipse
         style="fill:#ffff00;fill-opacity:1;stroke:none;stroke-width:4.05229;stroke-miterlimit:4;stroke-dasharray:none"
         id="path10"
         cx="132.29167"
         cy="132.29167"
         rx="128.323"
         ry="128.32292" />
      <circle
         r="94.898598"
         cy="132.29167"
         cx="132.29167"
         id="path10-8"
         style="fill:#000000;fill-opacity:1;stroke:none;stroke-width:4.25979;stroke-miterlimit:4;stroke-dasharray:none;stroke-opacity:1" />
      <g
         id="g941"
         transform="matrix(0.914124,0,0,0.914124,78.402315,168.17323)"
         style="fill:#ffffff;stroke-width:1.04451">
        <text
           id="text817"
           y="28.991444"
           x="10.278968"
           style="font-style:normal;font-weight:normal;font-size:31.6992px;line-height:1.25;font-family:sans-serif;letter-spacing:0px;word-spacing:0px;fill:#ffffff;fill-opacity:1;stroke:none;stroke-width:0.827752"
           xml:space="preserve"><tspan
             style="font-style:normal;font-variant:normal;font-weight:300;font-stretch:normal;font-size:31.6992px;font-family:'Open Sans';-inkscape-font-specification:'Open Sans, Light';font-variant-ligatures:normal;font-variant-caps:normal;font-variant-numeric:normal;font-feature-settings:normal;text-align:start;writing-mode:lr-tb;text-anchor:start;fill:#ffffff;stroke-width:0.827752"
             y="28.991444"
             x="10.278968"
             id="tspan815"
             sodipodi:role="line">lernOS</tspan></text>
        <rect
           ry="1.5558583"
           rx="1.5558583"
           y="4.9074588"
           x="4.5344229"
           height="4.8642378"
           width="4.8642378"
           id="rect834"
           style="opacity:1;fill:#ffffff;fill-opacity:1;stroke:#ffffff;stroke-width:0;stroke-linejoin:round;stroke-miterlimit:4;stroke-dasharray:none;stroke-opacity:1" />
        <rect
           ry="1.5558583"
           rx="1.5558583"
           y="14.672123"
           x="4.5578423"
           height="4.8642378"
           width="4.8642378"
           id="rect834-1"
           style="opacity:1;fill:#ffffff;fill-opacity:1;stroke:#ffffff;stroke-width:0;stroke-linejoin:round;stroke-miterlimit:4;stroke-dasharray:none;stroke-opacity:1" />
        <rect
           ry="1.5558583"
           rx="1.5558583"
           y="24.436771"
           x="4.491025"
           height="4.8642378"
           width="4.8642378"
           id="rect834-1-8"
           style="opacity:1;fill:#ffffff;fill-opacity:1;stroke:#ffffff;stroke-width:0;stroke-linejoin:round;stroke-miterlimit:4;stroke-dasharray:none;stroke-opacity:1" />
        <g
           style="fill:#ffffff;stroke-width:3.50067"
           transform="matrix(0.07899893,0,0,0.07889048,108.38482,4.8829219)"
           id="g895">
          <path
             style="fill:#ffffff;stroke-width:3.50067"
             inkscape:connector-curvature="0"
             d="M 31.957,0.311 C 23.275,0.311 15.635,3.524 9.731,9.514 3.653,15.678 0.354,23.666 0.354,32 c 0,8.422 3.212,16.236 9.29,22.313 6.078,6.078 13.978,9.377 22.313,9.377 8.334,0 16.409,-3.299 22.66,-9.463 C 60.521,48.41 63.646,40.683 63.646,32 63.646,23.405 60.521,15.592 54.53,9.601 48.453,3.523 40.639,0.311 31.957,0.311 Z m 0.086,5.73 c 7.12,0 13.458,2.691 18.406,7.641 4.862,4.861 7.466,11.286 7.466,18.318 0,7.119 -2.518,13.371 -7.379,18.146 -5.123,5.035 -11.721,7.727 -18.493,7.727 -6.858,0 -13.283,-2.691 -18.232,-7.641 C 8.862,45.283 6.084,38.772 6.084,32 6.084,25.142 8.862,18.631 13.811,13.594 18.673,8.646 24.924,6.041 32.043,6.041 Z"
             id="path879" />
          <path
             style="fill:#ffffff;stroke-width:3.50067"
             inkscape:connector-curvature="0"
             id="c"
             d="m 31.635,26.734 c -1.79,-3.264 -4.844,-4.563 -8.389,-4.563 -5.16,0 -9.267,3.65 -9.267,9.828 0,6.283 3.861,9.829 9.442,9.829 3.581,0 6.635,-1.966 8.319,-4.949 l -3.931,-2.001 c -0.878,2.105 -2.212,2.738 -3.896,2.738 -2.914,0 -4.248,-2.422 -4.248,-5.617 0,-3.193 1.124,-5.616 4.248,-5.616 0.842,0 2.527,0.456 3.51,2.563 z" />
          <use
             style="fill:#ffffff;stroke-width:3.50067"
             height="100%"
             width="100%"
             y="0"
             x="0"
             xlink:href="#c"
             transform="translate(18.281)"
             id="use882" />
        </g>
      </g>
      <text
         xml:space="preserve"
         style="font-style:normal;font-variant:normal;font-weight:bold;font-stretch:normal;font-size:18.4311px;line-height:1.25;font-family:'Open Sans';-inkscape-font-specification:'Open Sans, Bold';font-variant-ligatures:normal;font-variant-caps:normal;font-variant-numeric:normal;font-variant-east-asian:normal;fill:#000000;fill-opacity:1;stroke:none;stroke-width:0.460777"
         id="text1011-6"
         transform="translate(-0.35329452)"><textPath
           id="textPath992"
           xlink:href="#path988">      lernOS Convention 2022</textPath></text>
      <text
         id="text1011-6-4"
         style="font-style:normal;font-variant:normal;font-weight:bold;font-stretch:normal;font-size:18.4311px;line-height:1.25;font-family:'Open Sans';-inkscape-font-specification:'Open Sans, Bold';font-variant-ligatures:normal;font-variant-caps:normal;font-variant-numeric:normal;font-variant-east-asian:normal;fill:#000000;fill-opacity:1;stroke:none;stroke-width:0.460777"
         xml:space="preserve"
         transform="rotate(25.625625,133.22123,130.84611)"><textPath
           style="font-style:normal;font-variant:normal;font-weight:bold;font-stretch:normal;font-size:18.3444px;font-family:'Open Sans';-inkscape-font-specification:'Open Sans, Bold';font-variant-ligatures:normal;font-variant-caps:normal;font-variant-numeric:normal;font-variant-east-asian:normal;fill:#000000"
           id="textPath999"
           xlink:href="#path997">05. - 06.07.2022 - Hybrid - #loscon22</textPath></text>
      <ellipse
         ry="103.57978"
         rx="103.55525"
         transform="matrix(-0.97078151,-0.23996511,0.23977504,-0.97082848,0,0)"
         cy="-96.680923"
         cx="-160.15276"
         id="path988"
         style="fill:none;stroke:none;stroke-width:4.18074" />
      <circle
         transform="matrix(-0.77811803,0.62811808,0.62811808,0.77811803,0,0)"
         r="117.38628"
         cy="186.03331"
         cx="-19.84375"
         id="path997"
         style="fill:none;stroke:none;stroke-width:1.506;stroke-miterlimit:4;stroke-dasharray:none" />
      <path
         transform="matrix(1.6477419,-0.076611,0.076611,1.6477419,-235.10597,-42.236027)"
         inkscape:transform-center-y="-1.1877456"
         inkscape:transform-center-x="0.049363904"
         inkscape:randomized="0"
         inkscape:rounded="0"
         inkscape:flatsided="false"
         sodipodi:arg2="1.6768001"
         sodipodi:arg1="0.97658262"
         sodipodi:r2="2.5702579"
         sodipodi:r1="5.8891869"
         sodipodi:cy="113.49103"
         sodipodi:cx="151.20462"
         sodipodi:sides="5"
         id="path860-8-0-6-6-5-3"
         style="fill:#000000;fill-opacity:1;stroke:none;stroke-width:0.937555;stroke-miterlimit:4;stroke-dasharray:none;stroke-dashoffset:0;stroke-opacity:1"
         sodipodi:type="star"
         d="m 154.50173,118.37074 -3.56906,-2.32388 -3.35007,2.08782 1.10724,-4.11249 -3.02086,-2.54095 4.25337,-0.21777 1.48308,-3.6582 1.52148,3.97789 3.93746,0.28005 -3.31305,2.67625 z" />
      <path
         transform="matrix(1.6477419,-0.076611,0.076611,1.6477419,-15.175889,-42.236027)"
         inkscape:transform-center-y="-1.1877456"
         inkscape:transform-center-x="0.049363904"
         inkscape:randomized="0"
         inkscape:rounded="0"
         inkscape:flatsided="false"
         sodipodi:arg2="1.6768001"
         sodipodi:arg1="0.97658262"
         sodipodi:r2="2.5702579"
         sodipodi:r1="5.8891869"
         sodipodi:cy="113.49103"
         sodipodi:cx="151.20462"
         sodipodi:sides="5"
         id="path860-8-0-6-6-5-3-8"
         style="fill:#000000;fill-opacity:1;stroke:none;stroke-width:0.937555;stroke-miterlimit:4;stroke-dasharray:none;stroke-dashoffset:0;stroke-opacity:1"
         sodipodi:type="star"
         d="m 154.50173,118.37074 -3.56906,-2.32388 -3.35007,2.08782 1.10724,-4.11249 -3.02086,-2.54095 4.25337,-0.21777 1.48308,-3.6582 1.52148,3.97789 3.93746,0.28005 -3.31305,2.67625 z" />
      <g
         id="g39470"
         transform="matrix(0.80447178,0,0,0.80447178,275.06604,113.5602)">
        <text
           xml:space="preserve"
           style="font-style:normal;font-variant:normal;font-weight:800;font-stretch:normal;font-size:10.9361px;line-height:1.25;font-family:'Open Sans';-inkscape-font-specification:'Open Sans, Ultra-Bold';font-variant-ligatures:normal;font-variant-caps:normal;font-variant-numeric:normal;font-variant-east-asian:normal;fill:#ffffff;fill-opacity:1;stroke:none;stroke-width:0.264583"
           x="-284.15897"
           y="23.993332"
           id="text1155"><tspan
             sodipodi:role="line"
             id="tspan1153"
             style="font-style:normal;font-variant:normal;font-weight:800;font-stretch:normal;font-size:10.9361px;font-family:'Open Sans';-inkscape-font-specification:'Open Sans, Ultra-Bold';font-variant-ligatures:normal;font-variant-caps:normal;font-variant-numeric:normal;font-variant-east-asian:normal;fill:#ffffff;stroke-width:0.264583"
             x="-284.15897"
             y="23.993332">T   H   E      R   E - R   E   T   U   R   N      O   F</tspan></text>
        <text
           xml:space="preserve"
           style="font-style:normal;font-variant:normal;font-weight:normal;font-stretch:normal;font-size:27.8319px;line-height:1.25;font-family:'Star Jedi Hollow';-inkscape-font-specification:'Star Jedi Hollow, Normal';font-variant-ligatures:normal;font-variant-caps:normal;font-variant-numeric:normal;font-variant-east-asian:normal;fill:#ffff00;fill-opacity:1;stroke:none;stroke-width:0.695799"
           x="-270.94653"
           y="11.208267"
           id="text34211"><tspan
             sodipodi:role="line"
             id="tspan34209"
             style="font-style:normal;font-variant:normal;font-weight:normal;font-stretch:normal;font-size:27.8319px;font-family:'Star Jedi Hollow';-inkscape-font-specification:'Star Jedi Hollow, Normal';font-variant-ligatures:normal;font-variant-caps:normal;font-variant-numeric:normal;font-variant-east-asian:normal;fill:#ffff00;stroke-width:0.695799"
             x="-270.94653"
             y="11.208267">knowledge</tspan></text>
        <text
           xml:space="preserve"
           style="font-style:normal;font-variant:normal;font-weight:normal;font-stretch:normal;font-size:27.8319px;line-height:1.25;font-family:'Star Jedi Hollow';-inkscape-font-specification:'Star Jedi Hollow, Normal';font-variant-ligatures:normal;font-variant-caps:normal;font-variant-numeric:normal;font-variant-east-asian:normal;fill:#ffff00;fill-opacity:1;stroke:none;stroke-width:0.695799"
           x="-278.65195"
           y="48.48399"
           id="text34211-7"><tspan
             sodipodi:role="line"
             id="tspan34209-2"
             style="font-style:normal;font-variant:normal;font-weight:normal;font-stretch:normal;font-size:27.8319px;font-family:'Star Jedi Hollow';-inkscape-font-specification:'Star Jedi Hollow, Normal';font-variant-ligatures:normal;font-variant-caps:normal;font-variant-numeric:normal;font-variant-east-asian:normal;fill:#ffff00;stroke-width:0.695799"
             x="-278.65195"
             y="48.48399">management</tspan></text>
      </g>
      <g
         style="overflow:hidden;fill:#ffffff"
         id="g39554"
         transform="matrix(0.50843459,0.13623464,-0.13623464,0.50843459,84.836968,48.356853)">
        <g
           clip-path="url(#clip0)"
           transform="translate(-592,-312)"
           id="g39540"
           style="fill:#ffffff">
          <path
             d="m 679.8,320.4 c -1.4,-1.4 -10.4,0.2 -17.9,2.2 2.7,1.6 5.5,3.8 8.2,6.5 2.8,2.8 5,5.6 6.6,8.4 2,-7.7 4.6,-15.7 3.1,-17.1 z"
             fill="#000000"
             fill-rule="nonzero"
             fill-opacity="1"
             id="path39530"
             style="fill:#ffffff" />
          <path
             d="m 624.1,348.9 -3.4,-1.3 c -1.4,-0.5 -2.9,-0.2 -4,0.8 l -15.9,15.9 c -2.6,2.6 -0.2,7.1 3.4,6.3 l 13.3,-3 c 1.1,-5 2.9,-11.7 6.6,-18.7 z"
             fill="#000000"
             fill-rule="nonzero"
             fill-opacity="1"
             id="path39532"
             style="fill:#ffffff" />
          <path
             d="m 650.6,375 c -6.7,3.5 -13.1,5.4 -18.3,6.4 l -3.1,14.2 c -0.8,3.6 3.6,6.1 6.3,3.4 l 15.9,-15.9 c 1,-1 1.4,-2.6 0.8,-4 z"
             fill="#000000"
             fill-rule="nonzero"
             fill-opacity="1"
             id="path39534"
             style="fill:#ffffff" />
          <path
             d="m 656.5,324.4 c -5.9,2.4 -12.6,6.5 -19.1,13 -11.9,11.9 -15.4,26.3 -16.4,34.5 l 6.2,6.2 c 8.2,-1 22.7,-4.4 34.6,-16.3 6.5,-6.5 10.6,-13.1 13,-19 -1.3,-3.3 -3.9,-7.2 -7.6,-11 -3.6,-3.5 -7.4,-6.1 -10.7,-7.4 z m 5.1,21.6 c -2.3,2.3 -6.1,2.3 -8.5,0 -2.3,-2.3 -2.3,-6.1 0,-8.5 2.3,-2.3 6.1,-2.3 8.5,0 2.3,2.4 2.3,6.2 0,8.5 z"
             fill="#000000"
             fill-rule="nonzero"
             fill-opacity="1"
             id="path39536"
             style="fill:#ffffff" />
          <path
             d="m 620.9,378.2 c -1.6,-1.6 -1.4,-4.3 -4.7,-1 -3.3,3.3 -8.2,10.8 -6.7,12.4 1.6,1.6 9.1,-3.4 12.4,-6.7 3.3,-3.4 0.6,-3.2 -1,-4.7 z"
             fill="#000000"
             fill-rule="nonzero"
             fill-opacity="1"
             id="path39538"
             style="fill:#ffffff" />
        </g>
      </g>
      <g
         style="overflow:hidden;fill:#ffffff"
         id="g39630"
         transform="matrix(-0.45916068,0.38964461,-0.38964461,-0.45916068,201.65744,77.744916)">
        <g
           clip-path="url(#clip0-3)"
           transform="translate(-686.80296,-208.18839)"
           id="g39618"
           style="fill:#ffffff">
          <path
             d="m 738.1,248.6 c 0.9,-0.8 1.2,-2 0.8,-3.1 -0.4,-1.1 -1.4,-1.8 -2.6,-1.8 h -9.2 c -1.2,0 -2.2,-0.8 -2.6,-1.9 l -2.9,-8.9 c -0.4,-1.1 -1.4,-1.9 -2.6,-1.9 -1.2,0 -2.2,0.8 -2.6,1.9 l -2.9,8.9 c -0.4,1.1 -1.4,1.9 -2.6,1.9 h -9.2 c -1.1,0 -2.2,0.7 -2.6,1.8 -0.4,1.1 -0.1,2.3 0.8,3.1 l 3.2,2.9 4.1,3.6 c 0.4,0.4 0.7,0.8 0.8,1.3 0.1,0.5 0.1,1.1 0,1.6 l -2.8,9.4 c -0.4,1.1 0,2.3 1,3 0.9,0.7 2.2,0.7 3.2,0.1 l 8,-5.6 c 0.9,-0.7 2.2,-0.7 3.1,0 l 8,5.6 c 1,0.7 2.2,0.6 3.2,-0.1 0.9,-0.7 1.3,-1.9 1,-3 L 730,258 c -0.3,-1 0,-2.2 0.8,-2.9 z"
             fill="#000000"
             fill-rule="nonzero"
             fill-opacity="1"
             id="path39612"
             style="fill:#ffffff" />
          <path
             d="m 772.2,263.1 c 0.7,-0.6 0.9,-1.6 0.6,-2.4 -0.3,-0.9 -1.1,-1.4 -2,-1.5 h -7.3 c -0.9,0 -1.8,-0.6 -2.1,-1.5 l -2.3,-7.2 c -0.3,-0.9 -1.1,-1.5 -2.1,-1.5 -0.9,0 -1.8,0.6 -2.1,1.5 l -2.3,7.2 c -0.3,0.9 -1.1,1.5 -2.1,1.5 h -7.3 c -0.9,0 -1.7,0.6 -2,1.5 -0.3,0.9 -0.1,1.8 0.6,2.4 l 2.6,2.3 3.3,2.9 c 0.3,0.3 0.5,0.7 0.7,1.1 0.1,0.4 0.1,0.8 0,1.3 l -2.4,7.4 c -0.3,0.9 0,1.9 0.8,2.4 0.8,0.6 1.8,0.6 2.5,0 l 6.4,-4.5 c 0.7,-0.5 1.7,-0.5 2.5,0 l 6.4,4.5 c 0.8,0.6 1.8,0.6 2.6,0 0.8,-0.6 1.1,-1.6 0.8,-2.5 l -2.2,-7.5 c -0.2,-0.8 0,-1.7 0.7,-2.3 z"
             fill="#000000"
             fill-rule="nonzero"
             fill-opacity="1"
             id="path39614"
             style="fill:#ffffff" />
          <path
             d="m 744.4,291.6 c 0.5,-0.5 0.7,-1.2 0.5,-1.8 -0.2,-0.6 -0.9,-1.1 -1.5,-1.1 h -5.5 c -0.7,0 -1.3,-0.5 -1.5,-1.1 l -1.8,-5.4 c -0.3,-0.7 -0.9,-1.2 -1.6,-1.2 -0.7,0 -1.3,0.5 -1.6,1.1 l -1.8,5.4 c -0.2,0.7 -0.8,1.1 -1.5,1.1 h -5.5 c -0.7,0 -1.3,0.4 -1.5,1.1 -0.2,0.6 0,1.4 0.5,1.8 l 1.9,1.7 2.4,2.2 c 0.2,0.2 0.4,0.5 0.5,0.8 0.1,0.3 0.1,0.6 0,0.9 l -1.7,5.7 c -0.2,0.7 0,1.4 0.6,1.8 0.6,0.4 1.3,0.4 1.9,0 l 4.8,-3.4 c 0.6,-0.4 1.3,-0.4 1.9,0 l 4.8,3.4 c 0.6,0.4 1.3,0.4 1.9,0 0.6,-0.4 0.8,-1.2 0.6,-1.8 l -1.7,-5.7 c -0.2,-0.6 0,-1.3 0.5,-1.7 z"
             fill="#000000"
             fill-rule="nonzero"
             fill-opacity="1"
             id="path39616"
             style="fill:#ffffff" />
        </g>
      </g>
    </g>
  </g>
</svg>
