<?xml version="1.0" encoding="UTF-8" standalone="no"?>
<svg
   sodipodi:docname="loscon22-logo.svg"
   inkscape:version="1.1.2 (b8e25be8, 2022-02-05)"
   id="svg8"
   version="1.1"
   viewBox="0 0 264.58333 264.58334"
   height="1000"
   width="1000"
   inkscape:export-filename="/Users/simondueckert/OneDrive - Cogneon GmbH/Projekte/loscon22/Grafiken/loscon22-logo.png"
   inkscape:export-xdpi="76.800003"
   inkscape:export-ydpi="76.800003"
   xmlns:inkscape="http://www.inkscape.org/namespaces/inkscape"
   xmlns:sodipodi="http://sodipodi.sourceforge.net/DTD/sodipodi-0.dtd"
   xmlns:xlink="http://www.w3.org/1999/xlink"
   xmlns="http://www.w3.org/2000/svg"
   xmlns:svg="http://www.w3.org/2000/svg"
   xmlns:rdf="http://www.w3.org/1999/02/22-rdf-syntax-ns#"
   xmlns:cc="http://creativecommons.org/ns#"
   xmlns:dc="http://purl.org/dc/elements/1.1/">
  <defs
     id="defs2">
    <clipPath
       id="clip0">
      <rect
         x="592"
         y="312"
         width="96"
         height="96"
         id="rect39525" />
    </clipPath>
    <clipPath
       id="clip0-3">
      <rect
         x="688"
         y="220"
         width="96"
         height="96"
         id="rect39607" />
    </clipPath>
  </defs>
  <sodipodi:namedview
     inkscape:pagecheckerboard="true"
     inkscape:window-maximized="0"
     inkscape:window-y="0"
     inkscape:window-x="0"
     inkscape:window-height="900"
     inkscape:window-width="1440"
     units="px"
     showgrid="false"
     inkscape:document-rotation="0"
     inkscape:current-layer="g1190"
     inkscape:document-units="mm"
     inkscape:cy="623.38703"
     inkscape:cx="343.08711"
     inkscape:zoom="0.44595089"
     inkscape:pageshadow="2"
     inkscape:pageopacity="0.0"
     borderopacity="1.0"
     bordercolor="#666666"
     pagecolor="#ffffff"
     id="base"
     showguides="true"
     inkscape:guide-bbox="true"
     inkscape:snap-grids="true"
     inkscape:snap-to-guides="true">
    <sodipodi:guide
       id="guide1843"
       orientation="0,-1"
       position="290.47194,-202.93818" />
  </sodipodi:namedview>
  <metadata
     id="metadata5">
    <rdf:RDF>
      <cc:Work
         rdf:about="">
        <dc:format>image/svg+xml</dc:format>
        <dc:type
           rdf:resource="http://purl.org/dc/dcmitype/StillImage" />
      </cc:Work>
    </rdf:RDF>
  </metadata>
  <g
     id="layer1"
     inkscape:groupmode="layer"
     inkscape:label="Ebene 1">
    <g
       id="g1190">
      <g
         id="g1204">
        <ellipse
           style="fill:#ffff00;fill-opacity:1;stroke:none;stroke-width:4.05229;stroke-miterlimit:4;stroke-dasharray:none"
           id="path10"
           cx="132.29167"
           cy="132.29167"
           rx="128.323"
           ry="128.32292" />
        <circle
           r="94.898598"
           cy="132.29167"
           cx="132.29167"
           id="path10-8"
           style="fill:#000000;fill-opacity:1;stroke:none;stroke-width:4.25979;stroke-miterlimit:4;stroke-dasharray:none;stroke-opacity:1" />
        <g
           id="g941"
           transform="matrix(0.914124,0,0,0.914124,78.402315,168.17323)"
           style="fill:#ffffff;stroke-width:1.04451">
          <text
             id="text817"
             y="28.991444"
             x="10.278968"
             style="font-style:normal;font-weight:normal;font-size:31.6992px;line-height:1.25;font-family:sans-serif;letter-spacing:0px;word-spacing:0px;fill:#ffffff;fill-opacity:1;stroke:none;stroke-width:0.827752"
             xml:space="preserve"><tspan
               style="font-style:normal;font-variant:normal;font-weight:300;font-stretch:normal;font-size:31.6992px;font-family:'Open Sans';-inkscape-font-specification:'Open Sans, Light';font-variant-ligatures:normal;font-variant-caps:normal;font-variant-numeric:normal;font-feature-settings:normal;text-align:start;writing-mode:lr-tb;text-anchor:start;fill:#ffffff;stroke-width:0.827752"
               y="28.991444"
               x="10.278968"
               id="tspan815"
               sodipodi:role="line">lernOS</tspan></text>
          <rect
             ry="0.73115528"
             rx="0.73115528"
             y="4.9074588"
             x="4.5344229"
             height="4.8642378"
             width="4.8642378"
             id="rect834"
             style="opacity:1;fill:#ffffff;fill-opacity:1;stroke:#ffffff;stroke-width:0;stroke-linejoin:round;stroke-miterlimit:4;stroke-dasharray:none;stroke-opacity:1" />
          <rect
             ry="0.73115528"
             rx="0.73115528"
             y="14.672123"
             x="4.5578423"
             height="4.8642378"
             width="4.8642378"
             id="rect834-1"
             style="opacity:1;fill:#ffffff;fill-opacity:1;stroke:#ffffff;stroke-width:0;stroke-linejoin:round;stroke-miterlimit:4;stroke-dasharray:none;stroke-opacity:1" />
          <rect
             ry="0.73115528"
             rx="0.73115528"
             y="24.436771"
             x="4.491025"
             height="4.8642378"
             width="4.8642378"
             id="rect834-1-8"
             style="opacity:1;fill:#ffffff;fill-opacity:1;stroke:#ffffff;stroke-width:0;stroke-linejoin:round;stroke-miterlimit:4;stroke-dasharray:none;stroke-opacity:1" />
          <g
             style="fill:#ffffff;stroke-width:3.50067"
             transform="matrix(0.07899893,0,0,0.07889048,108.38482,4.8829219)"
             id="g895">
            <path
               style="fill:#ffffff;stroke-width:3.50067"
               inkscape:connector-curvature="0"
               d="M 31.957,0.311 C 23.275,0.311 15.635,3.524 9.731,9.514 3.653,15.678 0.354,23.666 0.354,32 c 0,8.422 3.212,16.236 9.29,22.313 6.078,6.078 13.978,9.377 22.313,9.377 8.334,0 16.409,-3.299 22.66,-9.463 C 60.521,48.41 63.646,40.683 63.646,32 63.646,23.405 60.521,15.592 54.53,9.601 48.453,3.523 40.639,0.311 31.957,0.311 Z m 0.086,5.73 c 7.12,0 13.458,2.691 18.406,7.641 4.862,4.861 7.466,11.286 7.466,18.318 0,7.119 -2.518,13.371 -7.379,18.146 -5.123,5.035 -11.721,7.727 -18.493,7.727 -6.858,0 -13.283,-2.691 -18.232,-7.641 C 8.862,45.283 6.084,38.772 6.084,32 6.084,25.142 8.862,18.631 13.811,13.594 18.673,8.646 24.924,6.041 32.043,6.041 Z"
               id="path879" />
            <path
               style="fill:#ffffff;stroke-width:3.50067"
               inkscape:connector-curvature="0"
               id="c"
               d="m 31.635,26.734 c -1.79,-3.264 -4.844,-4.563 -8.389,-4.563 -5.16,0 -9.267,3.65 -9.267,9.828 0,6.283 3.861,9.829 9.442,9.829 3.581,0 6.635,-1.966 8.319,-4.949 l -3.931,-2.001 c -0.878,2.105 -2.212,2.738 -3.896,2.738 -2.914,0 -4.248,-2.422 -4.248,-5.617 0,-3.193 1.124,-5.616 4.248,-5.616 0.842,0 2.527,0.456 3.51,2.563 z" />
            <use
               style="fill:#ffffff;stroke-width:3.50067"
               height="100%"
               width="100%"
               y="0"
               x="0"
               xlink:href="#c"
               transform="translate(18.281)"
               id="use882" />
          </g>
        </g>
        <text
           xml:space="preserve"
           style="font-style:normal;font-variant:normal;font-weight:bold;font-stretch:normal;font-size:18.4311px;line-height:1.25;font-family:'Open Sans';-inkscape-font-specification:'Open Sans, Bold';font-variant-ligatures:normal;font-variant-caps:normal;font-variant-numeric:normal;font-variant-east-asian:normal;fill:#000000;fill-opacity:1;stroke:none;stroke-width:0.460777"
           id="text1011-6"
           transform="translate(-0.35329452)"><textPath
             id="textPath992"
             xlink:href="#path988">      lernOS Convention 2022</textPath></text>
        <text
           id="text1011-6-4"
           style="font-style:normal;font-variant:normal;font-weight:bold;font-stretch:normal;font-size:18.4311px;line-height:1.25;font-family:'Open Sans';-inkscape-font-specification:'Open Sans, Bold';font-variant-ligatures:normal;font-variant-caps:normal;font-variant-numeric:normal;font-variant-east-asian:normal;fill:#000000;fill-opacity:1;stroke:none;stroke-width:0.460777"
           xml:space="preserve"
           transform="rotate(25.625625,133.22123,130.84611)"><textPath
             style="font-style:normal;font-variant:normal;font-weight:bold;font-stretch:normal;font-size:18.3444px;font-family:'Open Sans';-inkscape-font-specification:'Open Sans, Bold';font-variant-ligatures:normal;font-variant-caps:normal;font-variant-numeric:normal;font-variant-east-asian:normal;fill:#000000"
             id="textPath999"
             xlink:href="#path997">05. - 06.07.2022 - Hybrid - #loscon22</textPath></text>
        <ellipse
           ry="103.57978"
           rx="103.55525"
           transform="matrix(-0.97078151,-0.23996511,0.23977504,-0.97082848,0,0)"
           cy="-96.680923"
           cx="-160.15276"
           id="path988"
           style="fill:none;stroke:none;stroke-width:4.18074" />
        <circle
           transform="matrix(-0.77811803,0.62811808,0.62811808,0.77811803,0,0)"
           r="117.38628"
           cy="186.03331"
           cx="-19.84375"
           id="path997"
           style="fill:none;stroke:none;stroke-width:1.506;stroke-miterlimit:4;stroke-dasharray:none" />
        <path
           transform="matrix(1.6477419,-0.076611,0.076611,1.6477419,-235.10597,-42.236027)"
           inkscape:transform-center-y="-1.1877456"
           inkscape:transform-center-x="0.049363904"
           inkscape:randomized="0"
           inkscape:rounded="0"
           inkscape:flatsided="false"
           sodipodi:arg2="1.6768001"
           sodipodi:arg1="0.97658262"
           sodipodi:r2="2.5702579"
           sodipodi:r1="5.8891869"
           sodipodi:cy="113.49103"
           sodipodi:cx="151.20462"
           sodipodi:sides="5"
           id="path860-8-0-6-6-5-3"
           style="fill:#000000;fill-opacity:1;stroke:none;stroke-width:0.937555;stroke-miterlimit:4;stroke-dasharray:none;stroke-dashoffset:0;stroke-opacity:1"
           sodipodi:type="star"
           d="m 154.50173,118.37074 -3.56906,-2.32388 -3.35007,2.08782 1.10724,-4.11249 -3.02086,-2.54095 4.25337,-0.21777 1.48308,-3.6582 1.52148,3.97789 3.93746,0.28005 -3.31305,2.67625 z" />
        <path
           transform="matrix(1.6477419,-0.076611,0.076611,1.6477419,-15.175889,-42.236027)"
           inkscape:transform-center-y="-1.1877456"
           inkscape:transform-center-x="0.049363904"
           inkscape:randomized="0"
           inkscape:rounded="0"
           inkscape:flatsided="false"
           sodipodi:arg2="1.6768001"
           sodipodi:arg1="0.97658262"
           sodipodi:r2="2.5702579"
           sodipodi:r1="5.8891869"
           sodipodi:cy="113.49103"
           sodipodi:cx="151.20462"
           sodipodi:sides="5"
           id="path860-8-0-6-6-5-3-8"
           style="fill:#000000;fill-opacity:1;stroke:none;stroke-width:0.937555;stroke-miterlimit:4;stroke-dasharray:none;stroke-dashoffset:0;stroke-opacity:1"
           sodipodi:type="star"
           d="m 154.50173,118.37074 -3.56906,-2.32388 -3.35007,2.08782 1.10724,-4.11249 -3.02086,-2.54095 4.25337,-0.21777 1.48308,-3.6582 1.52148,3.97789 3.93746,0.28005 -3.31305,2.67625 z" />
        <g
           id="g39470"
           transform="matrix(0.80447178,0,0,0.80447178,275.06604,113.5602)">
          <text
             xml:space="preserve"
             style="font-style:normal;font-variant:normal;font-weight:800;font-stretch:normal;font-size:10.9361px;line-height:1.25;font-family:'Open Sans';-inkscape-font-specification:'Open Sans, Ultra-Bold';font-variant-ligatures:normal;font-variant-caps:normal;font-variant-numeric:normal;font-variant-east-asian:normal;fill:#ffffff;fill-opacity:1;stroke:none;stroke-width:0.264583"
             x="-284.15897"
             y="23.993332"
             id="text1155"><tspan
               sodipodi:role="line"
               id="tspan1153"
               style="font-style:normal;font-variant:normal;font-weight:800;font-stretch:normal;font-size:10.9361px;font-family:'Open Sans';-inkscape-font-specification:'Open Sans, Ultra-Bold';font-variant-ligatures:normal;font-variant-caps:normal;font-variant-numeric:normal;font-variant-east-asian:normal;fill:#ffffff;stroke-width:0.264583"
               x="-284.15897"
               y="23.993332">T   H   E      R   E - R   E   T   U   R   N      O   F</tspan></text>
          <text
             xml:space="preserve"
             style="font-style:normal;font-variant:normal;font-weight:normal;font-stretch:normal;font-size:27.8319px;line-height:1.25;font-family:'Star Jedi Hollow';-inkscape-font-specification:'Star Jedi Hollow, Normal';font-variant-ligatures:normal;font-variant-caps:normal;font-variant-numeric:normal;font-variant-east-asian:normal;fill:#ffff00;fill-opacity:1;stroke:none;stroke-width:0.695799"
             x="-270.94653"
             y="11.208267"
             id="text34211"><tspan
               sodipodi:role="line"
               id="tspan34209"
               style="font-style:normal;font-variant:normal;font-weight:normal;font-stretch:normal;font-size:27.8319px;font-family:'Star Jedi Hollow';-inkscape-font-specification:'Star Jedi Hollow, Normal';font-variant-ligatures:normal;font-variant-caps:normal;font-variant-numeric:normal;font-variant-east-asian:normal;fill:#ffff00;stroke-width:0.695799"
               x="-270.94653"
               y="11.208267">knowledge</tspan></text>
          <text
             xml:space="preserve"
             style="font-style:normal;font-variant:normal;font-weight:normal;font-stretch:normal;font-size:27.8319px;line-height:1.25;font-family:'Star Jedi Hollow';-inkscape-font-specification:'Star Jedi Hollow, Normal';font-variant-ligatures:normal;font-variant-caps:normal;font-variant-numeric:normal;font-variant-east-asian:normal;fill:#ffff00;fill-opacity:1;stroke:none;stroke-width:0.695799"
             x="-278.65195"
             y="48.48399"
             id="text34211-7"><tspan
               sodipodi:role="line"
               id="tspan34209-2"
               style="font-style:normal;font-variant:normal;font-weight:normal;font-stretch:normal;font-size:27.8319px;font-family:'Star Jedi Hollow';-inkscape-font-specification:'Star Jedi Hollow, Normal';font-variant-ligatures:normal;font-variant-caps:normal;font-variant-numeric:normal;font-variant-east-asian:normal;fill:#ffff00;stroke-width:0.695799"
               x="-278.65195"
               y="48.48399">management</tspan></text>
        </g>
        <g
           style="overflow:hidden;fill:#ffffff"
           id="g39554"
           transform="matrix(0.50843459,0.13623464,-0.13623464,0.50843459,84.836968,48.356853)">
          <g
             clip-path="url(#clip0)"
             transform="translate(-592,-312)"
             id="g39540"
             style="fill:#ffffff">
            <path
               d="m 679.8,320.4 c -1.4,-1.4 -10.4,0.2 -17.9,2.2 2.7,1.6 5.5,3.8 8.2,6.5 2.8,2.8 5,5.6 6.6,8.4 2,-7.7 4.6,-15.7 3.1,-17.1 z"
               fill="#000000"
               fill-rule="nonzero"
               fill-opacity="1"
               id="path39530"
               style="fill:#ffffff" />
            <path
               d="m 624.1,348.9 -3.4,-1.3 c -1.4,-0.5 -2.9,-0.2 -4,0.8 l -15.9,15.9 c -2.6,2.6 -0.2,7.1 3.4,6.3 l 13.3,-3 c 1.1,-5 2.9,-11.7 6.6,-18.7 z"
               fill="#000000"
               fill-rule="nonzero"
               fill-opacity="1"
               id="path39532"
               style="fill:#ffffff" />
            <path
               d="m 650.6,375 c -6.7,3.5 -13.1,5.4 -18.3,6.4 l -3.1,14.2 c -0.8,3.6 3.6,6.1 6.3,3.4 l 15.9,-15.9 c 1,-1 1.4,-2.6 0.8,-4 z"
               fill="#000000"
               fill-rule="nonzero"
               fill-opacity="1"
               id="path39534"
               style="fill:#ffffff" />
            <path
               d="m 656.5,324.4 c -5.9,2.4 -12.6,6.5 -19.1,13 -11.9,11.9 -15.4,26.3 -16.4,34.5 l 6.2,6.2 c 8.2,-1 22.7,-4.4 34.6,-16.3 6.5,-6.5 10.6,-13.1 13,-19 -1.3,-3.3 -3.9,-7.2 -7.6,-11 -3.6,-3.5 -7.4,-6.1 -10.7,-7.4 z m 5.1,21.6 c -2.3,2.3 -6.1,2.3 -8.5,0 -2.3,-2.3 -2.3,-6.1 0,-8.5 2.3,-2.3 6.1,-2.3 8.5,0 2.3,2.4 2.3,6.2 0,8.5 z"
               fill="#000000"
               fill-rule="nonzero"
               fill-opacity="1"
               id="path39536"
               style="fill:#ffffff" />
            <path
               d="m 620.9,378.2 c -1.6,-1.6 -1.4,-4.3 -4.7,-1 -3.3,3.3 -8.2,10.8 -6.7,12.4 1.6,1.6 9.1,-3.4 12.4,-6.7 3.3,-3.4 0.6,-3.2 -1,-4.7 z"
               fill="#000000"
               fill-rule="nonzero"
               fill-opacity="1"
               id="path39538"
               style="fill:#ffffff" />
          </g>
        </g>
        <g
           style="overflow:hidden;fill:#ffffff"
           id="g39630"
           transform="matrix(-0.45916068,0.38964461,-0.38964461,-0.45916068,201.65744,77.744916)">
          <g
             clip-path="url(#clip0-3)"
             transform="translate(-686.80296,-208.18839)"
             id="g39618"
             style="fill:#ffffff">
            <path
               d="m 738.1,248.6 c 0.9,-0.8 1.2,-2 0.8,-3.1 -0.4,-1.1 -1.4,-1.8 -2.6,-1.8 h -9.2 c -1.2,0 -2.2,-0.8 -2.6,-1.9 l -2.9,-8.9 c -0.4,-1.1 -1.4,-1.9 -2.6,-1.9 -1.2,0 -2.2,0.8 -2.6,1.9 l -2.9,8.9 c -0.4,1.1 -1.4,1.9 -2.6,1.9 h -9.2 c -1.1,0 -2.2,0.7 -2.6,1.8 -0.4,1.1 -0.1,2.3 0.8,3.1 l 3.2,2.9 4.1,3.6 c 0.4,0.4 0.7,0.8 0.8,1.3 0.1,0.5 0.1,1.1 0,1.6 l -2.8,9.4 c -0.4,1.1 0,2.3 1,3 0.9,0.7 2.2,0.7 3.2,0.1 l 8,-5.6 c 0.9,-0.7 2.2,-0.7 3.1,0 l 8,5.6 c 1,0.7 2.2,0.6 3.2,-0.1 0.9,-0.7 1.3,-1.9 1,-3 L 730,258 c -0.3,-1 0,-2.2 0.8,-2.9 z"
               fill="#000000"
               fill-rule="nonzero"
               fill-opacity="1"
               id="path39612"
               style="fill:#ffffff" />
            <path
               d="m 772.2,263.1 c 0.7,-0.6 0.9,-1.6 0.6,-2.4 -0.3,-0.9 -1.1,-1.4 -2,-1.5 h -7.3 c -0.9,0 -1.8,-0.6 -2.1,-1.5 l -2.3,-7.2 c -0.3,-0.9 -1.1,-1.5 -2.1,-1.5 -0.9,0 -1.8,0.6 -2.1,1.5 l -2.3,7.2 c -0.3,0.9 -1.1,1.5 -2.1,1.5 h -7.3 c -0.9,0 -1.7,0.6 -2,1.5 -0.3,0.9 -0.1,1.8 0.6,2.4 l 2.6,2.3 3.3,2.9 c 0.3,0.3 0.5,0.7 0.7,1.1 0.1,0.4 0.1,0.8 0,1.3 l -2.4,7.4 c -0.3,0.9 0,1.9 0.8,2.4 0.8,0.6 1.8,0.6 2.5,0 l 6.4,-4.5 c 0.7,-0.5 1.7,-0.5 2.5,0 l 6.4,4.5 c 0.8,0.6 1.8,0.6 2.6,0 0.8,-0.6 1.1,-1.6 0.8,-2.5 l -2.2,-7.5 c -0.2,-0.8 0,-1.7 0.7,-2.3 z"
               fill="#000000"
               fill-rule="nonzero"
               fill-opacity="1"
               id="path39614"
               style="fill:#ffffff" />
            <path
               d="m 744.4,291.6 c 0.5,-0.5 0.7,-1.2 0.5,-1.8 -0.2,-0.6 -0.9,-1.1 -1.5,-1.1 h -5.5 c -0.7,0 -1.3,-0.5 -1.5,-1.1 l -1.8,-5.4 c -0.3,-0.7 -0.9,-1.2 -1.6,-1.2 -0.7,0 -1.3,0.5 -1.6,1.1 l -1.8,5.4 c -0.2,0.7 -0.8,1.1 -1.5,1.1 h -5.5 c -0.7,0 -1.3,0.4 -1.5,1.1 -0.2,0.6 0,1.4 0.5,1.8 l 1.9,1.7 2.4,2.2 c 0.2,0.2 0.4,0.5 0.5,0.8 0.1,0.3 0.1,0.6 0,0.9 l -1.7,5.7 c -0.2,0.7 0,1.4 0.6,1.8 0.6,0.4 1.3,0.4 1.9,0 l 4.8,-3.4 c 0.6,-0.4 1.3,-0.4 1.9,0 l 4.8,3.4 c 0.6,0.4 1.3,0.4 1.9,0 0.6,-0.4 0.8,-1.2 0.6,-1.8 l -1.7,-5.7 c -0.2,-0.6 0,-1.3 0.5,-1.7 z"
               fill="#000000"
               fill-rule="nonzero"
               fill-opacity="1"
               id="path39616"
               style="fill:#ffffff" />
          </g>
        </g>
      </g>
    </g>
    <text
       xml:space="preserve"
       style="font-style:normal;font-variant:normal;font-weight:bold;font-stretch:normal;font-size:18.4311px;line-height:1.25;font-family:'Open Sans';-inkscape-font-specification:'Open Sans, Bold';font-variant-ligatures:normal;font-variant-caps:normal;font-variant-numeric:normal;font-variant-east-asian:normal;fill:#ffffff;fill-opacity:1;stroke:none;stroke-width:0.460777"
       id="text1011-6-4-13-0-4-8"
       x="322.27311"
       y="758.95815" />
  </g>
</svg>
