<?xml version="1.0" encoding="UTF-8" standalone="no"?>
<svg
   xmlns:dc="http://purl.org/dc/elements/1.1/"
   xmlns:cc="http://creativecommons.org/ns#"
   xmlns:rdf="http://www.w3.org/1999/02/22-rdf-syntax-ns#"
   xmlns:svg="http://www.w3.org/2000/svg"
   xmlns="http://www.w3.org/2000/svg"
   xmlns:xlink="http://www.w3.org/1999/xlink"
   xmlns:sodipodi="http://sodipodi.sourceforge.net/DTD/sodipodi-0.dtd"
   xmlns:inkscape="http://www.inkscape.org/namespaces/inkscape"
   sodipodi:docname="loscon21-logo.svg"
   inkscape:version="1.0.2 (e86c870879, 2021-01-15, custom)"
   id="svg8"
   version="1.1"
   viewBox="0 0 264.58333 264.58334"
   height="1000"
   width="1000"
   inkscape:export-filename="C:\Users\SimonDückert\OneDrive - Cogneon GmbH\Projekte\loscon21\Grafiken\loscon21-logo.png"
   inkscape:export-xdpi="76.800003"
   inkscape:export-ydpi="76.800003">
  <defs
     id="defs2" />
  <sodipodi:namedview
     inkscape:pagecheckerboard="true"
     inkscape:window-maximized="1"
     inkscape:window-y="-8"
     inkscape:window-x="-8"
     inkscape:window-height="1387"
     inkscape:window-width="2560"
     units="px"
     showgrid="false"
     inkscape:document-rotation="0"
     inkscape:current-layer="g1190"
     inkscape:document-units="mm"
     inkscape:cy="490.042"
     inkscape:cx="503.06948"
     inkscape:zoom="1.0022865"
     inkscape:pageshadow="2"
     inkscape:pageopacity="0.0"
     borderopacity="1.0"
     bordercolor="#666666"
     pagecolor="#ffffff"
     id="base"
     showguides="true"
     inkscape:guide-bbox="true"
     inkscape:snap-grids="true"
     inkscape:snap-to-guides="true">
    <sodipodi:guide
       id="guide1843"
       orientation="0,-1"
       position="290.47194,-202.93818" />
  </sodipodi:namedview>
  <metadata
     id="metadata5">
    <rdf:RDF>
      <cc:Work
         rdf:about="">
        <dc:format>image/svg+xml</dc:format>
        <dc:type
           rdf:resource="http://purl.org/dc/dcmitype/StillImage" />
        <dc:title />
      </cc:Work>
    </rdf:RDF>
  </metadata>
  <g
     id="layer1"
     inkscape:groupmode="layer"
     inkscape:label="Ebene 1">
    <g
       id="g1190">
      <circle
         r="128.32292"
         style="fill:#ff6600;fill-opacity:1;stroke:none;stroke-width:4.05229;stroke-miterlimit:4;stroke-dasharray:none"
         id="path10"
         cx="132.29167"
         cy="132.29167" />
      <circle
         r="94.898598"
         cy="132.29167"
         cx="132.29167"
         id="path10-8"
         style="fill:#000000;fill-opacity:1;stroke:none;stroke-width:4.25979;stroke-miterlimit:4;stroke-dasharray:none;stroke-opacity:1" />
      <g
         id="g941"
         transform="matrix(0.914124,0,0,0.914124,78.402315,176.11078)"
         style="fill:#ffffff;stroke-width:1.04451">
        <text
           id="text817"
           y="28.991444"
           x="10.278968"
           style="font-style:normal;font-weight:normal;font-size:31.6992px;line-height:1.25;font-family:sans-serif;letter-spacing:0px;word-spacing:0px;fill:#ffffff;fill-opacity:1;stroke:none;stroke-width:0.827752"
           xml:space="preserve"><tspan
             style="font-style:normal;font-variant:normal;font-weight:300;font-stretch:normal;font-size:31.6992px;font-family:'Open Sans';-inkscape-font-specification:'Open Sans, Light';font-variant-ligatures:normal;font-variant-caps:normal;font-variant-numeric:normal;font-feature-settings:normal;text-align:start;writing-mode:lr-tb;text-anchor:start;fill:#ffffff;stroke-width:0.827752"
             y="28.991444"
             x="10.278968"
             id="tspan815"
             sodipodi:role="line">lernOS</tspan></text>
        <rect
           ry="0.73115528"
           rx="0.73115528"
           y="4.9074588"
           x="4.5344229"
           height="4.8642378"
           width="4.8642378"
           id="rect834"
           style="opacity:1;fill:#ffffff;fill-opacity:1;stroke:#ffffff;stroke-width:0;stroke-linejoin:round;stroke-miterlimit:4;stroke-dasharray:none;stroke-opacity:1" />
        <rect
           ry="0.73115528"
           rx="0.73115528"
           y="14.672123"
           x="4.5578423"
           height="4.8642378"
           width="4.8642378"
           id="rect834-1"
           style="opacity:1;fill:#ffffff;fill-opacity:1;stroke:#ffffff;stroke-width:0;stroke-linejoin:round;stroke-miterlimit:4;stroke-dasharray:none;stroke-opacity:1" />
        <rect
           ry="0.73115528"
           rx="0.73115528"
           y="24.436771"
           x="4.491025"
           height="4.8642378"
           width="4.8642378"
           id="rect834-1-8"
           style="opacity:1;fill:#ffffff;fill-opacity:1;stroke:#ffffff;stroke-width:0;stroke-linejoin:round;stroke-miterlimit:4;stroke-dasharray:none;stroke-opacity:1" />
        <g
           style="fill:#ffffff;stroke-width:3.50067"
           transform="matrix(0.07899893,0,0,0.07889048,108.38482,4.8829219)"
           id="g895">
          <path
             style="fill:#ffffff;stroke-width:3.50067"
             inkscape:connector-curvature="0"
             d="M 31.957,0.311 C 23.275,0.311 15.635,3.524 9.731,9.514 3.653,15.678 0.354,23.666 0.354,32 c 0,8.422 3.212,16.236 9.29,22.313 6.078,6.078 13.978,9.377 22.313,9.377 8.334,0 16.409,-3.299 22.66,-9.463 C 60.521,48.41 63.646,40.683 63.646,32 63.646,23.405 60.521,15.592 54.53,9.601 48.453,3.523 40.639,0.311 31.957,0.311 Z m 0.086,5.73 c 7.12,0 13.458,2.691 18.406,7.641 4.862,4.861 7.466,11.286 7.466,18.318 0,7.119 -2.518,13.371 -7.379,18.146 -5.123,5.035 -11.721,7.727 -18.493,7.727 -6.858,0 -13.283,-2.691 -18.232,-7.641 C 8.862,45.283 6.084,38.772 6.084,32 6.084,25.142 8.862,18.631 13.811,13.594 18.673,8.646 24.924,6.041 32.043,6.041 Z"
             id="path879" />
          <path
             style="fill:#ffffff;stroke-width:3.50067"
             inkscape:connector-curvature="0"
             id="c"
             d="m 31.635,26.734 c -1.79,-3.264 -4.844,-4.563 -8.389,-4.563 -5.16,0 -9.267,3.65 -9.267,9.828 0,6.283 3.861,9.829 9.442,9.829 3.581,0 6.635,-1.966 8.319,-4.949 l -3.931,-2.001 c -0.878,2.105 -2.212,2.738 -3.896,2.738 -2.914,0 -4.248,-2.422 -4.248,-5.617 0,-3.193 1.124,-5.616 4.248,-5.616 0.842,0 2.527,0.456 3.51,2.563 z" />
          <use
             style="fill:#ffffff;stroke-width:3.50067"
             height="100%"
             width="100%"
             y="0"
             x="0"
             xlink:href="#c"
             transform="translate(18.281)"
             id="use882" />
        </g>
      </g>
      <text
         id="text1011"
         y="62.997368"
         x="93.08889"
         style="font-style:normal;font-variant:normal;font-weight:normal;font-stretch:normal;font-size:18.4311px;line-height:1.25;font-family:'Open Sans';-inkscape-font-specification:'Open Sans, Normal';font-variant-ligatures:normal;font-variant-caps:normal;font-variant-numeric:normal;font-variant-east-asian:normal;fill:#000000;fill-opacity:1;stroke:none;stroke-width:0.460778"
         xml:space="preserve"><tspan
           style="font-style:normal;font-variant:normal;font-weight:normal;font-stretch:normal;font-size:18.4311px;font-family:'Open Sans';-inkscape-font-specification:'Open Sans, Normal';font-variant-ligatures:normal;font-variant-caps:normal;font-variant-numeric:normal;font-variant-east-asian:normal;fill:#ffffff;stroke-width:0.460778"
           y="62.997368"
           x="93.08889"
           id="tspan1009"
           sodipodi:role="line">Agil trifft</tspan></text>
      <text
         xml:space="preserve"
         style="font-style:normal;font-variant:normal;font-weight:normal;font-stretch:normal;font-size:25.3977px;line-height:1.25;font-family:'Open Sans';-inkscape-font-specification:'Open Sans, Normal';font-variant-ligatures:normal;font-variant-caps:normal;font-variant-numeric:normal;font-variant-east-asian:normal;fill:#000000;fill-opacity:1;stroke:none;stroke-width:0.634943"
         x="55.05275"
         y="105.09924"
         id="text1011-4"><tspan
           sodipodi:role="line"
           id="tspan1009-9"
           x="55.05275"
           y="105.09924"
           style="font-style:normal;font-variant:normal;font-weight:normal;font-stretch:normal;font-size:25.3977px;font-family:'Open Sans';-inkscape-font-specification:'Open Sans, Normal';font-variant-ligatures:normal;font-variant-caps:normal;font-variant-numeric:normal;font-variant-east-asian:normal;fill:#ffffff;stroke-width:0.634943">Organisation</tspan></text>
      <text
         xml:space="preserve"
         style="font-style:normal;font-variant:normal;font-weight:bold;font-stretch:normal;font-size:18.4311px;line-height:1.25;font-family:'Open Sans';-inkscape-font-specification:'Open Sans, Bold';font-variant-ligatures:normal;font-variant-caps:normal;font-variant-numeric:normal;font-variant-east-asian:normal;fill:#ffffff;fill-opacity:1;stroke:none;stroke-width:0.460777"
         id="text1011-6"><textPath
           id="textPath992"
           xlink:href="#path988">   lernOScon 2021, #loscon21</textPath></text>
      <text
         id="text1011-6-4"
         style="font-style:normal;font-variant:normal;font-weight:bold;font-stretch:normal;font-size:18.4311px;line-height:1.25;font-family:'Open Sans';-inkscape-font-specification:'Open Sans, Bold';font-variant-ligatures:normal;font-variant-caps:normal;font-variant-numeric:normal;font-variant-east-asian:normal;fill:#000000;fill-opacity:1;stroke:none;stroke-width:0.460777"
         xml:space="preserve"><textPath
           style="font-style:normal;font-variant:normal;font-weight:bold;font-stretch:normal;font-size:18.3444px;font-family:'Open Sans';-inkscape-font-specification:'Open Sans, Bold';font-variant-ligatures:normal;font-variant-caps:normal;font-variant-numeric:normal;font-variant-east-asian:normal;fill:#ffffff"
           id="textPath999"
           xlink:href="#path997">24. - 25. Juni 2021, Online</textPath></text>
      <ellipse
         ry="103.57978"
         rx="103.55525"
         transform="matrix(-0.97078151,-0.23996511,0.23977504,-0.97082848,0,0)"
         cy="-96.680923"
         cx="-160.15276"
         id="path988"
         style="fill:none;stroke:none;stroke-width:4.18074" />
      <circle
         transform="matrix(-0.77811803,0.62811808,0.62811808,0.77811803,0,0)"
         r="117.38628"
         cy="186.03331"
         cx="-19.84375"
         id="path997"
         style="fill:none;stroke:none;stroke-width:1.506;stroke-miterlimit:4;stroke-dasharray:none" />
      <path
         transform="matrix(1.6477419,-0.076611,0.076611,1.6477419,-235.10597,-42.236027)"
         inkscape:transform-center-y="-1.1877456"
         inkscape:transform-center-x="0.049363904"
         inkscape:randomized="0"
         inkscape:rounded="0"
         inkscape:flatsided="false"
         sodipodi:arg2="1.6768001"
         sodipodi:arg1="0.97658262"
         sodipodi:r2="2.5702579"
         sodipodi:r1="5.8891869"
         sodipodi:cy="113.49103"
         sodipodi:cx="151.20462"
         sodipodi:sides="5"
         id="path860-8-0-6-6-5-3"
         style="fill:#ffffff;fill-opacity:1;stroke:none;stroke-width:0.937555;stroke-miterlimit:4;stroke-dasharray:none;stroke-dashoffset:0;stroke-opacity:1"
         sodipodi:type="star"
         d="m 154.50173,118.37074 -3.56906,-2.32388 -3.35007,2.08782 1.10724,-4.11249 -3.02086,-2.54095 4.25337,-0.21777 1.48308,-3.6582 1.52148,3.97789 3.93746,0.28005 -3.31305,2.67625 z" />
      <path
         transform="matrix(1.6477419,-0.076611,0.076611,1.6477419,-15.175889,-42.236027)"
         inkscape:transform-center-y="-1.1877456"
         inkscape:transform-center-x="0.049363904"
         inkscape:randomized="0"
         inkscape:rounded="0"
         inkscape:flatsided="false"
         sodipodi:arg2="1.6768001"
         sodipodi:arg1="0.97658262"
         sodipodi:r2="2.5702579"
         sodipodi:r1="5.8891869"
         sodipodi:cy="113.49103"
         sodipodi:cx="151.20462"
         sodipodi:sides="5"
         id="path860-8-0-6-6-5-3-8"
         style="fill:#ffffff;fill-opacity:1;stroke:none;stroke-width:0.937555;stroke-miterlimit:4;stroke-dasharray:none;stroke-dashoffset:0;stroke-opacity:1"
         sodipodi:type="star"
         d="m 154.50173,118.37074 -3.56906,-2.32388 -3.35007,2.08782 1.10724,-4.11249 -3.02086,-2.54095 4.25337,-0.21777 1.48308,-3.6582 1.52148,3.97789 3.93746,0.28005 -3.31305,2.67625 z" />
      <text
         xml:space="preserve"
         style="font-style:normal;font-variant:normal;font-weight:normal;font-stretch:normal;font-size:25.3977px;line-height:1.25;font-family:'Open Sans';-inkscape-font-specification:'Open Sans, Normal';font-variant-ligatures:normal;font-variant-caps:normal;font-variant-numeric:normal;font-variant-east-asian:normal;fill:#000000;fill-opacity:1;stroke:none;stroke-width:0.634943"
         x="78.548111"
         y="83.668625"
         id="text1011-4-0"><tspan
           sodipodi:role="line"
           id="tspan1009-9-8"
           x="78.548111"
           y="83.668625"
           style="font-style:normal;font-variant:normal;font-weight:normal;font-stretch:normal;font-size:25.3977px;font-family:'Open Sans';-inkscape-font-specification:'Open Sans, Normal';font-variant-ligatures:normal;font-variant-caps:normal;font-variant-numeric:normal;font-variant-east-asian:normal;fill:#ffffff;stroke-width:0.634943">Lernende</tspan></text>
      <g
         style="overflow:hidden"
         id="g55"
         transform="matrix(0.85762525,0,0,0.85762525,90.583363,103.18679)">
        <path
           d="m 82.9,39.1 c -0.3,0 -0.6,0 -0.9,0 l -2.6,-7 c 6,-3.4 8.1,-11 4.8,-17 -3.4,-6 -11,-8.1 -17,-4.8 -2.9,1.6 -5.1,4.4 -5.9,7.6 l -9.3,-1 c -0.7,-4.4 -4.8,-7.5 -9.2,-6.8 -4,0.6 -6.9,4 -6.9,8 0,1.4 0.4,2.8 1.1,4.1 l -11.2,11 c -2.1,-1.6 -4.7,-2.5 -7.4,-2.5 -6.9,0 -12.5,5.6 -12.5,12.5 0,6.9 5.6,12.5 12.5,12.5 l 2.5,15 c -4.1,1.8 -6,6.6 -4.2,10.7 1.8,4.1 6.6,6 10.7,4.2 3.8,-1.6 5.7,-5.8 4.6,-9.8 l 8.8,-4.6 c 5.7,6.3 15.5,6.8 21.9,1.1 3.2,-2.9 5.1,-7.1 5.1,-11.4 0,-1.1 -0.1,-2.3 -0.4,-3.4 l 9.7,-5 c 3,3.4 8.1,3.7 11.5,0.7 3.4,-3 3.7,-8.1 0.7,-11.5 -1.9,-1.6 -4.1,-2.6 -6.4,-2.6 z m 0,3 c 1.3,0 2.3,1 2.3,2.3 0,1.3 -1,2.3 -2.3,2.3 -1.3,0 -2.3,-1 -2.3,-2.3 0,0 0,0 0,0 0,-1.3 1,-2.3 2.3,-2.3 z M 73.3,13.6 c 1.9,0 3.5,1.6 3.5,3.5 0,1.9 -1.6,3.5 -3.5,3.5 -1.9,0 -3.5,-1.6 -3.5,-3.5 0,0 0,0 0,0 0,-1.9 1.5,-3.5 3.5,-3.5 z M 66.2,25 c 0,-0.5 0.3,-1.1 0.7,-1.4 1,-0.7 2.2,-1.3 3.4,-1.6 0.9,-0.3 1.9,-0.4 2.9,-0.4 1,0 2,0.2 2.9,0.4 1.2,0.3 2.4,0.9 3.4,1.7 0.4,0.3 0.7,0.9 0.7,1.4 v 2.7 h -14 z M 43.9,13 c 1.3,0 2.3,1 2.3,2.3 0,1.3 -1,2.3 -2.3,2.3 -1.3,0 -2.3,-1 -2.3,-2.3 0,0 0,0 0,0 0,-1.2 1,-2.3 2.3,-2.3 z m -4.7,7.5 c 0,-0.4 0.2,-0.7 0.5,-0.9 0.7,-0.5 1.5,-0.8 2.3,-1 0.6,-0.2 1.3,-0.3 1.9,-0.3 0.6,0 1.3,0.1 1.9,0.3 0.8,0.2 1.5,0.6 2.2,1.1 0.3,0.2 0.5,0.6 0.5,0.9 v 1.8 h -9.2 v -1.9 z m -21,15.1 c 1.9,0 3.5,1.6 3.5,3.5 0,1.9 -1.6,3.5 -3.5,3.5 -1.9,0 -3.5,-1.6 -3.5,-3.5 0,0 0,0 0,0 0.1,-1.9 1.6,-3.5 3.5,-3.5 z m -7,14.1 V 47 c 0,-0.5 0.3,-1.1 0.7,-1.4 1,-0.7 2.2,-1.3 3.4,-1.6 0.9,-0.3 1.9,-0.4 2.9,-0.4 1,0 2,0.2 2.9,0.4 1.2,0.3 2.4,0.9 3.4,1.7 0.4,0.3 0.7,0.9 0.7,1.4 v 2.7 z m 17.3,32.6 h -9.3 v -1.8 c 0,-0.4 0.2,-0.7 0.5,-0.9 0.7,-0.5 1.5,-0.9 2.3,-1.1 0.6,-0.2 1.3,-0.3 1.9,-0.3 0.6,0 1.3,0.1 1.9,0.3 0.8,0.2 1.5,0.6 2.2,1.1 0.3,0.2 0.5,0.6 0.5,0.9 z m -7,-7 c 0,-1.3 1,-2.3 2.3,-2.3 1.3,0 2.3,1 2.3,2.3 0,1.3 -1,2.3 -2.3,2.3 -1.2,0.1 -2.2,-1 -2.3,-2.3 z m 8,-2.8 c -1.3,-1.3 -3.1,-2.1 -4.9,-2.3 l -2.5,-15 c 2.4,-0.8 4.5,-2.3 6,-4.3 l 9.3,4.9 c -1.5,4 -1.2,8.5 0.8,12.3 z m 9.8,-20.4 -9.2,-4.8 c 0.4,-1.3 0.6,-2.6 0.6,-4 0,-2.6 -0.8,-5.1 -2.3,-7.2 L 39.6,25.2 c 3.8,2.3 8.8,1.2 11.1,-2.6 0.3,-0.5 0.5,-1 0.7,-1.5 l 9.3,1 c 0.2,3.6 2,7 4.9,9.2 L 57.4,46.6 C 50.9,44 43.4,46.3 39.3,52.1 Z m 17,3.7 c 0,2.4 -2,4.3 -4.4,4.3 -2.4,0 -4.3,-1.9 -4.3,-4.3 0,-2.4 1.9,-4.3 4.3,-4.3 0,0 0,0 0.1,0 2.4,0 4.3,1.9 4.3,4.3 z m 4.3,13.1 H 43.3 v -3.3 c 0,-0.7 0.3,-1.3 0.9,-1.7 1.3,-0.9 2.7,-1.6 4.2,-2.1 1.2,-0.3 2.4,-0.5 3.6,-0.5 1.2,0 2.4,0.2 3.6,0.5 1.5,0.4 3,1.1 4.2,2.1 0.5,0.4 0.9,1.1 0.9,1.7 z M 74.8,47.3 c 0,0.6 0.1,1.2 0.3,1.8 l -9.2,4.8 c -1.1,-2.2 -2.8,-4 -4.8,-5.4 l 8.2,-15.3 c 1.3,0.5 2.7,0.7 4.1,0.7 0.8,0 1.6,-0.1 2.4,-0.2 l 2.6,7 c -2.4,1.4 -3.7,3.9 -3.6,6.6 z m 12.7,4 h -9.3 v -1.8 c 0,-0.4 0.2,-0.7 0.5,-0.9 0.7,-0.5 1.5,-0.9 2.3,-1.1 0.6,-0.2 1.3,-0.3 1.9,-0.3 0.6,0 1.3,0.1 1.9,0.3 0.8,0.2 1.5,0.6 2.2,1.1 0.3,0.2 0.5,0.6 0.5,0.9 z"
           fill="#ffffff"
           id="path45" />
      </g>
    </g>
    <text
       xml:space="preserve"
       style="font-style:normal;font-variant:normal;font-weight:bold;font-stretch:normal;font-size:18.4311px;line-height:1.25;font-family:'Open Sans';-inkscape-font-specification:'Open Sans, Bold';font-variant-ligatures:normal;font-variant-caps:normal;font-variant-numeric:normal;font-variant-east-asian:normal;fill:#ffffff;fill-opacity:1;stroke:none;stroke-width:0.460777"
       id="text1011-6-4-13-0-4-8"
       x="322.27311"
       y="758.95815" />
  </g>
</svg>
