<?xml version="1.0" encoding="UTF-8" standalone="no"?>
<svg
   xmlns:dc="http://purl.org/dc/elements/1.1/"
   xmlns:cc="http://creativecommons.org/ns#"
   xmlns:rdf="http://www.w3.org/1999/02/22-rdf-syntax-ns#"
   xmlns:svg="http://www.w3.org/2000/svg"
   xmlns="http://www.w3.org/2000/svg"
   xmlns:sodipodi="http://sodipodi.sourceforge.net/DTD/sodipodi-0.dtd"
   xmlns:inkscape="http://www.inkscape.org/namespaces/inkscape"
   viewBox="0 0 561.25 131.25"
   height="131.25"
   width="561.25"
   xml:space="preserve"
   version="1.1"
   id="svg2"
   sodipodi:docname="Cogneon-Logo.svg"
   inkscape:version="0.92.1 r15371"><sodipodi:namedview
     pagecolor="#ffffff"
     bordercolor="#666666"
     borderopacity="1"
     objecttolerance="10"
     gridtolerance="10"
     guidetolerance="10"
     inkscape:pageopacity="0"
     inkscape:pageshadow="2"
     inkscape:window-width="1920"
     inkscape:window-height="1013"
     id="namedview4520"
     showgrid="false"
     inkscape:zoom="2.2325167"
     inkscape:cx="346.46166"
     inkscape:cy="65.625"
     inkscape:window-x="-9"
     inkscape:window-y="-9"
     inkscape:window-maximized="1"
     inkscape:current-layer="g12" /><metadata
     id="metadata8"><rdf:RDF><cc:Work
         rdf:about=""><dc:format>image/svg+xml</dc:format><dc:type
           rdf:resource="http://purl.org/dc/dcmitype/StillImage" /></cc:Work></rdf:RDF></metadata><defs
     id="defs6" /><g
     id="g12"
     transform="matrix(0.125,0,0,-0.125,0,131.25)"><path
       inkscape:connector-curvature="0"
       d="m 505.746,630.688 c -9.98,-21.622 -49.902,-103.965 -148.043,-103.965 -102.305,0 -165.515,89.824 -165.515,182.98 0,87.332 59.054,179.652 164.683,179.652 84.836,0 131.41,-61.55 148.875,-107.292 H 670.43 c -16.637,96.48 -119.77,245.357 -312.727,245.357 -201.277,0 -322.7108,-161.354 -322.7108,-318.549 0,-166.344 131.4138,-320.215 324.3708,-320.215 148.879,0 275.301,96.485 311.067,242.032 H 505.746"
       style="fill:#231f20;fill-opacity:1;fill-rule:nonzero;stroke:none"
       id="path14" /><path
       inkscape:connector-curvature="0"
       d="m 1722.16,750.457 v -125.59 h 183.81 c -16.63,-59.883 -69.03,-98.976 -147.21,-98.976 -77.35,0 -168.84,55.726 -168.84,184.64 0,121.434 90.66,178.824 168.01,178.824 66.53,0 111.45,-36.597 135.57,-79.847 h 176.32 c -34.1,118.937 -160.52,217.912 -307.73,217.912 -181.32,0 -329.36,-133.076 -329.36,-316.889 0,-177.152 140.56,-322.703 326.86,-322.703 170.5,0 328.53,123.926 328.53,330.192 0,12.476 0,21.625 -0.83,32.437 h -365.13"
       style="fill:#231f20;fill-opacity:1;fill-rule:nonzero;stroke:none"
       id="path16" /><path
       inkscape:connector-curvature="0"
       d="m 2169.32,400.305 h 150.55 l -4.16,373.441 1.66,0.828 234.55,-374.269 h 136.4 v 615.465 h -150.54 l 6.65,-385.082 -1.66,-1.661 -237.88,386.743 H 2169.32 V 400.305"
       style="fill:#231f20;fill-opacity:1;fill-rule:nonzero;stroke:none"
       id="path18" /><path
       inkscape:connector-curvature="0"
       d="m 2800.51,400.305 h 341.84 v 138.062 h -191.3 v 105.629 h 185.47 v 138.067 h -185.47 v 95.648 h 191.3 V 1015.77 H 2800.51 V 400.305"
       style="fill:#231f20;fill-opacity:1;fill-rule:nonzero;stroke:none"
       id="path20" /><path
       inkscape:connector-curvature="0"
       d="m 3236.95,831.965 c -18.3,-44.914 -24.12,-90.656 -24.12,-131.41 0,-158.028 129.75,-311.899 323.54,-311.899 191.29,0 326.03,148.047 326.03,319.383 0,171.336 -135.57,319.381 -325.2,319.381 -172.16,0 -267.81,-115.611 -300.25,-195.455 z m 133.07,-122.262 c 0,86.5 59.06,179.652 168.01,179.652 113.11,0 167.18,-102.304 167.18,-182.148 0,-79.012 -54.07,-180.484 -165.51,-180.484 -105.63,0 -169.68,88.164 -169.68,182.98"
       style="fill:#231f20;fill-opacity:1;fill-rule:evenodd;stroke:none"
       id="path22" /><path
       inkscape:connector-curvature="0"
       d="m 3946.99,400.305 h 150.55 l -4.16,373.441 1.66,0.828 234.54,-374.269 h 136.41 v 615.465 h -150.54 l 6.65,-385.082 -1.67,-1.661 -237.87,386.743 H 3946.99 V 400.305"
       style="fill:#231f20;fill-opacity:1;fill-rule:nonzero;stroke:none"
       id="path24" /><path
       inkscape:connector-curvature="0"
       d="M 19.8203,305.605 H 4470.46"
       style="fill:none;stroke:#ff6600;stroke-width:29.33099937;stroke-linecap:butt;stroke-linejoin:miter;stroke-miterlimit:3.8636899;stroke-dasharray:none;stroke-opacity:1"
       id="path26" /><path
       inkscape:connector-curvature="0"
       d="m 1608.54,190.988 h -72.14 v -14.492 h 25.62 V 55.8672 h 20.93 V 176.496 h 25.59 v 14.492"
       style="fill:#231f20;fill-opacity:1;fill-rule:nonzero;stroke:none"
       id="path28" /><path
       inkscape:connector-curvature="0"
       d="M 1741.85,55.8672 V 124.18 c 0,12.488 -2.6,20.761 -7.62,26.504 -5.3,6 -13.72,8.859 -24.49,8.859 -7.08,0 -14.1,-1.754 -20.3,-4.531 -6.67,-2.883 -13.17,-6.989 -19.57,-11.699 h -0.53 v 51.105 h -19.82 V 55.8672 h 19.82 v 72.1598 c 5.12,5.016 12.34,10.043 17.87,12.766 5.33,2.57 10.99,4.023 16.28,4.023 7.14,0 11.51,-2.378 14.29,-5.89 3.55,-4.664 4.25,-11.985 4.25,-19.942 V 55.8672 h 19.82"
       style="fill:#231f20;fill-opacity:1;fill-rule:nonzero;stroke:none"
       id="path30" /><path
       inkscape:connector-curvature="0"
       d="m 1893.57,103.246 c 0,17.352 -5.16,32.418 -15.34,42.617 -9.68,9.285 -21.89,13.68 -36.5,13.68 -16.7,0 -29.4,-4.676 -38.48,-12.703 -10.16,-9.067 -15.26,-22.844 -15.26,-39.508 0,-18.6406 5.04,-32.0586 14.63,-40.789 9.65,-9.0235 23.58,-12.9649 39.33,-12.9649 15.79,0 26.78,3.7969 35.01,9.0782 7.95,5.2617 13.28,11.5625 16.34,17.289 l -21,2.0586 c -6.74,-11.3476 -16.59,-17.3125 -30.48,-17.3125 -15.81,0 -31.83,9.7578 -33.49,38.5546 z m -85.28,10.024 c 1.84,23.726 15.78,35.164 33.2,35.164 16.45,0 29.06,-13.817 31.54,-35.164 h -64.74"
       style="fill:#231f20;fill-opacity:1;fill-rule:evenodd;stroke:none"
       id="path32" /><path
       inkscape:connector-curvature="0"
       d="m 2040.04,121.875 c 0.21,11.547 0.27,21 0.27,33.66 v 35.453 h -21.13 V 55.8672 h 21.13 v 42.1406 l 16.7,21.2192 36.84,-63.3598 h 24.63 l -48.74,78.3558 41.63,56.765 h -24.24 l -24.25,-35.562 c -8.02,-12.719 -14.99,-21.821 -22.39,-33.551 h -0.45"
       style="fill:#231f20;fill-opacity:1;fill-rule:nonzero;stroke:none"
       id="path34" /><path
       inkscape:connector-curvature="0"
       d="m 2252.42,55.8672 v 68.2698 c 0,12.496 -2.6,20.773 -7.65,26.527 -5.3,6.008 -13.75,8.879 -24.56,8.879 -7.11,0 -14.15,-1.758 -20.37,-4.535 -6.7,-2.945 -13.27,-7.059 -19.7,-11.781 h -0.77 l 0.28,14.031 h -19.82 V 55.8672 h 19.82 v 72.1368 c 5.14,5.019 12.4,10.062 17.96,12.789 5.35,2.527 10.94,4.035 16.25,4.035 7.34,0 11.68,-2.496 14.47,-6.019 3.57,-4.668 4.27,-11.836 4.27,-19.793 V 55.8672 h 19.82"
       style="fill:#231f20;fill-opacity:1;fill-rule:nonzero;stroke:none"
       id="path36" /><path
       inkscape:connector-curvature="0"
       d="m 2409.85,106.516 c 0,35.769 -21.97,53.027 -55.64,53.027 -33.75,0 -55.73,-17.258 -55.73,-53.027 0,-32.0629 17.83,-52.9379 55.73,-52.9379 36.88,0 55.64,20.9453 55.64,52.7499 z m -55.64,-40.9066 c -20.98,0 -35.44,14.0508 -35.44,40.7386 0,28.691 16.95,40.785 35.44,40.785 18.41,0 35.34,-11.996 35.34,-40.785 0,-25.7933 -14.3,-40.7386 -35.15,-40.7386 h -0.19"
       style="fill:#231f20;fill-opacity:1;fill-rule:evenodd;stroke:none"
       id="path38" /><path
       inkscape:connector-curvature="0"
       d="m 2515.55,141.953 c 3.16,-15.652 6.23,-27.234 9.57,-42.5663 l 10.41,-43.5195 h 24.14 l 28.96,101.3908 h -19.48 l -10.72,-43.07 c -3.38,-13.954 -6.72,-27.895 -10.08,-44.3247 h -0.89 c -3.16,15.5156 -6.53,30.082 -9.87,43.9607 l -10.49,43.434 h -23.93 l -10.51,-43.43 c -3.37,-13.8475 -6.49,-27.7421 -9.84,-43.9647 h -0.88 c -3.21,16.2226 -6.73,31.2307 -10.04,43.6447 l -10.7,43.75 h -19.45 l 28.93,-101.3908 h 24.1 l 10.48,42.957 c 3.28,14.9488 6.35,26.8708 9.42,43.1288 h 0.87"
       style="fill:#231f20;fill-opacity:1;fill-rule:nonzero;stroke:none"
       id="path40" /><path
       inkscape:connector-curvature="0"
       d="m 2628.43,55.8672 h 19.8242 v 138.551 H 2628.43 Z"
       style="fill:#231f20;fill-opacity:1;fill-rule:nonzero;stroke:none"
       id="path42" /><path
       inkscape:connector-curvature="0"
       d="m 2800.03,103.246 c 0,17.352 -5.17,32.418 -15.35,42.617 -9.68,9.285 -21.88,13.68 -36.49,13.68 -16.71,0 -29.41,-4.676 -38.48,-12.703 -10.17,-9.067 -15.27,-22.844 -15.27,-39.508 0,-18.6406 5.04,-32.0586 14.63,-40.789 9.65,-9.0235 23.58,-12.9649 39.33,-12.9649 15.79,0 26.79,3.7969 35.02,9.0782 7.94,5.2617 13.27,11.5625 16.33,17.289 l -21,2.0586 c -6.74,-11.3476 -16.59,-17.3125 -30.47,-17.3125 -15.82,0 -31.83,9.7578 -33.5,38.5546 z m -85.29,10.024 c 1.84,23.726 15.78,35.164 33.2,35.164 16.45,0 29.06,-13.817 31.54,-35.164 h -64.74"
       style="fill:#231f20;fill-opacity:1;fill-rule:evenodd;stroke:none"
       id="path44" /><path
       inkscape:connector-curvature="0"
       d="m 2928.08,66.6133 -0.2,-10.7461 h 19.82 V 194.418 h -19.82 v -47.844 h -0.4 c -9.73,8.031 -21.84,12.969 -36.21,12.969 -26.82,0 -49.48,-18.5 -49.48,-52.969 0,-29.6599 15.93,-52.9959 50.35,-52.9959 18.37,0 28.91,8.8282 35.38,13.0352 z m -33.38,-0.207 c -20.86,0 -32.65,16.2109 -32.61,40.0237 0.03,24.183 11.71,40.285 32.75,40.285 12.65,0 23.73,-5.774 33.04,-14.922 V 81.8281 c -6.41,-6.6289 -16.49,-15.4218 -32.99,-15.4218 h -0.19"
       style="fill:#231f20;fill-opacity:1;fill-rule:evenodd;stroke:none"
       id="path46" /><path
       inkscape:connector-curvature="0"
       d="m 3086.62,147.512 h -0.51 c -8.35,7.531 -20,12.031 -33.93,12.031 -37.2,0 -54.52,-22.727 -54.52,-53.02 0,-33.8707 20.83,-52.9449 53.72,-52.9449 17.16,0 28.05,6.7852 34.67,12.2735 h 0.34 v -6.9961 c 0,-14.3203 -2.65,-23.668 -8.3,-30.5117 -6.05,-6.918 -15.63,-10.1133 -24.64,-10.1133 -8.54,0 -15.38,1.664 -20.36,4.539 -6.09,3.2696 -9.76,7.293 -12.1,11.9727 l -20.76,-2.875 c 6.29,-9.2695 14.32,-15.5352 22.4,-19.3555 9.93,-4.73436 20.59,-6.43357 31.31,-6.43357 17.35,0 31.41,5.08207 39.77,14.14847 8.61,9.6992 12.5,22.375 12.5,42.7031 v 94.3283 h -19.82 z m -68.66,-41.102 c 0,19.469 7.71,40.137 36.28,40.137 14.89,0 25.48,-6.32 32.15,-13.899 V 80.7344 c -7.94,-7.3946 -17.98,-14.1602 -32.95,-14.1602 -21.33,0 -35.48,15.586 -35.48,39.6488 v 0.187"
       style="fill:#231f20;fill-opacity:1;fill-rule:evenodd;stroke:none"
       id="path48" /><path
       inkscape:connector-curvature="0"
       d="m 3260.18,103.246 c 0,17.352 -5.17,32.418 -15.35,42.617 -9.68,9.285 -21.88,13.68 -36.49,13.68 -16.71,0 -29.41,-4.676 -38.48,-12.703 -10.17,-9.067 -15.27,-22.844 -15.27,-39.508 0,-18.6406 5.04,-32.0586 14.63,-40.789 9.65,-9.0235 23.58,-12.9649 39.33,-12.9649 15.79,0 26.79,3.7969 35.02,9.0782 7.95,5.2617 13.27,11.5625 16.33,17.289 l -21,2.0586 c -6.74,-11.3476 -16.59,-17.3125 -30.47,-17.3125 -15.82,0 -31.84,9.7578 -33.5,38.5546 z m -85.29,10.024 c 1.84,23.726 15.78,35.164 33.2,35.164 16.45,0 29.06,-13.817 31.54,-35.164 h -64.74"
       style="fill:#231f20;fill-opacity:1;fill-rule:evenodd;stroke:none"
       id="path50" /><path
       inkscape:connector-curvature="0"
       d="m 3488.2,95.332 c -4.44,-11.9609 -17.34,-28.4336 -39.27,-28.4336 -24.28,0 -46.8,15.7227 -46.8,56.3866 0,40.52 22.22,56.625 47.34,56.625 19.71,0 30.66,-10.926 36.47,-25.449 l 21.61,3.055 c -8.23,22.144 -28.87,36.14 -58,36.14 -18.92,0 -35.62,-5.898 -48.14,-17.129 -12.89,-11.859 -20.77,-29.632 -20.77,-52.75 0,-25.2223 8.12,-42.7379 21.09,-54.3395 11.74,-10.5781 29.16,-16.2383 47.33,-16.2383 28.98,0 51.77,17.4102 60.89,38.2266 l -21.75,3.9062"
       style="fill:#231f20;fill-opacity:1;fill-rule:nonzero;stroke:none"
       id="path52" /><path
       inkscape:connector-curvature="0"
       d="m 3664.11,106.516 c 0,35.769 -21.98,53.027 -55.65,53.027 -33.75,0 -55.72,-17.258 -55.72,-53.027 0,-32.0629 17.83,-52.9379 55.72,-52.9379 36.88,0 55.65,20.9453 55.65,52.7499 z m -55.65,-40.9066 c -20.98,0 -35.42,14.0508 -35.42,40.7386 0,28.691 16.94,40.785 35.42,40.785 18.42,0 35.36,-11.996 35.36,-40.785 0,-25.7933 -14.31,-40.7386 -35.16,-40.7386 h -0.2"
       style="fill:#231f20;fill-opacity:1;fill-rule:evenodd;stroke:none"
       id="path54" /><path
       inkscape:connector-curvature="0"
       d="m 3868.96,55.8672 v 68.9688 c 0,12.195 -2.61,20.691 -7.77,26.379 -5.05,5.496 -12.43,8.328 -22.33,8.328 -7.41,0 -13.9,-1.512 -20.5,-4.395 -6.36,-2.777 -12.61,-7.238 -19.51,-12.863 h -0.66 c -1.6,4.07 -4.36,8.871 -8.36,11.856 -4.53,3.351 -10.88,5.402 -19.39,5.402 -6.42,0 -13.2,-1.496 -19.23,-4.137 -6.07,-2.683 -12.32,-6.801 -19.08,-12.476 h -0.63 l 0.28,14.328 h -19.82 V 55.8672 h 19.82 v 71.6758 c 5.54,5.582 11.2,9.863 16.55,12.84 5.81,3.168 10.98,4.508 15.48,4.508 5.15,0 9.18,-1.723 12.05,-4.848 3.45,-4.043 4.69,-10.273 4.69,-18.641 V 55.8672 h 19.82 v 71.8598 c 5.85,5.793 11.47,9.921 16.67,12.738 5.53,2.914 10.66,4.426 15.03,4.426 6.11,0 10.18,-1.938 12.86,-5.317 3.34,-4.453 4.2,-11.668 4.2,-19.133 V 55.8672 h 19.83"
       style="fill:#231f20;fill-opacity:1;fill-rule:nonzero;stroke:none"
       id="path56" /><path
       inkscape:connector-curvature="0"
       d="m 3923.12,8.60156 h 19.82 V 66.0352 h 0.38 c 5.13,-3.9141 10.9,-7.2618 16.06,-9.1602 7.5,-2.8203 13.94,-3.2969 19.41,-3.2969 16.41,0 28.79,5.4375 37,14.0586 8.59,9.1406 13.13,22.4844 13.13,39.1053 0,17.598 -5.39,30.153 -13.39,38.699 -9.45,9.715 -21.58,14.102 -36.05,14.102 -8.32,0 -15,-1.512 -20.9,-3.781 -6.54,-2.66 -11.31,-6.258 -15.3,-9.485 h -0.57 l 0.23,10.981 h -19.82 z m 19.82,123.19544 c 4.79,5.113 10.24,9.004 15.57,11.367 6.25,2.715 12.15,3.547 17.46,3.547 10.36,0 18.82,-3.93 24.28,-10.652 5.43,-6.965 8.37,-16.993 8.37,-29.457 0,-14.4887 -3.4,-23.7973 -8.19,-29.6293 -6.26,-7.3789 -15.06,-10.5625 -24.32,-10.5625 -6.65,0 -12.72,1.4296 -17.73,3.6914 -5.23,2.3047 -10.51,5.8593 -15.44,11.1211 v 50.5743"
       style="fill:#231f20;fill-opacity:1;fill-rule:evenodd;stroke:none"
       id="path58" /><path
       inkscape:connector-curvature="0"
       d="m 4179.81,55.8672 v 1.1484 c -4.06,3.6289 -4.7,6.4571 -4.7,15.9805 v 48.0389 c 0,28.813 -15.71,38.508 -46.34,38.508 -31.49,0 -44.66,-13.145 -49.85,-26.855 l 20.95,-2.735 c 2.67,9.758 11.07,18.676 28.33,18.676 19.64,0 27.04,-8.168 27.04,-23.766 v -3.793 c -60.4,-4.98 -82.32,-15.531 -82.32,-38.7341 0,-16.5898 12.51,-28.7578 44.33,-28.7578 13.46,0 29.47,4.1563 38.39,12.6016 h 0.33 c 0.21,-4.2656 1.05,-7.4375 3.5,-10.3125 z m -24.52,21.3516 c -11.24,-10.3165 -26.67,-12.5821 -35.33,-12.5821 -20.17,0 -26.74,8.7422 -26.74,18.3672 0,16.957 18.88,24.3511 62.07,28.5431 V 77.2188"
       style="fill:#231f20;fill-opacity:1;fill-rule:evenodd;stroke:none"
       id="path60" /><path
       inkscape:connector-curvature="0"
       d="m 4325.63,55.8672 v 68.2698 c 0,12.496 -2.61,20.773 -7.65,26.527 -5.31,6.008 -13.76,8.879 -24.57,8.879 -7.11,0 -14.15,-1.758 -20.37,-4.535 -6.7,-2.945 -13.26,-7.059 -19.69,-11.781 h -0.78 l 0.29,14.031 h -19.83 V 55.8672 h 19.83 v 72.1368 c 5.14,5.019 12.39,10.062 17.95,12.789 5.36,2.527 10.94,4.035 16.26,4.035 7.34,0 11.68,-2.496 14.47,-6.019 3.56,-4.668 4.26,-11.836 4.26,-19.793 V 55.8672 h 19.83"
       style="fill:#231f20;fill-opacity:1;fill-rule:nonzero;stroke:none"
       id="path62" /><path
       inkscape:connector-curvature="0"
       d="m 4465.95,157.258 h -21.36 l -11.11,-38.117 c -3.74,-12.672 -7.82,-25.8285 -11.68,-40.6996 h -0.73 c -5.14,13.9258 -11.32,27.6096 -16.94,40.4296 l -16.43,38.387 h -23.27 l 48.12,-98.0666 -5.09,-17.9101 c -2.28,-6.8633 -5.03,-12.2383 -8.31,-16.0743 -3.9,-4.457 -8.75,-6.6679 -14.46,-6.6679 -3.92,0 -7.65,0.8242 -10.77,2.0273 -3.22,1.2617 -5.9,2.9688 -7.63,4.293 l -5.31,-12.5821 c 3.34,-1.7187 6.7,-3.12105 10.74,-4.26167 4.42,-1.23047 9.08,-1.89063 14.59,-1.89063 11.96,0 20.22,4.1602 26.18,9.7188 6.45,5.7226 11.54,15.9218 15.41,25.8593 l 38.05,115.5549"
       style="fill:#231f20;fill-opacity:1;fill-rule:nonzero;stroke:none"
       id="path64" /><path
       inkscape:connector-curvature="0"
       d="m 1091.59,889.953 c 93.12,-17.375 131.1,-109.183 131.1,-182.418 0,-73.601 -37.24,-166.64 -132.05,-181.836 l 1.71,-140.816 c 176.95,15.871 290.28,159.152 290.28,323.5 0,165.109 -113.35,308.967 -290.37,323.707 l -0.67,-142.137"
       style="fill:#ff6600;fill-opacity:1;fill-rule:nonzero;stroke:#ff6600"
       id="path66" /><path
       inkscape:connector-curvature="0"
       d="m 1091.59,889.953 c 93.12,-17.375 131.1,-109.183 131.1,-182.418 0,-73.601 -37.24,-166.64 -132.05,-181.836 l 1.71,-140.816 c 176.95,15.871 290.28,159.152 290.28,323.5 0,165.109 -113.35,308.967 -290.37,323.707 z"
       style="fill:#ff6600;stroke:#ff6600;stroke-width:26.43700027;stroke-linecap:butt;stroke-linejoin:miter;stroke-miterlimit:3.86370993;stroke-dasharray:none;stroke-opacity:1"
       id="path68" /><path
       inkscape:connector-curvature="0"
       d="M 1020.61,1032.57 C 860.57,1022.32 777.707,911.875 746.258,834.473 c -18.617,-45.7 -24.539,-92.243 -24.539,-133.707 0,-154.672 110.375,-305.43 295.191,-316.668 l -0.78,141.191 c -92.321,12.906 -134.474,96.133 -134.474,184.785 0,80.496 45.848,166.664 139.254,180.778 l -0.3,141.718"
       style="fill:#ff6600;fill-opacity:1;fill-rule:nonzero;stroke:#ff6600"
       id="path70" /><path
       inkscape:connector-curvature="0"
       d="M 1020.61,1032.57 C 860.57,1022.32 777.707,911.875 746.258,834.473 c -18.617,-45.7 -24.539,-92.243 -24.539,-133.707 0,-154.672 110.375,-305.43 295.191,-316.668 l -0.78,141.191 c -92.321,12.906 -134.474,96.133 -134.474,184.785 0,80.496 45.848,166.664 139.254,180.778 z"
       style="fill:#ff6600;stroke:#ff6600;stroke-width:26.43700027;stroke-linecap:butt;stroke-linejoin:miter;stroke-miterlimit:3.86370993;stroke-dasharray:none;stroke-opacity:1"
       id="path72" /></g></svg>