<?xml version="1.0" encoding="UTF-8" standalone="no"?>
<!-- Created with Inkscape (http://www.inkscape.org/) -->

<svg
   xmlns:dc="http://purl.org/dc/elements/1.1/"
   xmlns:cc="http://creativecommons.org/ns#"
   xmlns:rdf="http://www.w3.org/1999/02/22-rdf-syntax-ns#"
   xmlns:svg="http://www.w3.org/2000/svg"
   xmlns="http://www.w3.org/2000/svg"
   xmlns:sodipodi="http://sodipodi.sourceforge.net/DTD/sodipodi-0.dtd"
   xmlns:inkscape="http://www.inkscape.org/namespaces/inkscape"
   width="1280"
   height="720"
   viewBox="0 0 338.66666 190.50001"
   version="1.1"
   id="svg8"
   inkscape:version="0.92.3 (2405546, 2018-03-11)"
   sodipodi:docname="loscamp19-livestream-background.svg"
   inkscape:export-filename="C:\Users\SimonDückert\OneDrive - Cogneon GmbH\Desktop\2018_cogneon_lernos-camp-2019\Design\loscamp19-youtube-cover.png"
   inkscape:export-xdpi="96"
   inkscape:export-ydpi="96">
  <defs
     id="defs2" />
  <sodipodi:namedview
     id="base"
     pagecolor="#f9b400"
     bordercolor="#666666"
     borderopacity="1.0"
     inkscape:pageopacity="1"
     inkscape:pageshadow="2"
     inkscape:zoom="0.7"
     inkscape:cx="861.00254"
     inkscape:cy="367.97138"
     inkscape:document-units="mm"
     inkscape:current-layer="layer1"
     showgrid="false"
     units="px"
     inkscape:window-width="1920"
     inkscape:window-height="1013"
     inkscape:window-x="-9"
     inkscape:window-y="-9"
     inkscape:window-maximized="1"
     inkscape:pagecheckerboard="false"
     showborder="true"
     borderlayer="false" />
  <metadata
     id="metadata5">
    <rdf:RDF>
      <cc:Work
         rdf:about="">
        <dc:format>image/svg+xml</dc:format>
        <dc:type
           rdf:resource="http://purl.org/dc/dcmitype/StillImage" />
        <dc:title></dc:title>
      </cc:Work>
    </rdf:RDF>
  </metadata>
  <g
     inkscape:label="Layer 1"
     inkscape:groupmode="layer"
     id="layer1"
     transform="translate(0,-106.49998)">
    <text
       xml:space="preserve"
       style="font-style:normal;font-variant:normal;font-weight:600;font-stretch:normal;font-size:26.45833397px;line-height:1.25;font-family:'Open Sans';-inkscape-font-specification:'Open Sans, Semi-Bold';font-variant-ligatures:normal;font-variant-caps:normal;font-variant-numeric:normal;font-feature-settings:normal;text-align:start;letter-spacing:0px;word-spacing:0px;writing-mode:lr-tb;text-anchor:start;fill:#ffffff;fill-opacity:1;stroke:none;stroke-width:0.26458332"
       x="6.1425724"
       y="136.52846"
       id="text1018"><tspan
         sodipodi:role="line"
         x="6.1425724"
         y="136.52846"
         style="font-style:normal;font-variant:normal;font-weight:600;font-stretch:normal;font-size:26.45833397px;font-family:'Open Sans';-inkscape-font-specification:'Open Sans, Semi-Bold';font-variant-ligatures:normal;font-variant-caps:normal;font-variant-numeric:normal;font-feature-settings:normal;text-align:start;writing-mode:lr-tb;text-anchor:start;fill:#ffffff;stroke-width:0.26458332"
         id="tspan1022">#loscamp19</tspan></text>
    <rect
       style="opacity:1;fill:none;fill-opacity:1;stroke:#ffffff;stroke-width:1.80000007;stroke-linejoin:round;stroke-miterlimit:4;stroke-dasharray:none;stroke-opacity:1"
       id="rect1107"
       width="253.29192"
       height="141.68921"
       x="7.6497707"
       y="147.32378"
       rx="0.70000005"
       ry="0.70000017" />
    <path
       style="opacity:0.93000034;fill:none;fill-opacity:0.78947371;stroke:#000000;stroke-width:0.95011872;stroke-miterlimit:4;stroke-dasharray:none;stroke-opacity:1"
       id="path875"
       sodipodi:type="arc"
       sodipodi:cx="292.41968"
       sodipodi:cy="137.08168"
       sodipodi:rx="26.135799"
       sodipodi:ry="25.971207"
       sodipodi:start="3.5255651"
       sodipodi:end="5.9341195"
       d="m 268.18699,127.35269 a 26.135799,25.971207 0 0 1 24.68882,-16.23826 26.135799,25.971207 0 0 1 24.10349,17.08458"
       sodipodi:open="true" />
    <ellipse
       style="opacity:1;fill:#f9b400;fill-opacity:1;stroke:none;stroke-width:0.66499609;stroke-miterlimit:4;stroke-dasharray:none;stroke-opacity:1"
       id="path1317"
       cx="292.12808"
       cy="137.30945"
       rx="24.508272"
       ry="24.353872" />
    <path
       style="opacity:0.93000034;fill:none;fill-opacity:0.78947371;stroke:#000000;stroke-width:0.89267969;stroke-miterlimit:4;stroke-dasharray:none;stroke-opacity:1"
       id="path875-7"
       sodipodi:type="arc"
       sodipodi:cx="292.12674"
       sodipodi:cy="137.10135"
       sodipodi:rx="24.555773"
       sodipodi:ry="24.401131"
       sodipodi:start="3.5185838"
       sodipodi:end="5.9777527"
       d="m 269.29536,128.11869 a 24.555773,24.401131 0 0 1 23.70978,-15.40285 24.555773,24.401131 0 0 1 22.54086,17.04795"
       sodipodi:open="true" />
    <text
       xml:space="preserve"
       style="font-style:normal;font-weight:normal;font-size:24.04078484px;line-height:1.25;font-family:sans-serif;letter-spacing:0px;word-spacing:0px;fill:#000000;fill-opacity:1;stroke:none;stroke-width:1.28944874;stroke-opacity:1"
       x="249.87274"
       y="139.32698"
       id="text849-3-9-4-1"
       transform="scale(0.99847101,1.0015313)"><tspan
         sodipodi:role="line"
         id="tspan847-8-2-7-8"
         x="249.87274"
         y="139.32698"
         style="font-style:normal;font-variant:normal;font-weight:normal;font-stretch:normal;font-size:24.04078484px;font-family:'Aardvark Cafe';-inkscape-font-specification:'Aardvark Cafe, Normal';font-variant-ligatures:normal;font-variant-caps:normal;font-variant-numeric:normal;font-feature-settings:normal;text-align:start;writing-mode:lr-tb;text-anchor:start;fill:#000000;fill-opacity:1;stroke:none;stroke-width:1.28944874;stroke-opacity:1">Lern Rock</tspan></text>
    <text
       xml:space="preserve"
       style="font-style:normal;font-weight:normal;font-size:24.04078484px;line-height:1.25;font-family:sans-serif;letter-spacing:0px;word-spacing:0px;fill:#ffffff;fill-opacity:1;stroke:none;stroke-width:1.28944874;stroke-opacity:1"
       x="249.52019"
       y="138.83209"
       id="text849-3-9-4"
       transform="scale(0.99847101,1.0015313)"><tspan
         sodipodi:role="line"
         id="tspan847-8-2-7"
         x="249.52019"
         y="138.83209"
         style="font-style:normal;font-variant:normal;font-weight:normal;font-stretch:normal;font-size:24.04078484px;font-family:'Aardvark Cafe';-inkscape-font-specification:'Aardvark Cafe, Normal';font-variant-ligatures:normal;font-variant-caps:normal;font-variant-numeric:normal;font-feature-settings:normal;text-align:start;writing-mode:lr-tb;text-anchor:start;fill:#ffffff;fill-opacity:1;stroke:none;stroke-width:1.28944874;stroke-opacity:1">Lern Rock</tspan></text>
    <text
       xml:space="preserve"
       style="font-style:normal;font-weight:normal;font-size:24.04078484px;line-height:1.25;font-family:sans-serif;letter-spacing:0px;word-spacing:0px;fill:#9a321a;fill-opacity:1;stroke:none;stroke-width:1.28944874;stroke-opacity:1"
       x="248.88182"
       y="138.49037"
       id="text849-3-9"
       transform="scale(0.99847101,1.0015313)"><tspan
         sodipodi:role="line"
         id="tspan847-8-2"
         x="248.88182"
         y="138.49037"
         style="font-style:normal;font-variant:normal;font-weight:normal;font-stretch:normal;font-size:24.04078484px;font-family:'Aardvark Cafe';-inkscape-font-specification:'Aardvark Cafe, Normal';font-variant-ligatures:normal;font-variant-caps:normal;font-variant-numeric:normal;font-feature-settings:normal;text-align:start;writing-mode:lr-tb;text-anchor:start;fill:#9a321a;fill-opacity:1;stroke:none;stroke-width:1.28944874;stroke-opacity:1">Lern Rock</tspan></text>
    <path
       style="opacity:0.93000034;fill:none;fill-opacity:0.78947371;stroke:#0a0a0a;stroke-width:0.95011872;stroke-miterlimit:4;stroke-dasharray:none;stroke-opacity:1"
       id="path875-6"
       sodipodi:type="arc"
       sodipodi:cx="292.41968"
       sodipodi:cy="137.08168"
       sodipodi:rx="26.135799"
       sodipodi:ry="25.971207"
       sodipodi:start="0.12915436"
       sodipodi:end="3.0229103"
       d="m 318.3378,140.42666 a 26.135799,25.971207 0 0 1 -26.05497,22.62587 26.135799,25.971207 0 0 1 -25.8151,-22.89576"
       sodipodi:open="true" />
    <path
       style="opacity:0.93000034;fill:none;fill-opacity:0.78947371;stroke:#000000;stroke-width:0.89267969;stroke-miterlimit:4;stroke-dasharray:none;stroke-opacity:1"
       id="path875-7-3"
       sodipodi:type="arc"
       sodipodi:cx="292.12674"
       sodipodi:cy="137.10135"
       sodipodi:rx="24.555773"
       sodipodi:ry="24.401131"
       sodipodi:start="0.087266463"
       sodipodi:end="3.0578168"
       d="m 316.58907,139.22805 a 24.555773,24.401131 0 0 1 -24.50519,22.27439 24.555773,24.401131 0 0 1 -24.42679,-22.35926"
       sodipodi:open="true" />
    <text
       xml:space="preserve"
       style="font-style:normal;font-variant:normal;font-weight:bold;font-stretch:normal;font-size:8.45031071px;line-height:1.25;font-family:sans-serif;-inkscape-font-specification:'sans-serif, Bold';font-variant-ligatures:normal;font-variant-caps:normal;font-variant-numeric:normal;font-feature-settings:normal;text-align:start;letter-spacing:0px;word-spacing:0px;writing-mode:lr-tb;text-anchor:start;fill:#ffffff;fill-opacity:1;stroke:#000000;stroke-width:0.49953333;stroke-miterlimit:4;stroke-dasharray:none;stroke-opacity:1"
       x="329.3757"
       y="130.58817"
       id="text1333"
       transform="scale(0.85202317,1.173677)"><tspan
         sodipodi:role="line"
         id="tspan1331"
         x="329.3757"
         y="130.58817"
         style="font-style:normal;font-variant:normal;font-weight:bold;font-stretch:normal;font-size:8.45031071px;font-family:sans-serif;-inkscape-font-specification:'sans-serif, Bold';font-variant-ligatures:normal;font-variant-caps:normal;font-variant-numeric:normal;font-feature-settings:normal;text-align:start;writing-mode:lr-tb;text-anchor:start;fill:#ffffff;stroke:#000000;stroke-width:0.49953333;stroke-miterlimit:4;stroke-dasharray:none;stroke-opacity:1">CAMP</tspan></text>
    <rect
       style="opacity:1;fill:none;fill-opacity:1;stroke:#ffffff;stroke-width:1.80000007;stroke-linejoin:round;stroke-miterlimit:4;stroke-dasharray:none;stroke-opacity:1"
       id="rect1107-3"
       width="95.381866"
       height="52.864803"
       x="239.07538"
       y="240.06477"
       rx="0.70000005"
       ry="0.70000017" />
    <g
       id="g924"
       transform="translate(2.1166667,10.054167)">
      <path
         id="path893"
         d="m 318.04089,179.7392 c -0.50797,-0.65674 -1.4904,-1.45222 -3.28516,-1.51245 -3.19679,-0.10772 -4.70153,2.47086 -5.09407,4.03171 -1.40867,4.3072 -3.03333,10.82822 -4.2934,16.21231 0.0864,-1.24 0.19502,-2.796 0.19502,-2.796 7.1e-4,-0.0102 10e-4,-0.0203 10e-4,-0.0305 v -0.038 c 0,-1.21867 -0.4067,-2.26957 -1.17583,-3.0387 -1.27585,-1.27567 -3.07204,-1.3126 -3.27279,-1.3126 h -0.017 l -0.0299,7.2e-4 c -1.53199,0.0479 -2.53987,0.58469 -3.1898,1.17511 -0.22388,-0.56443 -0.53253,-1.06649 -0.93278,-1.49058 -0.85158,-0.9023 -2.00591,-1.38465 -3.43106,-1.43304 -0.26797,-0.0174 -1.73131,-0.0509 -2.95679,1.05789 -0.92453,0.83652 -1.41853,2.04551 -1.4714,3.59166 -1.8e-4,0.002 -10e-4,0.003 -10e-4,0.005 0,0 -0.10324,1.89746 -0.202,3.71821 -1.95375,-7.29607 -5.00876,-17.84055 -5.15448,-18.34297 -0.69654,-2.40024 -1.79243,-3.96646 -3.25684,-4.65565 -1.24556,-0.58594 -2.3228,-0.33321 -2.74653,-0.1891 -1.08066,0.23875 -1.93762,0.829 -2.47821,1.71087 -0.44166,0.7202 -0.66553,1.61354 -0.66553,2.6553 0,1.11148 0.2608,2.03996 0.31314,2.21472 l 0.007,0.0221 c 2.83472,8.91929 5.44055,19.34565 5.97613,21.51843 -0.0109,0.13389 -0.40689,5.01628 -0.4232,5.2208 l -3.36492,5.15591 c -0.0468,0.0717 -0.071,0.15505 -0.071,0.23911 0,0.0441 0.007,0.0885 0.0201,0.13139 l 5.35523,17.01012 c 0.0574,0.18247 0.2262,0.30632 0.41728,0.30632 h 25.04001 c 0.19125,0 0.36045,-0.12421 0.41745,-0.30704 l 4.17617,-13.36343 c 0.0125,-0.0398 0.019,-0.0812 0.0199,-0.12296 l 0.003,-0.1572 c 0.0626,-3.56836 0.91252,-8.40181 0.94837,-8.60561 l 0.004,-0.0247 c 1.03388,-6.45291 4.03637,-18.88679 5.02292,-22.97262 l 0.28697,-1.19878 c 0.0771,-0.34414 0.17422,-0.90661 0.17422,-1.55511 -1.8e-4,-0.89442 -0.18516,-1.95374 -0.86359,-2.8306 z"
         inkscape:connector-curvature="0"
         style="fill:#ffffff;fill-opacity:0.94117647;stroke-width:0.26458332" />
      <path
         id="path895"
         d="m 282.15545,206.01079 1.75048,-2.84404 4.7614,0.0509 c -1.34288,-5.77788 -6.409,-23.25314 -6.409,-23.25314 -1.43752,-4.95265 -4.08942,-3.80388 -4.08942,-3.80388 -3.03888,0.55386 -1.80658,4.675 -1.80658,4.675 2.8996,9.12273 5.50274,19.57508 6.06234,21.85505 l -0.26922,3.32065 z m 32.57375,-26.44724 c -2.64311,-0.24019 -3.60206,3.14194 -3.60206,3.14194 -2.73793,8.3579 -6.31632,25.22481 -6.33156,25.31802 -1.10216,6.73916 -5.13745,6.25305 -5.13745,6.25305 -2.23659,0.0971 -3.59758,-1.7503 -3.59758,-1.7503 l -0.58361,0.58343 c 4.27834,2.91682 4.24661,8.74435 4.18083,9.13994 -0.0972,0.58344 -0.76555,0.57125 -0.76555,0.57125 -0.68058,-0.0973 -0.78992,-0.57125 -0.78992,-0.57125 -0.77755,-11.37635 -11.08454,-9.91803 -11.08454,-9.91803 -1.25183,-0.55888 -0.29163,-1.55565 -0.29163,-1.55565 4.37549,-0.77773 7.58412,1.16687 7.58412,1.16687 6.6119,-5.3477 0.58343,-7.58411 0.58343,-7.58411 h -10.20966 l -6.02846,9.23727 4.95892,15.75166 h 23.43418 l 3.8892,-12.44589 c 0.0663,-3.7856 0.97222,-8.84831 0.97222,-8.84831 1.21168,-7.56493 5.13099,-23.3822 5.32852,-24.26586 0.19753,-0.88367 0.7003,-3.93079 -2.5085,-4.2226 z m -17.79359,31.79584 c 1.16669,1.84763 2.81967,1.45868 2.81967,1.45868 3.20862,-0.19466 3.40292,-4.66712 3.40292,-4.66712 l 0.87524,-12.54322 c 0,-2.81984 -2.91717,-2.81984 -2.91717,-2.81984 -3.11148,0.0973 -3.11112,2.72251 -3.11112,2.72251 l -0.58343,8.75098 c 3.59758,3.4031 -0.48611,7.09801 -0.48611,7.09801 z m -0.19465,-16.91853 c 0,0 0.0973,-3.30595 -3.30596,-3.4031 0,0 -2.72233,-0.19448 -2.81966,3.2088 l -0.48611,8.94528 5.88275,-0.0242 z"
         inkscape:connector-curvature="0"
         style="fill:#f9b400;fill-opacity:1;stroke-width:0.26458332" />
    </g>
  </g>
</svg>
