<?xml version="1.0" encoding="UTF-8" standalone="no"?>
<!-- Created with Inkscape (http://www.inkscape.org/) -->

<svg
   xmlns:dc="http://purl.org/dc/elements/1.1/"
   xmlns:cc="http://creativecommons.org/ns#"
   xmlns:rdf="http://www.w3.org/1999/02/22-rdf-syntax-ns#"
   xmlns:svg="http://www.w3.org/2000/svg"
   xmlns="http://www.w3.org/2000/svg"
   xmlns:xlink="http://www.w3.org/1999/xlink"
   xmlns:sodipodi="http://sodipodi.sourceforge.net/DTD/sodipodi-0.dtd"
   xmlns:inkscape="http://www.inkscape.org/namespaces/inkscape"
   version="1.0"
   width="101mm"
   height="101mm"
   id="svg2408"
   xml:space="preserve"
   sodipodi:docname="loscamp19-aufkleber.svg"
   inkscape:version="0.92.3 (2405546, 2018-03-11)"
   inkscape:export-filename="C:\Users\SimonDückert\OneDrive - Cogneon GmbH\Desktop\lernOS\2018_cogneon_lernos-camp-2019\Design\loscamp19-Aufkleber-320px.png"
   inkscape:export-xdpi="80.480003"
   inkscape:export-ydpi="80.480003"><metadata
   id="metadata839"><rdf:RDF><cc:Work
       rdf:about=""><dc:format>image/svg+xml</dc:format><dc:type
         rdf:resource="http://purl.org/dc/dcmitype/StillImage" /><dc:title></dc:title></cc:Work></rdf:RDF></metadata><sodipodi:namedview
   pagecolor="#ffffff"
   bordercolor="#666666"
   borderopacity="1"
   objecttolerance="10"
   gridtolerance="10"
   guidetolerance="10"
   inkscape:pageopacity="0"
   inkscape:pageshadow="2"
   inkscape:window-width="2560"
   inkscape:window-height="1373"
   id="namedview837"
   showgrid="false"
   inkscape:zoom="1.9214604"
   inkscape:cx="162.39622"
   inkscape:cy="186.3272"
   inkscape:window-x="-9"
   inkscape:window-y="-9"
   inkscape:window-maximized="1"
   inkscape:current-layer="svg2408"
   units="mm" /><defs
   id="defs2411"><linearGradient
     inkscape:collect="always"
     id="linearGradient1202"><stop
       style="stop-color:#f9b400;stop-opacity:1;"
       offset="0"
       id="stop1198" /><stop
       style="stop-color:#9a321a;stop-opacity:1"
       offset="1"
       id="stop1200" /></linearGradient><linearGradient
     y2="297.58749"
     y1="381.07079"
     x2="86.327412"
     x1="116.29334"
     id="f"
     gradientTransform="matrix(1.332042,0,0,0.56968325,467.66838,-87.571048)"
     gradientUnits="userSpaceOnUse"><stop
       id="stop1011"
       offset="0"
       stop-color="#b3b3b3" /><stop
       id="stop1013"
       offset="1"
       stop-color="#f2f2f2" /></linearGradient><radialGradient
     gradientUnits="userSpaceOnUse"
     gradientTransform="matrix(0.08708022,1.0565185,-1.3380357,0.10899581,954.28002,88.052132)"
     r="217.18"
     cy="320.22"
     cx="79.286"
     id="g"><stop
       id="stop1016"
       offset="0" /><stop
       id="stop1018"
       offset="1"
       stop-color="#ccc" /></radialGradient><radialGradient
     gradientUnits="userSpaceOnUse"
     gradientTransform="matrix(0.51546918,1.50791,-0.82717078,0.27945973,911.52922,104.76424)"
     r="217.17999"
     cy="113.59"
     cx="24.622"
     id="i"
     xlink:href="#j"><stop
       id="stop1021"
       offset="0"
       stop-color="#f00" /><stop
       id="stop1023"
       offset="1"
       stop-color="#800000" /></radialGradient><radialGradient
     gradientUnits="userSpaceOnUse"
     gradientTransform="matrix(0.49292928,1.4505899,-0.79100112,0.26883664,202.04448,40.956389)"
     r="217.18"
     cy="146.64"
     cx="-10.714"
     id="h"><stop
       id="stop1026"
       offset="0"
       stop-color="#f2f2f2" /><stop
       id="stop1028"
       offset="1"
       stop-color="#e6e6e6" /></radialGradient><radialGradient
     gradientUnits="userSpaceOnUse"
     gradientTransform="matrix(-3.0915046,-3.6781852,2.6858565,-2.622709,-435.62584,1186.0879)"
     r="97.219"
     cy="400.75"
     cx="13.874"
     id="j"><stop
       id="stop1031"
       offset="0" /><stop
       id="stop1033"
       offset="1"
       stop-opacity="0"
       stop-color="#ff2a2a" /></radialGradient><radialGradient
     inkscape:collect="always"
     xlink:href="#linearGradient1202"
     id="radialGradient1204"
     cx="826.64221"
     cy="82.359879"
     fx="826.64221"
     fy="82.359879"
     r="171.96851"
     gradientTransform="matrix(1.0837736,2.2534649,-1.6362142,0.79634731,-674.15789,-1773.702)"
     gradientUnits="userSpaceOnUse" /><radialGradient
     gradientUnits="userSpaceOnUse"
     gradientTransform="matrix(-2.9563225,-3.5383665,2.5684122,-2.5230121,-747.68872,1138.2027)"
     r="97.219002"
     cy="400.75"
     cx="13.874"
     id="j-2"><stop
       id="stop1031-6"
       offset="0" /><stop
       id="stop1033-7"
       offset="1"
       stop-opacity="0"
       stop-color="#ff2a2a" /></radialGradient><linearGradient
     y2="297.58749"
     y1="381.0708"
     x2="86.327415"
     x1="116.29334"
     id="f-3"
     gradientTransform="matrix(1.2737959,0,0,0.5480279,116.10719,-87.04077)"
     gradientUnits="userSpaceOnUse"><stop
       id="stop1011-2"
       offset="0"
       stop-color="#b3b3b3" /><stop
       id="stop1013-2"
       offset="1"
       stop-color="#f2f2f2" /></linearGradient></defs>



<path
   style="opacity:0.93000034;fill:none;fill-opacity:0.78947371;stroke:none;stroke-width:3.3739078;stroke-miterlimit:4;stroke-dasharray:none;stroke-opacity:1"
   id="path875-7-3"
   sodipodi:type="arc"
   sodipodi:cx="372.55331"
   sodipodi:cy="164.76961"
   sodipodi:rx="198.48798"
   sodipodi:ry="198.48843"
   sodipodi:start="0.087266463"
   sodipodi:end="3.0578168"
   d="M 570.28598,182.06901 A 198.48798,198.48843 0 0 1 372.20689,363.25774 198.48798,198.48843 0 0 1 174.76146,181.3787"
   sodipodi:open="true" />

<g
   id="g2960"><path
     id="path1040"
     d="M 281.58155,347.96073 C 364.62509,300.01214 395.40644,196.18396 353.91349,111.30929 L 117.08185,25.097743 C 111.36037,27.65284 105.71524,30.515417 100.1702,33.716391 13.448067,83.792281 -16.311495,194.84292 33.762605,281.57249 83.83419,368.30208 194.85858,398.03913 281.58072,347.9624 Z m 72.33194,-236.65144 c -0.72938,-1.49228 -1.47044,-2.9829 -2.24492,-4.46265 0.77283,1.47975 1.51472,2.96953 2.24492,4.46265 z M 341.03216,89.048695 c -0.45951,-0.67929 -0.91735,-1.361939 -1.38522,-2.033716 0.47122,0.675947 0.92237,1.349405 1.38522,2.033716 z M 330.34061,74.811006 c -0.71267,-0.858105 -1.41613,-1.719552 -2.14216,-2.561781 0.72603,0.841394 1.43034,1.703676 2.14216,2.561781 z M 316.12753,59.590717 c -0.90815,-0.867296 -1.80462,-1.73877 -2.72865,-2.585177 0.92487,0.846407 1.81966,1.717045 2.72865,2.585177 z M 303.83187,48.841428 c -2.1338,-1.69532 -4.31773,-3.328811 -6.51753,-4.919689 2.20148,1.592549 4.38207,3.222698 6.51753,4.919689 z m -6.51753,-4.919689 c -1.11869,-0.808808 -2.23823,-1.612602 -3.3728,-2.394672 1.13206,0.779563 2.25745,1.588371 3.3728,2.394672 z m -3.3728,-2.394672 c -1.0293,-0.709378 -2.06612,-1.407894 -3.10796,-2.094712 1.04184,0.68681 2.0795,1.38617 3.10796,2.094712 z m -3.54659,-2.38381 c -1.09947,-0.720241 -2.21901,-1.422099 -3.33186,-2.116436 1.11869,0.698524 2.22653,1.392853 3.33186,2.116436 z m -3.33186,-2.116436 c -1.01928,-0.635842 -2.0419,-1.260002 -3.07204,-1.874128 1.03098,0.61497 2.05192,1.237443 3.07204,1.874128 z m -7.28951,-4.323946 c -0.97332,-0.545611 -1.94582,-1.097906 -2.92833,-1.625136 0.98502,0.528901 1.95167,1.077854 2.92833,1.625136 z m -3.95429,-2.149022 c -1.01343,-0.535576 -2.03104,-1.066156 -3.05449,-1.582523 1.02178,0.515532 2.0419,1.047774 3.05449,1.582523 z M 272.7648,28.97133 c -1.21645,-0.614126 -2.43457,-1.218225 -3.66355,-1.803942 1.22981,0.586553 2.44626,1.188981 3.66355,1.803942 z m -3.66355,-1.803942 c -1.19306,-0.569006 -2.38194,-1.126315 -3.58585,-1.668583 1.20141,0.541441 2.39446,1.100412 3.58585,1.668583 z m -8.521,-3.793375 c -0.8973,-0.372652 -1.80712,-0.731101 -2.70944,-1.08955 0.90649,0.36012 1.8088,0.715227 2.70944,1.08955 z m -2.70944,-1.08955 c -1.26908,-0.50299 -2.52814,-1.004325 -3.80808,-1.478916 1.2741,0.472911 2.54402,0.977589 3.80808,1.478916 z m -12.74013,-4.522806 c -1.96503,-0.614961 -3.93425,-1.189817 -5.91766,-1.737934 1.98341,0.548117 3.95346,1.122973 5.91766,1.737934 z M 226.6567,13.021609 c -1.33008,-0.26821 -2.66349,-0.527229 -3.99942,-0.765359 1.33843,0.238966 2.66767,0.497149 3.99942,0.765359 z m -3.99942,-0.765359 c -1.26156,-0.225597 -2.51561,-0.452021 -3.78219,-0.65089 1.25823,0.198024 2.52898,0.426964 3.78219,0.65089 z m -4.37203,-0.731937 c -1.23065,-0.18967 -2.46799,-0.350929 -3.70365,-0.514696 1.23817,0.163767 2.47049,0.325026 3.70365,0.514696 z m -3.70365,-0.514696 c -1.34679,-0.178807 -2.70192,-0.34508 -4.05288,-0.493807 1.35263,0.148718 2.70443,0.314164 4.05288,0.493807 z m -8.11245,-0.893198 c -1.35848,-0.118647 -2.71779,-0.2406366 -4.07878,-0.3283689 1.36015,0.087733 2.72114,0.2097219 4.07878,0.3283689 z m -4.07878,-0.3283689 c -1.35514,-0.08857 -2.71445,-0.1545759 -4.07176,-0.2122287 1.36315,0.057652 2.71077,0.1236605 4.07176,0.2122287 z m -4.07176,-0.2122287 c -1.3696,-0.057652 -2.74144,-0.1002651 -4.11329,-0.1270025 1.36566,0.026734 2.74997,0.06935 4.11329,0.1270025 z m -28.7453,1.0703336 c -1.37059,0.16126 -2.72832,0.334217 -4.09749,0.527229 1.36708,-0.193012 2.72898,-0.366805 4.09749,-0.527229 z m -4.09749,0.527229 c -1.11945,0.157082 -2.23123,0.33756 -3.34941,0.516366 1.1151,-0.177971 2.23305,-0.359284 3.34941,-0.516366 z m -8.20009,1.357761 c -1.36141,0.255677 -2.72155,0.529735 -4.07995,0.817998 1.35973,-0.288263 2.71729,-0.562321 4.07995,-0.817998 z m -16.82476,4.016465 c -1.15914,0.335889 -2.31485,0.678462 -3.47015,1.038582 1.15463,-0.36012 2.31168,-0.702693 3.47015,-1.038582 z m -3.47015,1.038582 c -1.33993,0.417773 -2.68211,0.843065 -4.01636,1.294259 1.33675,-0.45203 2.67393,-0.87565 4.01636,-1.294259 z m -8.49425,2.884302 c -2.50267,0.9191 -4.99639,1.891674 -7.47415,2.928586 2.47785,-1.036912 4.97132,-2.00865 7.47415,-2.928586 z"
     inkscape:connector-curvature="0"
     style="fill:url(#h);stroke-width:10.5719986" /><path
     transform="rotate(-13.115974)"
     sodipodi:open="true"
     d="M 300.01669,186.22066 A 164.44885,165.43146 0 0 1 237.4251,363.17071 164.44885,165.43146 0 0 1 50.76521,367.22699 164.44885,165.43146 0 0 1 -19.363916,193.16108 164.44885,165.43146 0 0 1 117.43209,65.338781"
     sodipodi:end="4.5675267"
     sodipodi:start="6.0213859"
     sodipodi:ry="165.43146"
     sodipodi:rx="164.44885"
     sodipodi:cy="229.03748"
     sodipodi:cx="141.1713"
     sodipodi:type="arc"
     id="path1317"
     style="opacity:1;fill:url(#radialGradient1204);fill-opacity:1;stroke:none;stroke-width:2.51337123;stroke-miterlimit:4;stroke-dasharray:none;stroke-opacity:1" /><g
     style="stroke-width:1.62837017"
     transform="matrix(0.61228436,0,0,0.61594293,33.557513,56.392157)"
     id="g956"><text
   xml:space="preserve"
   style="font-style:normal;font-weight:normal;font-size:194.9402771px;line-height:1.25;font-family:sans-serif;letter-spacing:0px;word-spacing:0px;fill:#000000;fill-opacity:1;stroke:none;stroke-width:7.93587446;stroke-opacity:1"
   x="28.050962"
   y="183.74544"
   id="text849-3-9-4-1"
   transform="scale(0.9953209,1.0047011)"><tspan
     sodipodi:role="line"
     id="tspan847-8-2-7-8"
     x="28.050962"
     y="183.74544"
     style="font-style:normal;font-variant:normal;font-weight:normal;font-stretch:normal;font-size:194.9402771px;font-family:'Aardvark Cafe';-inkscape-font-specification:'Aardvark Cafe, Normal';font-variant-ligatures:normal;font-variant-caps:normal;font-variant-numeric:normal;font-feature-settings:normal;text-align:start;writing-mode:lr-tb;text-anchor:start;fill:#000000;fill-opacity:1;stroke:none;stroke-width:7.93587446;stroke-opacity:1">Lern</tspan></text>

<text
   xml:space="preserve"
   style="font-style:normal;font-weight:normal;font-size:194.9402771px;line-height:1.25;font-family:sans-serif;letter-spacing:0px;word-spacing:0px;fill:#ffffff;fill-opacity:1;stroke:none;stroke-width:7.93587446;stroke-opacity:1"
   x="25.192259"
   y="179.73256"
   id="text849-3-9-4"
   transform="scale(0.9953209,1.0047011)"><tspan
     sodipodi:role="line"
     id="tspan847-8-2-7"
     x="25.192259"
     y="179.73256"
     style="font-style:normal;font-variant:normal;font-weight:normal;font-stretch:normal;font-size:194.9402771px;font-family:'Aardvark Cafe';-inkscape-font-specification:'Aardvark Cafe, Normal';font-variant-ligatures:normal;font-variant-caps:normal;font-variant-numeric:normal;font-feature-settings:normal;text-align:start;writing-mode:lr-tb;text-anchor:start;fill:#ffffff;fill-opacity:1;stroke:none;stroke-width:7.93587446;stroke-opacity:1">Lern</tspan></text>

<text
   xml:space="preserve"
   style="font-style:normal;font-weight:normal;font-size:194.9402771px;line-height:1.25;font-family:sans-serif;letter-spacing:0px;word-spacing:0px;fill:#9a321a;fill-opacity:1;stroke:none;stroke-width:7.93587446;stroke-opacity:1"
   x="20.015951"
   y="176.96162"
   id="text849-3-9"
   transform="scale(0.9953209,1.0047011)"><tspan
     sodipodi:role="line"
     id="tspan847-8-2"
     x="20.015951"
     y="176.96162"
     style="font-style:normal;font-variant:normal;font-weight:normal;font-stretch:normal;font-size:194.9402771px;font-family:'Aardvark Cafe';-inkscape-font-specification:'Aardvark Cafe, Normal';font-variant-ligatures:normal;font-variant-caps:normal;font-variant-numeric:normal;font-feature-settings:normal;text-align:start;writing-mode:lr-tb;text-anchor:start;fill:#9a321a;fill-opacity:1;stroke:none;stroke-width:7.93587446;stroke-opacity:1">Lern</tspan></text>

</g><g
     transform="translate(0,-2)"
     id="g1399"><text
   xml:space="preserve"
   style="font-style:normal;font-weight:normal;font-size:120.36573029px;line-height:1.25;font-family:sans-serif;letter-spacing:0px;word-spacing:0px;fill:#000000;fill-opacity:1;stroke:none;stroke-width:4.87350798;stroke-opacity:1"
   x="128.06586"
   y="276.3934"
   id="text849-3-9-4-1-2"
   transform="scale(0.9923605,1.0076983)"><tspan
     sodipodi:role="line"
     id="tspan847-8-2-7-8-5"
     x="128.06586"
     y="276.3934"
     style="font-style:normal;font-variant:normal;font-weight:normal;font-stretch:normal;font-size:120.36573029px;font-family:'Aardvark Cafe';-inkscape-font-specification:'Aardvark Cafe, Normal';font-variant-ligatures:normal;font-variant-caps:normal;font-variant-numeric:normal;font-feature-settings:normal;text-align:start;writing-mode:lr-tb;text-anchor:start;fill:#000000;fill-opacity:1;stroke:none;stroke-width:4.87350798;stroke-opacity:1">Rock</tspan></text>

<text
   xml:space="preserve"
   style="font-style:normal;font-weight:normal;font-size:120.36573029px;line-height:1.25;font-family:sans-serif;letter-spacing:0px;word-spacing:0px;fill:#ffffff;fill-opacity:1;stroke:none;stroke-width:4.87350798;stroke-opacity:1"
   x="126.30075"
   y="273.91565"
   id="text849-3-9-4-4"
   transform="scale(0.9923605,1.0076983)"><tspan
     sodipodi:role="line"
     id="tspan847-8-2-7-85"
     x="126.30075"
     y="273.91565"
     style="font-style:normal;font-variant:normal;font-weight:normal;font-stretch:normal;font-size:120.36573029px;font-family:'Aardvark Cafe';-inkscape-font-specification:'Aardvark Cafe, Normal';font-variant-ligatures:normal;font-variant-caps:normal;font-variant-numeric:normal;font-feature-settings:normal;text-align:start;writing-mode:lr-tb;text-anchor:start;fill:#ffffff;fill-opacity:1;stroke:none;stroke-width:4.87350798;stroke-opacity:1">Rock</tspan></text>

<text
   xml:space="preserve"
   style="font-style:normal;font-weight:normal;font-size:120.36573029px;line-height:1.25;font-family:sans-serif;letter-spacing:0px;word-spacing:0px;fill:#9a321a;fill-opacity:1;stroke:none;stroke-width:4.87350798;stroke-opacity:1"
   x="123.10465"
   y="272.20471"
   id="text849-3-9-0"
   transform="scale(0.99236051,1.0076983)"><tspan
     sodipodi:role="line"
     id="tspan847-8-2-6"
     x="123.10465"
     y="272.20471"
     style="font-style:normal;font-variant:normal;font-weight:normal;font-stretch:normal;font-size:120.36573029px;font-family:'Aardvark Cafe';-inkscape-font-specification:'Aardvark Cafe, Normal';font-variant-ligatures:normal;font-variant-caps:normal;font-variant-numeric:normal;font-feature-settings:normal;text-align:start;writing-mode:lr-tb;text-anchor:start;fill:#9a321a;fill-opacity:1;stroke:none;stroke-width:4.87350798;stroke-opacity:1">Rock</tspan></text>

</g><text
     transform="scale(0.85740484,1.1663102)"
     id="text1333"
     y="289.88763"
     x="161.6998"
     style="font-style:normal;font-variant:normal;font-weight:bold;font-stretch:normal;font-size:38.15916824px;line-height:1.25;font-family:sans-serif;-inkscape-font-specification:'sans-serif, Bold';font-variant-ligatures:normal;font-variant-caps:normal;font-variant-numeric:normal;font-feature-settings:normal;text-align:start;letter-spacing:0px;word-spacing:0px;writing-mode:lr-tb;text-anchor:start;fill:#ffffff;fill-opacity:1;stroke:#000000;stroke-width:2.15433073;stroke-miterlimit:4;stroke-dasharray:none;stroke-opacity:1"
     xml:space="preserve"><tspan
       style="font-style:normal;font-variant:normal;font-weight:bold;font-stretch:normal;font-size:38.15916824px;font-family:sans-serif;-inkscape-font-specification:'sans-serif, Bold';font-variant-ligatures:normal;font-variant-caps:normal;font-variant-numeric:normal;font-feature-settings:normal;text-align:start;writing-mode:lr-tb;text-anchor:start;fill:#ffffff;stroke:#000000;stroke-width:2.15433073;stroke-miterlimit:4;stroke-dasharray:none;stroke-opacity:1"
       y="289.88763"
       x="161.6998"
       id="tspan1331"
       sodipodi:role="line">CAMP</tspan></text>
<path
     id="path1044"
     d="m 117.46692,25.239785 c 1.73813,4.044039 3.60691,8.036273 5.6372,11.981717 44.75713,86.988598 145.19691,117.778438 231.20054,74.230658 L 117.47303,25.24062 h -10e-6 z"
     inkscape:connector-curvature="0"
     style="fill:url(#j-2);stroke-width:10.5719986" /><path
     id="path1046"
     d="m 117.07984,25.097742 c 1.83997,3.764131 3.80776,7.483142 5.93387,11.166225 46.87006,81.187413 147.13522,112.447663 230.89978,75.045323 L 117.08185,25.097742 h -1e-5 z"
     inkscape:connector-curvature="0"
     style="fill:url(#f-3);stroke-width:10.5719986" /><text
     inkscape:transform-center-y="2.0302301"
     inkscape:transform-center-x="13.196415"
     transform="matrix(0.93391852,0.35116523,-0.34907938,0.93949894,0,0)"
     id="text1297"
     y="2.5962975"
     x="158.61862"
     style="font-style:normal;font-variant:normal;font-weight:normal;font-stretch:normal;font-size:17.23096848px;line-height:1.25;font-family:'Open Sans';-inkscape-font-specification:'Open Sans, Normal';font-variant-ligatures:normal;font-variant-caps:normal;font-variant-numeric:normal;font-feature-settings:normal;text-align:start;letter-spacing:0px;word-spacing:0px;writing-mode:lr-tb;text-anchor:start;fill:#000000;fill-opacity:1;stroke:none;stroke-width:0.99999988"
     xml:space="preserve"><tspan
       style="font-style:normal;font-variant:normal;font-weight:normal;font-stretch:normal;font-size:17.23096848px;font-family:'Open Sans';-inkscape-font-specification:'Open Sans, Normal';font-variant-ligatures:normal;font-variant-caps:normal;font-variant-numeric:normal;font-feature-settings:normal;text-align:start;writing-mode:lr-tb;text-anchor:start;fill:#6c5353;stroke-width:0.99999988"
       y="2.5962975"
       x="158.61862"
       id="tspan1295"
       sodipodi:role="line">#lernOS #loscamp19</tspan></text>
</g>
</svg>