<?xml version="1.0" encoding="UTF-8" standalone="no"?>
<!-- Created with Inkscape (http://www.inkscape.org/) -->

<svg
   xmlns:dc="http://purl.org/dc/elements/1.1/"
   xmlns:cc="http://creativecommons.org/ns#"
   xmlns:rdf="http://www.w3.org/1999/02/22-rdf-syntax-ns#"
   xmlns:svg="http://www.w3.org/2000/svg"
   xmlns="http://www.w3.org/2000/svg"
   xmlns:sodipodi="http://sodipodi.sourceforge.net/DTD/sodipodi-0.dtd"
   xmlns:inkscape="http://www.inkscape.org/namespaces/inkscape"
   width="202mm"
   height="13mm"
   viewBox="0 0 202 13"
   version="1.1"
   id="svg8"
   inkscape:version="0.92.3 (2405546, 2018-03-11)"
   sodipodi:docname="loscamp19-ownband-202x13-vektorisiert.svg">
  <defs
     id="defs2" />
  <sodipodi:namedview
     id="base"
     pagecolor="#ffffff"
     bordercolor="#666666"
     borderopacity="1.0"
     inkscape:pageopacity="0.0"
     inkscape:pageshadow="2"
     inkscape:zoom="1.4"
     inkscape:cx="382.58204"
     inkscape:cy="134.1765"
     inkscape:document-units="mm"
     inkscape:current-layer="layer1"
     showgrid="false"
     inkscape:pagecheckerboard="true"
     inkscape:window-width="1920"
     inkscape:window-height="1013"
     inkscape:window-x="-9"
     inkscape:window-y="-9"
     inkscape:window-maximized="1" />
  <metadata
     id="metadata5">
    <rdf:RDF>
      <cc:Work
         rdf:about="">
        <dc:format>image/svg+xml</dc:format>
        <dc:type
           rdf:resource="http://purl.org/dc/dcmitype/StillImage" />
        <dc:title></dc:title>
      </cc:Work>
    </rdf:RDF>
  </metadata>
  <g
     inkscape:label="Layer 1"
     inkscape:groupmode="layer"
     id="layer1"
     transform="translate(0,-284)">
    <g
       id="g1673">
      <rect
         y="293.05325"
         x="1.0000002"
         height="1.7582377"
         width="1.7582377"
         id="rect815-3-7"
         style="fill:#ff6600;fill-opacity:1;fill-rule:evenodd;stroke-width:0.26458332" />
      <rect
         y="289.5238"
         x="1.0241518"
         height="1.7582377"
         width="1.7582377"
         id="rect815-3"
         style="fill:#ff6600;fill-opacity:1;fill-rule:evenodd;stroke-width:0.26458332" />
      <rect
         y="285.99435"
         x="1.0156858"
         height="1.7582377"
         width="1.7582377"
         id="rect815"
         style="fill:#ff6600;fill-opacity:1;fill-rule:evenodd;stroke-width:0.26458332" />
      <g
         aria-label="lernOS"
         style="font-style:normal;font-weight:normal;font-size:11.45777321px;line-height:1.25;font-family:sans-serif;letter-spacing:0px;word-spacing:0px;fill:#000000;fill-opacity:1;stroke:none;stroke-width:0.79248077"
         id="text817">
        <path
           d="M 4.6641762,294.69958 H 4.1103093 v -8.70522 h 0.5538669 z"
           style="font-style:normal;font-variant:normal;font-weight:300;font-stretch:normal;font-size:11.45777321px;font-family:'Open Sans';-inkscape-font-specification:'Open Sans, Light';font-variant-ligatures:normal;font-variant-caps:normal;font-variant-numeric:normal;font-feature-settings:normal;text-align:start;writing-mode:lr-tb;text-anchor:start;fill:#ffffff;stroke-width:0.79248077"
           id="path838" />
        <path
           d="m 9.1622473,294.81148 q -1.3259239,0 -2.0700078,-0.81682 -0.7384893,-0.81681 -0.7384893,-2.28819 0,-1.4546 0.7161108,-2.32736 0.7161108,-0.87836 1.9301425,-0.87836 1.0741665,0 1.6951685,0.74968 0.621002,0.74968 0.621002,2.03644 v 0.44757 H 6.9355902 q 0.011189,1.25319 0.5818401,1.91336 0.5762454,0.66016 1.644817,0.66016 0.5202993,0 0.9119227,-0.0727 0.397217,-0.0727 1.001436,-0.3133 v 0.50352 q -0.514705,0.22378 -0.951085,0.30211 -0.4363798,0.0839 -0.9622737,0.0839 z m -0.1622438,-5.8184 q -0.8783547,0 -1.4098432,0.58184 -0.5314885,0.57624 -0.6210024,1.66719 H 10.72874 q 0,-1.05738 -0.458759,-1.65041 -0.4587582,-0.59862 -1.2699775,-0.59862 z"
           style="font-style:normal;font-variant:normal;font-weight:300;font-stretch:normal;font-size:11.45777321px;font-family:'Open Sans';-inkscape-font-specification:'Open Sans, Light';font-variant-ligatures:normal;font-variant-caps:normal;font-variant-numeric:normal;font-feature-settings:normal;text-align:start;writing-mode:lr-tb;text-anchor:start;fill:#ffffff;stroke-width:0.79248077"
           id="path840" />
        <path
           d="m 15.389055,288.50075 q 0.386028,0 0.828003,0.0783 l -0.106298,0.53148 q -0.380434,-0.0951 -0.788841,-0.0951 -0.777651,0 -1.275572,0.66016 -0.497921,0.66016 -0.497921,1.6672 v 3.35676 h -0.553867 v -6.08134 h 0.469948 l 0.05595,1.09654 h 0.03916 q 0.374839,-0.67135 0.80003,-0.93989 0.425191,-0.27414 1.02941,-0.27414 z"
           style="font-style:normal;font-variant:normal;font-weight:300;font-stretch:normal;font-size:11.45777321px;font-family:'Open Sans';-inkscape-font-specification:'Open Sans, Light';font-variant-ligatures:normal;font-variant-caps:normal;font-variant-numeric:normal;font-feature-settings:normal;text-align:start;writing-mode:lr-tb;text-anchor:start;fill:#ffffff;stroke-width:0.79248077"
           id="path842" />
        <path
           d="m 21.688593,294.69958 v -3.9442 q 0,-0.91752 -0.386029,-1.33152 -0.386028,-0.41959 -1.197248,-0.41959 -1.09095,0 -1.60006,0.55386 -0.503515,0.54828 -0.503515,1.78469 v 3.35676 h -0.553867 v -6.08134 h 0.469947 l 0.106298,0.8336 h 0.03357 q 0.593029,-0.95109 2.10917,-0.95109 2.070008,0 2.070008,2.22106 v 3.97777 z"
           style="font-style:normal;font-variant:normal;font-weight:300;font-stretch:normal;font-size:11.45777321px;font-family:'Open Sans';-inkscape-font-specification:'Open Sans, Light';font-variant-ligatures:normal;font-variant-caps:normal;font-variant-numeric:normal;font-feature-settings:normal;text-align:start;writing-mode:lr-tb;text-anchor:start;fill:#ffffff;stroke-width:0.79248077"
           id="path844" />
        <path
           d="m 31.221817,290.59873 q 0,1.94693 -0.973463,3.08263 -0.973463,1.13012 -2.685416,1.13012 -1.706358,0 -2.679821,-1.13012 -0.973463,-1.1357 -0.973463,-3.09382 0,-1.95252 0.979058,-3.07144 0.984652,-1.12452 2.685416,-1.12452 1.711952,0 2.67982,1.13011 0.967869,1.12452 0.967869,3.07704 z m -6.69116,0 q 0,1.75671 0.783246,2.71898 0.783246,0.95668 2.249035,0.95668 1.476979,0 2.25463,-0.95108 0.783247,-0.95109 0.783247,-2.72458 0,-1.7679 -0.783247,-2.70779 -0.777651,-0.94549 -2.24344,-0.94549 -1.460195,0 -2.254631,0.95108 -0.78884,0.95109 -0.78884,2.7022 z"
           style="font-style:normal;font-variant:normal;font-weight:300;font-stretch:normal;font-size:11.45777321px;font-family:'Open Sans';-inkscape-font-specification:'Open Sans, Light';font-variant-ligatures:normal;font-variant-caps:normal;font-variant-numeric:normal;font-feature-settings:normal;text-align:start;writing-mode:lr-tb;text-anchor:start;fill:#ffffff;stroke-width:0.79248077"
           id="path846" />
        <path
           d="m 37.610868,292.59041 q 0,1.02382 -0.755273,1.62244 -0.749678,0.59863 -1.997278,0.59863 -1.499357,0 -2.299387,-0.33009 v -0.57065 q 0.883949,0.37484 2.25463,0.37484 1.007031,0 1.594466,-0.45876 0.593029,-0.46435 0.593029,-1.21403 0,-0.46435 -0.195812,-0.76646 -0.195811,-0.3077 -0.637786,-0.55946 -0.441974,-0.25176 -1.297951,-0.54268 -1.253194,-0.43078 -1.73433,-0.9287 -0.475543,-0.50352 -0.475543,-1.33712 0,-0.91751 0.716111,-1.49376 0.721705,-0.58184 1.851818,-0.58184 1.152491,0 2.165116,0.43638 l -0.207001,0.49233 q -1.01822,-0.42519 -1.946926,-0.42519 -0.906328,0 -1.443411,0.41959 -0.537083,0.4196 -0.537083,1.1413 0,0.45317 0.162244,0.74409 0.167838,0.29092 0.542678,0.52589 0.374839,0.22938 1.286761,0.55387 0.95668,0.33008 1.437817,0.64338 0.481137,0.3077 0.699327,0.70492 0.223784,0.39162 0.223784,0.95108 z"
           style="font-style:normal;font-variant:normal;font-weight:300;font-stretch:normal;font-size:11.45777321px;font-family:'Open Sans';-inkscape-font-specification:'Open Sans, Light';font-variant-ligatures:normal;font-variant-caps:normal;font-variant-numeric:normal;font-feature-settings:normal;text-align:start;writing-mode:lr-tb;text-anchor:start;fill:#ffffff;stroke-width:0.79248077"
           id="path848" />
      </g>
      <path
         transform="matrix(0.26544694,0.00880398,-0.00880398,0.26544694,29.157964,207.12575)"
         inkscape:transform-center-y="-0.079471086"
         inkscape:transform-center-x="-0.074524016"
         d="m 77.716398,328.4001 -11.104936,-7.54463 -10.570904,8.27629 3.743755,-12.89284 -11.13781,-7.49601 13.418703,-0.42358 3.687359,-12.90908 4.54946,12.63105 13.416723,-0.48224 -10.606982,8.23 z"
         inkscape:randomized="0"
         inkscape:rounded="0"
         inkscape:flatsided="false"
         sodipodi:arg2="1.5370544"
         sodipodi:arg1="0.90873586"
         sodipodi:r2="7.0106473"
         sodipodi:r1="18.449072"
         sodipodi:cy="313.84882"
         sodipodi:cx="66.374954"
         sodipodi:sides="5"
         id="path1529"
         style="fill:#ff6600;fill-opacity:1;fill-rule:evenodd;stroke-width:0.99619871"
         sodipodi:type="star" />
      <g
         aria-label="Rockstar"
         transform="scale(0.96725587,1.0338526)"
         style="font-style:normal;font-weight:normal;font-size:11.3057518px;line-height:1.25;font-family:sans-serif;letter-spacing:0px;word-spacing:0px;fill:#ffffff;fill-opacity:1;stroke:none;stroke-width:0.26458332"
         id="text1570">
        <path
           d="m 53.465301,280.64119 h 0.916389 q 0.921911,0 1.335942,-0.34226 0.414032,-0.34227 0.414032,-1.01576 0,-0.68453 -0.447154,-0.98264 -0.447154,-0.2981 -1.346983,-0.2981 h -0.872226 z m 0,1.09304 v 3.22393 H 52.14592 v -8.07086 h 2.279934 q 1.562279,0 2.313056,0.58517 0.750778,0.58516 0.750778,1.76653 0,1.50708 -1.5678,2.14745 l 2.279934,3.57171 h -1.501555 l -1.932147,-3.22393 z"
           style="font-style:normal;font-variant:normal;font-weight:600;font-stretch:normal;font-size:11.30582237px;font-family:'Open Sans';-inkscape-font-specification:'Open Sans, Semi-Bold';font-variant-ligatures:normal;font-variant-caps:normal;font-variant-numeric:normal;font-feature-settings:normal;text-align:start;writing-mode:lr-tb;text-anchor:start;fill:#ffffff;stroke-width:0.26458332"
           id="path851" />
        <path
           d="m 64.644153,281.89433 q 0,1.49603 -0.767338,2.33513 -0.767339,0.83911 -2.136403,0.83911 -0.855666,0 -1.512596,-0.38643 -0.65693,-0.38643 -1.010237,-1.10961 -0.353307,-0.72317 -0.353307,-1.6782 0,-1.485 0.761818,-2.31858 0.761819,-0.83358 2.147444,-0.83358 1.324901,0 2.09776,0.85566 0.772859,0.85015 0.772859,2.2965 z m -4.443939,0 q 0,2.11432 1.562279,2.11432 1.545718,0 1.545718,-2.11432 0,-2.09224 -1.556758,-2.09224 -0.817023,0 -1.186891,0.541 -0.364348,0.541 -0.364348,1.55124 z"
           style="font-style:normal;font-variant:normal;font-weight:600;font-stretch:normal;font-size:11.30582237px;font-family:'Open Sans';-inkscape-font-specification:'Open Sans, Semi-Bold';font-variant-ligatures:normal;font-variant-caps:normal;font-variant-numeric:normal;font-feature-settings:normal;text-align:start;writing-mode:lr-tb;text-anchor:start;fill:#ffffff;stroke-width:0.26458332"
           id="path853" />
        <path
           d="m 68.602296,285.06857 q -1.385626,0 -2.108801,-0.80598 -0.717655,-0.8115 -0.717655,-2.3241 0,-1.5402 0.750777,-2.36826 0.756298,-0.82806 2.180567,-0.82806 0.966073,0 1.738932,0.35882 l -0.39195,1.04336 q -0.822542,-0.32018 -1.358023,-0.32018 -1.584361,0 -1.584361,2.10328 0,1.0268 0.39195,1.54572 0.39747,0.5134 1.159288,0.5134 0.866706,0 1.639565,-0.4306 v 1.13169 q -0.347786,0.20426 -0.745256,0.29258 -0.39195,0.0883 -0.955033,0.0883 z"
           style="font-style:normal;font-variant:normal;font-weight:600;font-stretch:normal;font-size:11.30582237px;font-family:'Open Sans';-inkscape-font-specification:'Open Sans, Semi-Bold';font-variant-ligatures:normal;font-variant-caps:normal;font-variant-numeric:normal;font-feature-settings:normal;text-align:start;writing-mode:lr-tb;text-anchor:start;fill:#ffffff;stroke-width:0.26458332"
           id="path855" />
        <path
           d="m 73.002071,281.73423 0.734216,-0.91639 1.843821,-1.96527 h 1.496034 l -2.456588,2.6222 2.611159,3.48339 h -1.523636 l -1.959749,-2.6774 -0.712135,0.58516 v 2.09224 h -1.286258 v -8.58977 h 1.286258 v 4.18999 l -0.06625,1.17585 z"
           style="font-style:normal;font-variant:normal;font-weight:600;font-stretch:normal;font-size:11.30582237px;font-family:'Open Sans';-inkscape-font-specification:'Open Sans, Semi-Bold';font-variant-ligatures:normal;font-variant-caps:normal;font-variant-numeric:normal;font-feature-settings:normal;text-align:start;writing-mode:lr-tb;text-anchor:start;fill:#ffffff;stroke-width:0.26458332"
           id="path857" />
        <path
           d="m 82.320543,283.21923 q 0,0.89431 -0.65141,1.37458 -0.65141,0.47476 -1.865902,0.47476 -1.220013,0 -1.95975,-0.36987 v -1.12064 q 1.076482,0.49683 2.003913,0.49683 1.197931,0 1.197931,-0.72317 0,-0.23186 -0.13249,-0.38643 -0.13249,-0.15457 -0.436113,-0.32019 -0.303623,-0.16561 -0.844624,-0.37538 -1.054401,-0.40852 -1.429789,-0.81703 -0.369869,-0.40851 -0.369869,-1.05992 0,-0.7839 0.629328,-1.21449 0.634849,-0.43611 1.722372,-0.43611 1.076482,0 2.037035,0.43611 l -0.419552,0.97711 q -0.988155,-0.40851 -1.661647,-0.40851 -1.026798,0 -1.026798,0.58517 0,0.28706 0.26498,0.48579 0.270501,0.19874 1.170329,0.54653 0.756298,0.29258 1.098564,0.53548 0.342266,0.2429 0.507879,0.56308 0.165613,0.31466 0.165613,0.7563 z"
           style="font-style:normal;font-variant:normal;font-weight:600;font-stretch:normal;font-size:11.30582237px;font-family:'Open Sans';-inkscape-font-specification:'Open Sans, Semi-Bold';font-variant-ligatures:normal;font-variant-caps:normal;font-variant-numeric:normal;font-feature-settings:normal;text-align:start;writing-mode:lr-tb;text-anchor:start;fill:#ffffff;stroke-width:0.26458332"
           id="path859" />
        <path
           d="m 85.991622,284.01969 q 0.474756,0 0.949512,-0.14905 v 0.97711 q -0.215296,0.0938 -0.557562,0.15457 -0.336746,0.0663 -0.701094,0.0663 -1.84382,0 -1.84382,-1.94319 v -3.29017 h -0.833584 v -0.57412 l 0.894308,-0.47476 0.441634,-1.29178 h 0.800461 v 1.35802 h 1.738933 v 0.98264 h -1.738933 v 3.26809 q 0,0.46923 0.231858,0.69557 0.237378,0.22082 0.618287,0.22082 z"
           style="font-style:normal;font-variant:normal;font-weight:600;font-stretch:normal;font-size:11.30582237px;font-family:'Open Sans';-inkscape-font-specification:'Open Sans, Semi-Bold';font-variant-ligatures:normal;font-variant-caps:normal;font-variant-numeric:normal;font-feature-settings:normal;text-align:start;writing-mode:lr-tb;text-anchor:start;fill:#ffffff;stroke-width:0.26458332"
           id="path861" />
        <path
           d="m 91.975757,284.95816 -0.259459,-0.85014 h -0.04416 q -0.441634,0.55756 -0.888788,0.76181 -0.447154,0.19874 -1.148247,0.19874 -0.899829,0 -1.407708,-0.4858 -0.502358,-0.4858 -0.502358,-1.37458 0,-0.944 0.701094,-1.42427 0.701093,-0.48028 2.136403,-0.52444 l 1.0544,-0.0331 v -0.32571 q 0,-0.58516 -0.276021,-0.87223 -0.270501,-0.29258 -0.844625,-0.29258 -0.469235,0 -0.899828,0.13801 -0.430593,0.13801 -0.828063,0.32571 l -0.419552,-0.92743 q 0.496838,-0.25946 1.087523,-0.39195 0.590685,-0.13801 1.115125,-0.13801 1.164809,0 1.755494,0.50788 0.596205,0.50787 0.596205,1.5954 v 4.11271 z m -1.932147,-0.88327 q 0.706614,0 1.131686,-0.39195 0.430593,-0.39747 0.430593,-1.1096 v -0.52996 l -0.7839,0.0331 q -0.91639,0.0331 -1.335942,0.30914 -0.414031,0.2705 -0.414031,0.83359 0,0.40851 0.242898,0.63485 0.242899,0.22081 0.728696,0.22081 z"
           style="font-style:normal;font-variant:normal;font-weight:600;font-stretch:normal;font-size:11.30582237px;font-family:'Open Sans';-inkscape-font-specification:'Open Sans, Semi-Bold';font-variant-ligatures:normal;font-variant-caps:normal;font-variant-numeric:normal;font-feature-settings:normal;text-align:start;writing-mode:lr-tb;text-anchor:start;fill:#ffffff;stroke-width:0.26458332"
           id="path863" />
        <path
           d="m 97.810844,278.74217 q 0.39195,0 0.645889,0.0552 l -0.126969,1.20897 q -0.276021,-0.0662 -0.574124,-0.0662 -0.77838,0 -1.264177,0.50788 -0.480276,0.50788 -0.480276,1.31938 v 3.1908 h -1.297299 v -6.10559 h 1.015757 l 0.171133,1.07649 h 0.06624 q 0.303624,-0.54652 0.789421,-0.86671 0.491317,-0.32018 1.0544,-0.32018 z"
           style="font-style:normal;font-variant:normal;font-weight:600;font-stretch:normal;font-size:11.30582237px;font-family:'Open Sans';-inkscape-font-specification:'Open Sans, Semi-Bold';font-variant-ligatures:normal;font-variant-caps:normal;font-variant-numeric:normal;font-feature-settings:normal;text-align:start;writing-mode:lr-tb;text-anchor:start;fill:#ffffff;stroke-width:0.26458332"
           id="path865" />
      </g>
    </g>
    <g
       id="g1683"
       transform="translate(0,-0.0302569)">
      <rect
         y="293.08353"
         x="102.37315"
         height="1.7582377"
         width="1.7582377"
         id="rect815-3-7-8"
         style="fill:#ff6600;fill-opacity:1;fill-rule:evenodd;stroke-width:0.26458332" />
      <rect
         y="289.55408"
         x="102.39731"
         height="1.7582377"
         width="1.7582377"
         id="rect815-3-0"
         style="fill:#ff6600;fill-opacity:1;fill-rule:evenodd;stroke-width:0.26458332" />
      <rect
         y="286.02463"
         x="102.38884"
         height="1.7582377"
         width="1.7582377"
         id="rect815-38"
         style="fill:#ff6600;fill-opacity:1;fill-rule:evenodd;stroke-width:0.26458332" />
      <g
         aria-label="lernOS"
         style="font-style:normal;font-weight:normal;font-size:11.45777321px;line-height:1.25;font-family:sans-serif;letter-spacing:0px;word-spacing:0px;fill:#000000;fill-opacity:1;stroke:none;stroke-width:0.79248083"
         id="text817-6">
        <path
           d="m 106.03734,294.72986 h -0.55387 v -8.70522 h 0.55387 z"
           style="font-style:normal;font-variant:normal;font-weight:300;font-stretch:normal;font-size:11.45777321px;font-family:'Open Sans';-inkscape-font-specification:'Open Sans, Light';font-variant-ligatures:normal;font-variant-caps:normal;font-variant-numeric:normal;font-feature-settings:normal;text-align:start;writing-mode:lr-tb;text-anchor:start;fill:#ffffff;stroke-width:0.79248083"
           id="path868" />
        <path
           d="m 110.53541,294.84175 q -1.32593,0 -2.07001,-0.81681 -0.73849,-0.81682 -0.73849,-2.2882 0,-1.4546 0.71611,-2.32736 0.71611,-0.87836 1.93014,-0.87836 1.07417,0 1.69517,0.74968 0.621,0.74968 0.621,2.03644 v 0.44757 h -4.38058 q 0.0112,1.2532 0.58184,1.91336 0.57624,0.66017 1.64482,0.66017 0.5203,0 0.91192,-0.0727 0.39722,-0.0727 1.00143,-0.3133 v 0.50351 q -0.5147,0.22379 -0.95108,0.30211 -0.43638,0.0839 -0.96227,0.0839 z m -0.16225,-5.8184 q -0.87835,0 -1.40984,0.58184 -0.53149,0.57625 -0.621,1.6672 h 3.75958 q 0,-1.05739 -0.45876,-1.65042 -0.45876,-0.59862 -1.26998,-0.59862 z"
           style="font-style:normal;font-variant:normal;font-weight:300;font-stretch:normal;font-size:11.45777321px;font-family:'Open Sans';-inkscape-font-specification:'Open Sans, Light';font-variant-ligatures:normal;font-variant-caps:normal;font-variant-numeric:normal;font-feature-settings:normal;text-align:start;writing-mode:lr-tb;text-anchor:start;fill:#ffffff;stroke-width:0.79248083"
           id="path870" />
        <path
           d="m 116.76221,288.53102 q 0.38603,0 0.82801,0.0783 l -0.1063,0.53149 q -0.38043,-0.0951 -0.78884,-0.0951 -0.77765,0 -1.27557,0.66016 -0.49793,0.66017 -0.49793,1.6672 v 3.35677 h -0.55386 v -6.08135 h 0.46995 l 0.0559,1.09655 h 0.0392 q 0.37484,-0.67136 0.80003,-0.9399 0.42519,-0.27414 1.02941,-0.27414 z"
           style="font-style:normal;font-variant:normal;font-weight:300;font-stretch:normal;font-size:11.45777321px;font-family:'Open Sans';-inkscape-font-specification:'Open Sans, Light';font-variant-ligatures:normal;font-variant-caps:normal;font-variant-numeric:normal;font-feature-settings:normal;text-align:start;writing-mode:lr-tb;text-anchor:start;fill:#ffffff;stroke-width:0.79248083"
           id="path872" />
        <path
           d="m 123.06175,294.72986 v -3.94421 q 0,-0.91751 -0.38603,-1.33151 -0.38603,-0.4196 -1.19724,-0.4196 -1.09095,0 -1.60006,0.55387 -0.50352,0.54827 -0.50352,1.78468 v 3.35677 h -0.55387 v -6.08135 h 0.46995 l 0.1063,0.8336 h 0.0336 q 0.59303,-0.95109 2.10917,-0.95109 2.07,0 2.07,2.22107 v 3.97777 z"
           style="font-style:normal;font-variant:normal;font-weight:300;font-stretch:normal;font-size:11.45777321px;font-family:'Open Sans';-inkscape-font-specification:'Open Sans, Light';font-variant-ligatures:normal;font-variant-caps:normal;font-variant-numeric:normal;font-feature-settings:normal;text-align:start;writing-mode:lr-tb;text-anchor:start;fill:#ffffff;stroke-width:0.79248083"
           id="path874" />
        <path
           d="m 132.59498,290.629 q 0,1.94693 -0.97347,3.08264 -0.97346,1.13011 -2.68541,1.13011 -1.70636,0 -2.67982,-1.13011 -0.97347,-1.13571 -0.97347,-3.09382 0,-1.95253 0.97906,-3.07145 0.98465,-1.12452 2.68542,-1.12452 1.71195,0 2.67982,1.13012 0.96787,1.12451 0.96787,3.07703 z m -6.69116,0 q 0,1.75671 0.78324,2.71899 0.78325,0.95668 2.24904,0.95668 1.47698,0 2.25463,-0.95109 0.78324,-0.95108 0.78324,-2.72458 0,-1.76789 -0.78324,-2.70779 -0.77765,-0.94549 -2.24344,-0.94549 -1.4602,0 -2.25463,0.95109 -0.78884,0.95108 -0.78884,2.70219 z"
           style="font-style:normal;font-variant:normal;font-weight:300;font-stretch:normal;font-size:11.45777321px;font-family:'Open Sans';-inkscape-font-specification:'Open Sans, Light';font-variant-ligatures:normal;font-variant-caps:normal;font-variant-numeric:normal;font-feature-settings:normal;text-align:start;writing-mode:lr-tb;text-anchor:start;fill:#ffffff;stroke-width:0.79248083"
           id="path876" />
        <path
           d="m 138.98403,292.62069 q 0,1.02381 -0.75528,1.62244 -0.74967,0.59862 -1.99727,0.59862 -1.49936,0 -2.29939,-0.33008 v -0.57065 q 0.88395,0.37484 2.25463,0.37484 1.00703,0 1.59446,-0.45876 0.59303,-0.46435 0.59303,-1.21403 0,-0.46436 -0.19581,-0.76647 -0.19581,-0.3077 -0.63778,-0.55946 -0.44198,-0.25175 -1.29795,-0.54267 -1.2532,-0.43079 -1.73434,-0.92871 -0.47554,-0.50352 -0.47554,-1.33711 0,-0.91752 0.71611,-1.49377 0.72171,-0.58184 1.85182,-0.58184 1.15249,0 2.16512,0.43638 l -0.207,0.49233 q -1.01822,-0.42519 -1.94693,-0.42519 -0.90633,0 -1.44341,0.41959 -0.53708,0.4196 -0.53708,1.14131 0,0.45316 0.16224,0.74408 0.16784,0.29092 0.54268,0.52589 0.37484,0.22938 1.28676,0.55387 0.95668,0.33008 1.43782,0.64338 0.48113,0.30771 0.69932,0.70492 0.22379,0.39163 0.22379,0.95109 z"
           style="font-style:normal;font-variant:normal;font-weight:300;font-stretch:normal;font-size:11.45777321px;font-family:'Open Sans';-inkscape-font-specification:'Open Sans, Light';font-variant-ligatures:normal;font-variant-caps:normal;font-variant-numeric:normal;font-feature-settings:normal;text-align:start;writing-mode:lr-tb;text-anchor:start;fill:#ffffff;stroke-width:0.79248083"
           id="path878" />
      </g>
      <path
         transform="matrix(0.26544693,0.00880398,-0.00880398,0.26544693,130.53112,207.15601)"
         inkscape:transform-center-y="-0.079471086"
         inkscape:transform-center-x="-0.074524016"
         d="m 77.716398,328.4001 -11.104936,-7.54463 -10.570904,8.27629 3.743755,-12.89284 -11.13781,-7.49601 13.418703,-0.42358 3.687359,-12.90908 4.54946,12.63105 13.416723,-0.48224 -10.606982,8.23 z"
         inkscape:randomized="0"
         inkscape:rounded="0"
         inkscape:flatsided="false"
         sodipodi:arg2="1.5370544"
         sodipodi:arg1="0.90873586"
         sodipodi:r2="7.0106473"
         sodipodi:r1="18.449072"
         sodipodi:cy="313.84882"
         sodipodi:cx="66.374954"
         sodipodi:sides="5"
         id="path1529-7"
         style="fill:#ff6600;fill-opacity:1;fill-rule:evenodd;stroke-width:0.99619871"
         sodipodi:type="star" />
      <g
         aria-label="Rockstar"
         transform="scale(0.96725587,1.0338526)"
         style="font-style:normal;font-weight:normal;font-size:11.3057518px;line-height:1.25;font-family:sans-serif;letter-spacing:0px;word-spacing:0px;fill:#ffffff;fill-opacity:1;stroke:none;stroke-width:0.26458332"
         id="text1570-7">
        <path
           d="m 158.27021,280.67046 h 0.91639 q 0.92191,0 1.33594,-0.34227 0.41404,-0.34226 0.41404,-1.01576 0,-0.68453 -0.44716,-0.98263 -0.44715,-0.2981 -1.34698,-0.2981 h -0.87223 z m 0,1.09304 v 3.22393 h -1.31938 v -8.07086 h 2.27994 q 1.56228,0 2.31305,0.58517 0.75078,0.58516 0.75078,1.76653 0,1.50708 -1.5678,2.14744 l 2.27993,3.57172 h -1.50155 l -1.93215,-3.22393 z"
           style="font-style:normal;font-variant:normal;font-weight:600;font-stretch:normal;font-size:11.30582237px;font-family:'Open Sans';-inkscape-font-specification:'Open Sans, Semi-Bold';font-variant-ligatures:normal;font-variant-caps:normal;font-variant-numeric:normal;font-feature-settings:normal;text-align:start;writing-mode:lr-tb;text-anchor:start;fill:#ffffff;stroke-width:0.26458332"
           id="path881" />
        <path
           d="m 169.44907,281.92359 q 0,1.49604 -0.76734,2.33514 -0.76734,0.83911 -2.13641,0.83911 -0.85566,0 -1.51259,-0.38643 -0.65693,-0.38643 -1.01024,-1.10961 -0.35331,-0.72317 -0.35331,-1.67821 0,-1.48499 0.76182,-2.31857 0.76182,-0.83359 2.14745,-0.83359 1.3249,0 2.09776,0.85567 0.77286,0.85014 0.77286,2.29649 z m -4.44394,0 q 0,2.11432 1.56228,2.11432 1.54571,0 1.54571,-2.11432 0,-2.09224 -1.55675,-2.09224 -0.81703,0 -1.1869,0.541 -0.36434,0.54101 -0.36434,1.55124 z"
           style="font-style:normal;font-variant:normal;font-weight:600;font-stretch:normal;font-size:11.30582237px;font-family:'Open Sans';-inkscape-font-specification:'Open Sans, Semi-Bold';font-variant-ligatures:normal;font-variant-caps:normal;font-variant-numeric:normal;font-feature-settings:normal;text-align:start;writing-mode:lr-tb;text-anchor:start;fill:#ffffff;stroke-width:0.26458332"
           id="path883" />
        <path
           d="m 173.40721,285.09784 q -1.38563,0 -2.1088,-0.80599 -0.71766,-0.8115 -0.71766,-2.32409 0,-1.5402 0.75078,-2.36826 0.7563,-0.82807 2.18057,-0.82807 0.96607,0 1.73893,0.35883 l -0.39195,1.04336 q -0.82254,-0.32018 -1.35802,-0.32018 -1.58437,0 -1.58437,2.10328 0,1.02679 0.39195,1.54571 0.39747,0.5134 1.15929,0.5134 0.86671,0 1.63957,-0.43059 v 1.13169 q -0.34779,0.20425 -0.74526,0.29258 -0.39195,0.0883 -0.95503,0.0883 z"
           style="font-style:normal;font-variant:normal;font-weight:600;font-stretch:normal;font-size:11.30582237px;font-family:'Open Sans';-inkscape-font-specification:'Open Sans, Semi-Bold';font-variant-ligatures:normal;font-variant-caps:normal;font-variant-numeric:normal;font-feature-settings:normal;text-align:start;writing-mode:lr-tb;text-anchor:start;fill:#ffffff;stroke-width:0.26458332"
           id="path885" />
        <path
           d="m 177.80698,281.7635 0.73422,-0.91639 1.84382,-1.96527 h 1.49603 l -2.45658,2.6222 2.61116,3.48339 h -1.52364 l -1.95975,-2.67741 -0.71213,0.58517 v 2.09224 h -1.28626 v -8.58978 h 1.28626 v 4.19 l -0.0662,1.17585 z"
           style="font-style:normal;font-variant:normal;font-weight:600;font-stretch:normal;font-size:11.30582237px;font-family:'Open Sans';-inkscape-font-specification:'Open Sans, Semi-Bold';font-variant-ligatures:normal;font-variant-caps:normal;font-variant-numeric:normal;font-feature-settings:normal;text-align:start;writing-mode:lr-tb;text-anchor:start;fill:#ffffff;stroke-width:0.26458332"
           id="path887" />
        <path
           d="m 187.12546,283.24849 q 0,0.89431 -0.65141,1.37459 -0.65141,0.47476 -1.86591,0.47476 -1.22001,0 -1.95975,-0.36987 v -1.12065 q 1.07649,0.49684 2.00392,0.49684 1.19793,0 1.19793,-0.72318 0,-0.23185 -0.13249,-0.38643 -0.13249,-0.15457 -0.43612,-0.32018 -0.30362,-0.16561 -0.84462,-0.37539 -1.0544,-0.40851 -1.42979,-0.81702 -0.36987,-0.40851 -0.36987,-1.05992 0,-0.7839 0.62933,-1.21449 0.63485,-0.43612 1.72237,-0.43612 1.07648,0 2.03704,0.43612 l -0.41955,0.97711 q -0.98816,-0.40851 -1.66165,-0.40851 -1.0268,0 -1.0268,0.58516 0,0.28707 0.26498,0.4858 0.2705,0.19874 1.17033,0.54652 0.7563,0.29258 1.09856,0.53548 0.34227,0.2429 0.50788,0.56309 0.16562,0.31466 0.16562,0.75629 z"
           style="font-style:normal;font-variant:normal;font-weight:600;font-stretch:normal;font-size:11.30582237px;font-family:'Open Sans';-inkscape-font-specification:'Open Sans, Semi-Bold';font-variant-ligatures:normal;font-variant-caps:normal;font-variant-numeric:normal;font-feature-settings:normal;text-align:start;writing-mode:lr-tb;text-anchor:start;fill:#ffffff;stroke-width:0.26458332"
           id="path889" />
        <path
           d="m 190.79653,284.04896 q 0.47476,0 0.94952,-0.14906 v 0.97712 q -0.2153,0.0938 -0.55757,0.15457 -0.33674,0.0663 -0.70109,0.0663 -1.84382,0 -1.84382,-1.94319 v -3.29017 h -0.83358 v -0.57413 l 0.8943,-0.47475 0.44164,-1.29178 h 0.80046 v 1.35802 h 1.73893 v 0.98264 h -1.73893 v 3.26809 q 0,0.46923 0.23186,0.69557 0.23738,0.22082 0.61828,0.22082 z"
           style="font-style:normal;font-variant:normal;font-weight:600;font-stretch:normal;font-size:11.30582237px;font-family:'Open Sans';-inkscape-font-specification:'Open Sans, Semi-Bold';font-variant-ligatures:normal;font-variant-caps:normal;font-variant-numeric:normal;font-feature-settings:normal;text-align:start;writing-mode:lr-tb;text-anchor:start;fill:#ffffff;stroke-width:0.26458332"
           id="path891" />
        <path
           d="m 196.78067,284.98743 -0.25946,-0.85015 h -0.0442 q -0.44164,0.55756 -0.88879,0.76182 -0.44716,0.19874 -1.14825,0.19874 -0.89983,0 -1.40771,-0.4858 -0.50235,-0.4858 -0.50235,-1.37459 0,-0.94399 0.70109,-1.42427 0.70109,-0.48027 2.1364,-0.52444 l 1.0544,-0.0331 v -0.3257 q 0,-0.58517 -0.27602,-0.87223 -0.2705,-0.29258 -0.84462,-0.29258 -0.46924,0 -0.89983,0.13801 -0.43059,0.13801 -0.82806,0.3257 l -0.41956,-0.92743 q 0.49684,-0.25946 1.08753,-0.39195 0.59068,-0.13801 1.11512,-0.13801 1.16481,0 1.7555,0.50788 0.5962,0.50788 0.5962,1.5954 v 4.11272 z m -1.93215,-0.88327 q 0.70662,0 1.13169,-0.39195 0.43059,-0.39747 0.43059,-1.10961 v -0.52996 l -0.7839,0.0331 q -0.91639,0.0331 -1.33594,0.30914 -0.41403,0.2705 -0.41403,0.83358 0,0.40852 0.2429,0.63485 0.2429,0.22082 0.72869,0.22082 z"
           style="font-style:normal;font-variant:normal;font-weight:600;font-stretch:normal;font-size:11.30582237px;font-family:'Open Sans';-inkscape-font-specification:'Open Sans, Semi-Bold';font-variant-ligatures:normal;font-variant-caps:normal;font-variant-numeric:normal;font-feature-settings:normal;text-align:start;writing-mode:lr-tb;text-anchor:start;fill:#ffffff;stroke-width:0.26458332"
           id="path893" />
        <path
           d="m 202.61576,278.77143 q 0.39195,0 0.64589,0.0552 l -0.12697,1.20897 q -0.27602,-0.0663 -0.57413,-0.0663 -0.77838,0 -1.26417,0.50788 -0.48028,0.50788 -0.48028,1.31938 v 3.19081 h -1.2973 v -6.10559 h 1.01576 l 0.17113,1.07648 h 0.0662 q 0.30362,-0.54652 0.78942,-0.8667 0.49131,-0.32019 1.0544,-0.32019 z"
           style="font-style:normal;font-variant:normal;font-weight:600;font-stretch:normal;font-size:11.30582237px;font-family:'Open Sans';-inkscape-font-specification:'Open Sans, Semi-Bold';font-variant-ligatures:normal;font-variant-caps:normal;font-variant-numeric:normal;font-feature-settings:normal;text-align:start;writing-mode:lr-tb;text-anchor:start;fill:#ffffff;stroke-width:0.26458332"
           id="path895" />
      </g>
    </g>
  </g>
</svg>
